<svg width="451" height="452" viewBox="0 0 451 452" fill="none" xmlns="http://www.w3.org/2000/svg">
<g clip-path="url(#clip0_278_69866)">
<g opacity="0.35" clip-path="url(#clip1_278_69866)">
<rect x="448.102" y="98.8652" width="4.65472" height="9.30945" rx="2.32736" transform="rotate(45 448.102 98.8652)" fill="white" fill-opacity="0.2"/>
<rect x="453.274" y="104.037" width="4.65472" height="9.30945" rx="2.32736" transform="rotate(45 453.274 104.037)" fill="white" fill-opacity="0.2"/>
<circle cx="362.056" cy="-3.16781" r="5.31969" transform="rotate(45 362.056 -3.16781)" fill="white" fill-opacity="0.2"/>
<rect x="349.36" y="0.123596" width="4.65472" height="9.30945" rx="2.32736" transform="rotate(45 349.36 0.123596)" fill="white" fill-opacity="0.2"/>
<rect x="344.188" y="-5.04858" width="4.65472" height="9.30945" rx="2.32736" transform="rotate(45 344.188 -5.04858)" fill="white" fill-opacity="0.2"/>
<rect x="354.533" y="5.29578" width="4.65472" height="9.30945" rx="2.32736" transform="rotate(45 354.533 5.29578)" fill="white" fill-opacity="0.2"/>
<circle cx="418.479" cy="-0.34658" r="5.31969" transform="rotate(45 418.479 -0.34658)" fill="white" fill-opacity="0.2"/>
<circle cx="429.764" cy="10.9381" r="5.31969" transform="rotate(45 429.764 10.9381)" fill="white" fill-opacity="0.2"/>
<rect x="406.725" y="3.88519" width="4.65472" height="9.30945" rx="2.32736" transform="rotate(45 406.725 3.88519)" fill="white" fill-opacity="0.2"/>
<rect x="417.069" y="14.2296" width="4.65472" height="9.30945" rx="2.32736" transform="rotate(45 417.069 14.2296)" fill="white" fill-opacity="0.2"/>
<rect x="411.896" y="9.05737" width="4.65472" height="9.30945" rx="2.32736" transform="rotate(45 411.896 9.05737)" fill="white" fill-opacity="0.2"/>
<rect x="422.241" y="19.4017" width="4.65472" height="9.30945" rx="2.32736" transform="rotate(45 422.241 19.4017)" fill="white" fill-opacity="0.2"/>
<rect x="447.162" y="-9.2804" width="4.65472" height="9.30945" rx="2.32736" transform="rotate(45 447.162 -9.2804)" fill="white" fill-opacity="0.2"/>
<rect x="457.506" y="1.06396" width="4.65472" height="9.30945" rx="2.32736" transform="rotate(45 457.506 1.06396)" fill="white" fill-opacity="0.2"/>
<rect x="452.333" y="-4.10822" width="4.65472" height="9.30945" rx="2.32736" transform="rotate(45 452.333 -4.10822)" fill="white" fill-opacity="0.2"/>
<circle cx="405.314" cy="40.0904" r="5.31969" transform="rotate(45 405.314 40.0904)" fill="white" fill-opacity="0.2"/>
<circle cx="416.599" cy="51.3752" r="5.31969" transform="rotate(45 416.599 51.3752)" fill="white" fill-opacity="0.2"/>
<rect x="393.559" y="44.3222" width="4.65472" height="9.30945" rx="2.32736" transform="rotate(45 393.559 44.3222)" fill="white" fill-opacity="0.2"/>
<rect x="403.903" y="54.6666" width="4.65472" height="9.30945" rx="2.32736" transform="rotate(45 403.903 54.6666)" fill="white" fill-opacity="0.2"/>
<rect x="398.731" y="49.4944" width="4.65472" height="9.30945" rx="2.32736" transform="rotate(45 398.731 49.4944)" fill="white" fill-opacity="0.2"/>
<rect x="409.076" y="59.8387" width="4.65472" height="9.30945" rx="2.32736" transform="rotate(45 409.076 59.8387)" fill="white" fill-opacity="0.2"/>
<rect x="394.97" y="-7.86981" width="4.65472" height="9.30945" rx="2.32736" transform="rotate(45 394.97 -7.86981)" fill="white" fill-opacity="0.2"/>
<circle cx="378.042" cy="12.8189" r="5.31969" transform="rotate(45 378.042 12.8189)" fill="white" fill-opacity="0.2"/>
<circle cx="389.327" cy="24.1037" r="5.31969" transform="rotate(45 389.327 24.1037)" fill="white" fill-opacity="0.2"/>
<rect x="366.288" y="17.0508" width="4.65472" height="9.30945" rx="2.32736" transform="rotate(45 366.288 17.0508)" fill="white" fill-opacity="0.2"/>
<rect x="376.632" y="27.3951" width="4.65472" height="9.30945" rx="2.32736" transform="rotate(45 376.632 27.3951)" fill="white" fill-opacity="0.2"/>
<rect x="371.46" y="22.2229" width="4.65472" height="9.30945" rx="2.32736" transform="rotate(45 371.46 22.2229)" fill="white" fill-opacity="0.2"/>
<rect x="381.804" y="32.5673" width="4.65472" height="9.30945" rx="2.32736" transform="rotate(45 381.804 32.5673)" fill="white" fill-opacity="0.2"/>
<circle cx="445.751" cy="26.9249" r="5.31969" transform="rotate(45 445.751 26.9249)" fill="white" fill-opacity="0.2"/>
<circle cx="457.036" cy="38.2097" r="5.31969" transform="rotate(45 457.036 38.2097)" fill="white" fill-opacity="0.2"/>
<rect x="433.996" y="31.1567" width="4.65472" height="9.30945" rx="2.32736" transform="rotate(45 433.996 31.1567)" fill="white" fill-opacity="0.2"/>
<rect x="444.34" y="41.501" width="4.65472" height="9.30945" rx="2.32736" transform="rotate(45 444.34 41.501)" fill="white" fill-opacity="0.2"/>
<rect x="439.168" y="36.3289" width="4.65472" height="9.30945" rx="2.32736" transform="rotate(45 439.168 36.3289)" fill="white" fill-opacity="0.2"/>
<rect x="449.513" y="46.6732" width="4.65472" height="9.30945" rx="2.32736" transform="rotate(45 449.513 46.6732)" fill="white" fill-opacity="0.2"/>
<circle cx="432.585" cy="67.3619" r="5.31969" transform="rotate(45 432.585 67.3619)" fill="white" fill-opacity="0.2"/>
<circle cx="443.87" cy="78.6467" r="5.31969" transform="rotate(45 443.87 78.6467)" fill="white" fill-opacity="0.2"/>
<rect x="420.831" y="71.5937" width="4.65472" height="9.30945" rx="2.32736" transform="rotate(45 420.831 71.5937)" fill="white" fill-opacity="0.2"/>
<rect x="431.175" y="81.938" width="4.65472" height="9.30945" rx="2.32736" transform="rotate(45 431.175 81.938)" fill="white" fill-opacity="0.2"/>
<rect x="426.002" y="76.7659" width="4.65472" height="9.30945" rx="2.32736" transform="rotate(45 426.002 76.7659)" fill="white" fill-opacity="0.2"/>
<rect x="436.347" y="87.1102" width="4.65472" height="9.30945" rx="2.32736" transform="rotate(45 436.347 87.1102)" fill="white" fill-opacity="0.2"/>
<circle cx="367.209" cy="160.009" r="5.31969" transform="rotate(45 367.209 160.009)" fill="white" fill-opacity="0.2"/>
<circle cx="378.494" cy="171.294" r="5.31969" transform="rotate(45 378.494 171.294)" fill="white" fill-opacity="0.2"/>
<rect x="355.455" y="164.241" width="4.65472" height="9.30945" rx="2.32736" transform="rotate(45 355.455 164.241)" fill="white" fill-opacity="0.2"/>
<rect x="365.799" y="174.585" width="4.65472" height="9.30945" rx="2.32736" transform="rotate(45 365.799 174.585)" fill="white" fill-opacity="0.2"/>
<rect x="360.626" y="169.413" width="4.65472" height="9.30945" rx="2.32736" transform="rotate(45 360.626 169.413)" fill="white" fill-opacity="0.2"/>
<rect x="370.971" y="179.757" width="4.65472" height="9.30945" rx="2.32736" transform="rotate(45 370.971 179.757)" fill="white" fill-opacity="0.2"/>
<circle cx="420.812" cy="106.406" r="5.31969" transform="rotate(45 420.812 106.406)" fill="white" fill-opacity="0.2"/>
<circle cx="432.097" cy="117.691" r="5.31969" transform="rotate(45 432.097 117.691)" fill="white" fill-opacity="0.2"/>
<rect x="409.057" y="110.638" width="4.65472" height="9.30945" rx="2.32736" transform="rotate(45 409.057 110.638)" fill="white" fill-opacity="0.2"/>
<rect x="419.401" y="120.983" width="4.65472" height="9.30945" rx="2.32736" transform="rotate(45 419.401 120.983)" fill="white" fill-opacity="0.2"/>
<rect x="414.229" y="115.81" width="4.65472" height="9.30945" rx="2.32736" transform="rotate(45 414.229 115.81)" fill="white" fill-opacity="0.2"/>
<rect x="424.574" y="126.155" width="4.65472" height="9.30945" rx="2.32736" transform="rotate(45 424.574 126.155)" fill="white" fill-opacity="0.2"/>
<circle cx="407.646" cy="146.844" r="5.31969" transform="rotate(45 407.646 146.844)" fill="white" fill-opacity="0.2"/>
<circle cx="418.931" cy="158.128" r="5.31969" transform="rotate(45 418.931 158.128)" fill="white" fill-opacity="0.2"/>
<rect x="395.892" y="151.075" width="4.65472" height="9.30945" rx="2.32736" transform="rotate(45 395.892 151.075)" fill="white" fill-opacity="0.2"/>
<rect x="406.236" y="161.42" width="4.65472" height="9.30945" rx="2.32736" transform="rotate(45 406.236 161.42)" fill="white" fill-opacity="0.2"/>
<rect x="401.063" y="156.247" width="4.65472" height="9.30945" rx="2.32736" transform="rotate(45 401.063 156.247)" fill="white" fill-opacity="0.2"/>
<rect x="411.408" y="166.592" width="4.65472" height="9.30945" rx="2.32736" transform="rotate(45 411.408 166.592)" fill="white" fill-opacity="0.2"/>
<circle cx="354.044" cy="200.446" r="5.31969" transform="rotate(45 354.044 200.446)" fill="white" fill-opacity="0.2"/>
<circle cx="365.329" cy="211.731" r="5.31969" transform="rotate(45 365.329 211.731)" fill="white" fill-opacity="0.2"/>
<rect x="342.289" y="204.678" width="4.65472" height="9.30945" rx="2.32736" transform="rotate(45 342.289 204.678)" fill="white" fill-opacity="0.2"/>
<rect x="352.633" y="215.022" width="4.65472" height="9.30945" rx="2.32736" transform="rotate(45 352.633 215.022)" fill="white" fill-opacity="0.2"/>
<rect x="347.461" y="209.85" width="4.65472" height="9.30945" rx="2.32736" transform="rotate(45 347.461 209.85)" fill="white" fill-opacity="0.2"/>
<rect x="357.806" y="220.194" width="4.65472" height="9.30945" rx="2.32736" transform="rotate(45 357.806 220.194)" fill="white" fill-opacity="0.2"/>
<circle cx="203.581" cy="-3.6199" r="5.31969" transform="rotate(45 203.581 -3.6199)" fill="white" fill-opacity="0.2"/>
<circle cx="214.865" cy="7.66483" r="5.31969" transform="rotate(45 214.865 7.66483)" fill="white" fill-opacity="0.2"/>
<rect x="191.826" y="0.611877" width="4.65472" height="9.30945" rx="2.32736" transform="rotate(45 191.826 0.611877)" fill="white" fill-opacity="0.2"/>
<rect x="202.17" y="10.9562" width="4.65472" height="9.30945" rx="2.32736" transform="rotate(45 202.17 10.9562)" fill="white" fill-opacity="0.2"/>
<rect x="196.998" y="5.78406" width="4.65472" height="9.30945" rx="2.32736" transform="rotate(45 196.998 5.78406)" fill="white" fill-opacity="0.2"/>
<rect x="207.342" y="16.1284" width="4.65472" height="9.30945" rx="2.32736" transform="rotate(45 207.342 16.1284)" fill="white" fill-opacity="0.2"/>
<circle cx="255.302" cy="-5.50075" r="5.31969" transform="rotate(45 255.302 -5.50075)" fill="white" fill-opacity="0.2"/>
<rect x="242.607" y="-2.20935" width="4.65472" height="9.30945" rx="2.32736" transform="rotate(45 242.607 -2.20935)" fill="white" fill-opacity="0.2"/>
<rect x="237.435" y="-7.38153" width="4.65472" height="9.30945" rx="2.32736" transform="rotate(45 237.435 -7.38153)" fill="white" fill-opacity="0.2"/>
<rect x="247.779" y="2.96283" width="4.65472" height="9.30945" rx="2.32736" transform="rotate(45 247.779 2.96283)" fill="white" fill-opacity="0.2"/>
<circle cx="190.415" cy="36.8171" r="5.31969" transform="rotate(45 190.415 36.8171)" fill="white" fill-opacity="0.2"/>
<circle cx="201.7" cy="48.1019" r="5.31969" transform="rotate(45 201.7 48.1019)" fill="white" fill-opacity="0.2"/>
<rect x="178.66" y="41.049" width="4.65472" height="9.30945" rx="2.32736" transform="rotate(45 178.66 41.049)" fill="white" fill-opacity="0.2"/>
<rect x="189.004" y="51.3933" width="4.65472" height="9.30945" rx="2.32736" transform="rotate(45 189.004 51.3933)" fill="white" fill-opacity="0.2"/>
<rect x="183.832" y="46.2211" width="4.65472" height="9.30945" rx="2.32736" transform="rotate(45 183.832 46.2211)" fill="white" fill-opacity="0.2"/>
<rect x="194.177" y="56.5655" width="4.65472" height="9.30945" rx="2.32736" transform="rotate(45 194.177 56.5655)" fill="white" fill-opacity="0.2"/>
<circle cx="421.752" cy="214.552" r="5.31969" transform="rotate(45 421.752 214.552)" fill="white" fill-opacity="0.2"/>
<circle cx="433.037" cy="225.837" r="5.31969" transform="rotate(45 433.037 225.837)" fill="white" fill-opacity="0.2"/>
<rect x="409.998" y="218.784" width="4.65472" height="9.30945" rx="2.32736" transform="rotate(45 409.998 218.784)" fill="white" fill-opacity="0.2"/>
<rect x="420.342" y="229.128" width="4.65472" height="9.30945" rx="2.32736" transform="rotate(45 420.342 229.128)" fill="white" fill-opacity="0.2"/>
<rect x="415.17" y="223.956" width="4.65472" height="9.30945" rx="2.32736" transform="rotate(45 415.17 223.956)" fill="white" fill-opacity="0.2"/>
<rect x="425.514" y="234.3" width="4.65472" height="9.30945" rx="2.32736" transform="rotate(45 425.514 234.3)" fill="white" fill-opacity="0.2"/>
<rect x="450.435" y="205.618" width="4.65472" height="9.30945" rx="2.32736" transform="rotate(45 450.435 205.618)" fill="white" fill-opacity="0.2"/>
<rect x="455.607" y="210.79" width="4.65472" height="9.30945" rx="2.32736" transform="rotate(45 455.607 210.79)" fill="white" fill-opacity="0.2"/>
<circle cx="408.587" cy="254.989" r="5.31969" transform="rotate(45 408.587 254.989)" fill="white" fill-opacity="0.2"/>
<circle cx="419.872" cy="266.274" r="5.31969" transform="rotate(45 419.872 266.274)" fill="white" fill-opacity="0.2"/>
<rect x="396.832" y="259.221" width="4.65472" height="9.30945" rx="2.32736" transform="rotate(45 396.832 259.221)" fill="white" fill-opacity="0.2"/>
<rect x="407.176" y="269.565" width="4.65472" height="9.30945" rx="2.32736" transform="rotate(45 407.176 269.565)" fill="white" fill-opacity="0.2"/>
<rect x="402.004" y="264.393" width="4.65472" height="9.30945" rx="2.32736" transform="rotate(45 402.004 264.393)" fill="white" fill-opacity="0.2"/>
<rect x="412.349" y="274.737" width="4.65472" height="9.30945" rx="2.32736" transform="rotate(45 412.349 274.737)" fill="white" fill-opacity="0.2"/>
<circle cx="258.124" cy="50.9231" r="5.31969" transform="rotate(45 258.124 50.9231)" fill="white" fill-opacity="0.2"/>
<circle cx="269.408" cy="62.2078" r="5.31969" transform="rotate(45 269.408 62.2078)" fill="white" fill-opacity="0.2"/>
<rect x="246.369" y="55.1549" width="4.65472" height="9.30945" rx="2.32736" transform="rotate(45 246.369 55.1549)" fill="white" fill-opacity="0.2"/>
<rect x="256.713" y="65.4992" width="4.65472" height="9.30945" rx="2.32736" transform="rotate(45 256.713 65.4992)" fill="white" fill-opacity="0.2"/>
<rect x="251.541" y="60.327" width="4.65472" height="9.30945" rx="2.32736" transform="rotate(45 251.541 60.327)" fill="white" fill-opacity="0.2"/>
<rect x="261.885" y="70.6714" width="4.65472" height="9.30945" rx="2.32736" transform="rotate(45 261.885 70.6714)" fill="white" fill-opacity="0.2"/>
<circle cx="311.726" cy="-2.67953" r="5.31969" transform="rotate(45 311.726 -2.67953)" fill="white" fill-opacity="0.2"/>
<circle cx="323.011" cy="8.60526" r="5.31969" transform="rotate(45 323.011 8.60526)" fill="white" fill-opacity="0.2"/>
<rect x="299.971" y="1.55225" width="4.65472" height="9.30945" rx="2.32736" transform="rotate(45 299.971 1.55225)" fill="white" fill-opacity="0.2"/>
<rect x="310.315" y="11.8966" width="4.65472" height="9.30945" rx="2.32736" transform="rotate(45 310.315 11.8966)" fill="white" fill-opacity="0.2"/>
<rect x="305.143" y="6.72443" width="4.65472" height="9.30945" rx="2.32736" transform="rotate(45 305.143 6.72443)" fill="white" fill-opacity="0.2"/>
<rect x="315.488" y="17.0688" width="4.65472" height="9.30945" rx="2.32736" transform="rotate(45 315.488 17.0688)" fill="white" fill-opacity="0.2"/>
<circle cx="298.561" cy="37.7575" r="5.31969" transform="rotate(45 298.561 37.7575)" fill="white" fill-opacity="0.2"/>
<circle cx="309.845" cy="49.0423" r="5.31969" transform="rotate(45 309.845 49.0423)" fill="white" fill-opacity="0.2"/>
<rect x="286.806" y="41.9893" width="4.65472" height="9.30945" rx="2.32736" transform="rotate(45 286.806 41.9893)" fill="white" fill-opacity="0.2"/>
<rect x="297.15" y="52.3337" width="4.65472" height="9.30945" rx="2.32736" transform="rotate(45 297.15 52.3337)" fill="white" fill-opacity="0.2"/>
<rect x="291.978" y="47.1615" width="4.65472" height="9.30945" rx="2.32736" transform="rotate(45 291.978 47.1615)" fill="white" fill-opacity="0.2"/>
<rect x="302.322" y="57.5059" width="4.65472" height="9.30945" rx="2.32736" transform="rotate(45 302.322 57.5059)" fill="white" fill-opacity="0.2"/>
<circle cx="244.958" cy="91.3601" r="5.31969" transform="rotate(45 244.958 91.3601)" fill="white" fill-opacity="0.2"/>
<circle cx="256.243" cy="102.645" r="5.31969" transform="rotate(45 256.243 102.645)" fill="white" fill-opacity="0.2"/>
<rect x="233.203" y="95.5919" width="4.65472" height="9.30945" rx="2.32736" transform="rotate(45 233.203 95.5919)" fill="white" fill-opacity="0.2"/>
<rect x="243.547" y="105.936" width="4.65472" height="9.30945" rx="2.32736" transform="rotate(45 243.547 105.936)" fill="white" fill-opacity="0.2"/>
<rect x="238.375" y="100.764" width="4.65472" height="9.30945" rx="2.32736" transform="rotate(45 238.375 100.764)" fill="white" fill-opacity="0.2"/>
<rect x="248.72" y="111.108" width="4.65472" height="9.30945" rx="2.32736" transform="rotate(45 248.72 111.108)" fill="white" fill-opacity="0.2"/>
<circle cx="147.157" cy="-6.44112" r="5.31969" transform="rotate(45 147.157 -6.44112)" fill="white" fill-opacity="0.2"/>
<rect x="134.461" y="-3.14972" width="4.65472" height="9.30945" rx="2.32736" transform="rotate(45 134.461 -3.14972)" fill="white" fill-opacity="0.2"/>
<rect x="129.29" y="-8.3219" width="4.65472" height="9.30945" rx="2.32736" transform="rotate(45 129.29 -8.3219)" fill="white" fill-opacity="0.2"/>
<rect x="139.634" y="2.02246" width="4.65472" height="9.30945" rx="2.32736" transform="rotate(45 139.634 2.02246)" fill="white" fill-opacity="0.2"/>
<rect x="451.375" y="313.764" width="4.65472" height="9.30945" rx="2.32736" transform="rotate(45 451.375 313.764)" fill="white" fill-opacity="0.2"/>
<rect x="456.547" y="318.936" width="4.65472" height="9.30945" rx="2.32736" transform="rotate(45 456.547 318.936)" fill="white" fill-opacity="0.2"/>
<circle cx="312.667" cy="105.466" r="5.31969" transform="rotate(45 312.667 105.466)" fill="white" fill-opacity="0.2"/>
<circle cx="323.951" cy="116.751" r="5.31969" transform="rotate(45 323.951 116.751)" fill="white" fill-opacity="0.2"/>
<rect x="300.912" y="109.698" width="4.65472" height="9.30945" rx="2.32736" transform="rotate(45 300.912 109.698)" fill="white" fill-opacity="0.2"/>
<rect x="311.256" y="120.042" width="4.65472" height="9.30945" rx="2.32736" transform="rotate(45 311.256 120.042)" fill="white" fill-opacity="0.2"/>
<rect x="306.083" y="114.87" width="4.65472" height="9.30945" rx="2.32736" transform="rotate(45 306.083 114.87)" fill="white" fill-opacity="0.2"/>
<rect x="316.428" y="125.214" width="4.65472" height="9.30945" rx="2.32736" transform="rotate(45 316.428 125.214)" fill="white" fill-opacity="0.2"/>
<circle cx="366.269" cy="51.8635" r="5.31969" transform="rotate(45 366.269 51.8635)" fill="white" fill-opacity="0.2"/>
<circle cx="377.554" cy="63.1483" r="5.31969" transform="rotate(45 377.554 63.1483)" fill="white" fill-opacity="0.2"/>
<rect x="354.514" y="56.0953" width="4.65472" height="9.30945" rx="2.32736" transform="rotate(45 354.514 56.0953)" fill="white" fill-opacity="0.2"/>
<rect x="364.858" y="66.4396" width="4.65472" height="9.30945" rx="2.32736" transform="rotate(45 364.858 66.4396)" fill="white" fill-opacity="0.2"/>
<rect x="359.687" y="61.2675" width="4.65472" height="9.30945" rx="2.32736" transform="rotate(45 359.687 61.2675)" fill="white" fill-opacity="0.2"/>
<rect x="370.031" y="71.6118" width="4.65472" height="9.30945" rx="2.32736" transform="rotate(45 370.031 71.6118)" fill="white" fill-opacity="0.2"/>
<circle cx="353.104" cy="92.3005" r="5.31969" transform="rotate(45 353.104 92.3005)" fill="white" fill-opacity="0.2"/>
<circle cx="364.388" cy="103.585" r="5.31969" transform="rotate(45 364.388 103.585)" fill="white" fill-opacity="0.2"/>
<rect x="341.349" y="96.5323" width="4.65472" height="9.30945" rx="2.32736" transform="rotate(45 341.349 96.5323)" fill="white" fill-opacity="0.2"/>
<rect x="351.693" y="106.877" width="4.65472" height="9.30945" rx="2.32736" transform="rotate(45 351.693 106.877)" fill="white" fill-opacity="0.2"/>
<rect x="346.521" y="101.704" width="4.65472" height="9.30945" rx="2.32736" transform="rotate(45 346.521 101.704)" fill="white" fill-opacity="0.2"/>
<rect x="356.865" y="112.049" width="4.65472" height="9.30945" rx="2.32736" transform="rotate(45 356.865 112.049)" fill="white" fill-opacity="0.2"/>
<circle cx="299.501" cy="145.903" r="5.31969" transform="rotate(45 299.501 145.903)" fill="white" fill-opacity="0.2"/>
<circle cx="310.786" cy="157.188" r="5.31969" transform="rotate(45 310.786 157.188)" fill="white" fill-opacity="0.2"/>
<rect x="287.746" y="150.135" width="4.65472" height="9.30945" rx="2.32736" transform="rotate(45 287.746 150.135)" fill="white" fill-opacity="0.2"/>
<rect x="298.09" y="160.479" width="4.65472" height="9.30945" rx="2.32736" transform="rotate(45 298.09 160.479)" fill="white" fill-opacity="0.2"/>
<rect x="292.918" y="155.307" width="4.65472" height="9.30945" rx="2.32736" transform="rotate(45 292.918 155.307)" fill="white" fill-opacity="0.2"/>
<rect x="303.263" y="165.651" width="4.65472" height="9.30945" rx="2.32736" transform="rotate(45 303.263 165.651)" fill="white" fill-opacity="0.2"/>
<circle cx="394.481" cy="187.281" r="5.31969" transform="rotate(45 394.481 187.281)" fill="white" fill-opacity="0.2"/>
<circle cx="405.766" cy="198.565" r="5.31969" transform="rotate(45 405.766 198.565)" fill="white" fill-opacity="0.2"/>
<rect x="382.726" y="191.512" width="4.65472" height="9.30945" rx="2.32736" transform="rotate(45 382.726 191.512)" fill="white" fill-opacity="0.2"/>
<rect x="393.07" y="201.857" width="4.65472" height="9.30945" rx="2.32736" transform="rotate(45 393.07 201.857)" fill="white" fill-opacity="0.2"/>
<rect x="387.898" y="196.685" width="4.65472" height="9.30945" rx="2.32736" transform="rotate(45 387.898 196.685)" fill="white" fill-opacity="0.2"/>
<rect x="398.243" y="207.029" width="4.65472" height="9.30945" rx="2.32736" transform="rotate(45 398.243 207.029)" fill="white" fill-opacity="0.2"/>
<circle cx="448.083" cy="133.678" r="5.31969" transform="rotate(45 448.083 133.678)" fill="white" fill-opacity="0.2"/>
<rect x="436.329" y="137.91" width="4.65472" height="9.30945" rx="2.32736" transform="rotate(45 436.329 137.91)" fill="white" fill-opacity="0.2"/>
<rect x="446.673" y="148.254" width="4.65472" height="9.30945" rx="2.32736" transform="rotate(45 446.673 148.254)" fill="white" fill-opacity="0.2"/>
<rect x="441.5" y="143.082" width="4.65472" height="9.30945" rx="2.32736" transform="rotate(45 441.5 143.082)" fill="white" fill-opacity="0.2"/>
<rect x="451.845" y="153.426" width="4.65472" height="9.30945" rx="2.32736" transform="rotate(45 451.845 153.426)" fill="white" fill-opacity="0.2"/>
<circle cx="434.918" cy="174.115" r="5.31969" transform="rotate(45 434.918 174.115)" fill="white" fill-opacity="0.2"/>
<circle cx="446.203" cy="185.4" r="5.31969" transform="rotate(45 446.203 185.4)" fill="white" fill-opacity="0.2"/>
<rect x="423.163" y="178.347" width="4.65472" height="9.30945" rx="2.32736" transform="rotate(45 423.163 178.347)" fill="white" fill-opacity="0.2"/>
<rect x="433.507" y="188.691" width="4.65472" height="9.30945" rx="2.32736" transform="rotate(45 433.507 188.691)" fill="white" fill-opacity="0.2"/>
<rect x="428.335" y="183.519" width="4.65472" height="9.30945" rx="2.32736" transform="rotate(45 428.335 183.519)" fill="white" fill-opacity="0.2"/>
<rect x="438.68" y="193.863" width="4.65472" height="9.30945" rx="2.32736" transform="rotate(45 438.68 193.863)" fill="white" fill-opacity="0.2"/>
<circle cx="381.315" cy="227.718" r="5.31969" transform="rotate(45 381.315 227.718)" fill="white" fill-opacity="0.2"/>
<circle cx="392.6" cy="239.002" r="5.31969" transform="rotate(45 392.6 239.002)" fill="white" fill-opacity="0.2"/>
<rect x="369.561" y="231.949" width="4.65472" height="9.30945" rx="2.32736" transform="rotate(45 369.561 231.949)" fill="white" fill-opacity="0.2"/>
<rect x="379.905" y="242.294" width="4.65472" height="9.30945" rx="2.32736" transform="rotate(45 379.905 242.294)" fill="white" fill-opacity="0.2"/>
<rect x="374.732" y="237.122" width="4.65472" height="9.30945" rx="2.32736" transform="rotate(45 374.732 237.122)" fill="white" fill-opacity="0.2"/>
<rect x="385.077" y="247.466" width="4.65472" height="9.30945" rx="2.32736" transform="rotate(45 385.077 247.466)" fill="white" fill-opacity="0.2"/>
<circle cx="230.852" cy="23.6516" r="5.31969" transform="rotate(45 230.852 23.6516)" fill="white" fill-opacity="0.2"/>
<circle cx="242.137" cy="34.9363" r="5.31969" transform="rotate(45 242.137 34.9363)" fill="white" fill-opacity="0.2"/>
<rect x="219.097" y="27.8834" width="4.65472" height="9.30945" rx="2.32736" transform="rotate(45 219.097 27.8834)" fill="white" fill-opacity="0.2"/>
<rect x="229.441" y="38.2277" width="4.65472" height="9.30945" rx="2.32736" transform="rotate(45 229.441 38.2277)" fill="white" fill-opacity="0.2"/>
<rect x="224.269" y="33.0555" width="4.65472" height="9.30945" rx="2.32736" transform="rotate(45 224.269 33.0555)" fill="white" fill-opacity="0.2"/>
<rect x="234.614" y="43.3999" width="4.65472" height="9.30945" rx="2.32736" transform="rotate(45 234.614 43.3999)" fill="white" fill-opacity="0.2"/>
<circle cx="271.289" cy="10.4861" r="5.31969" transform="rotate(45 271.289 10.4861)" fill="white" fill-opacity="0.2"/>
<circle cx="282.574" cy="21.7709" r="5.31969" transform="rotate(45 282.574 21.7709)" fill="white" fill-opacity="0.2"/>
<rect x="259.534" y="14.7179" width="4.65472" height="9.30945" rx="2.32736" transform="rotate(45 259.534 14.7179)" fill="white" fill-opacity="0.2"/>
<rect x="269.878" y="25.0622" width="4.65472" height="9.30945" rx="2.32736" transform="rotate(45 269.878 25.0622)" fill="white" fill-opacity="0.2"/>
<rect x="264.706" y="19.89" width="4.65472" height="9.30945" rx="2.32736" transform="rotate(45 264.706 19.89)" fill="white" fill-opacity="0.2"/>
<rect x="275.051" y="30.2344" width="4.65472" height="9.30945" rx="2.32736" transform="rotate(45 275.051 30.2344)" fill="white" fill-opacity="0.2"/>
<circle cx="217.687" cy="64.0886" r="5.31969" transform="rotate(45 217.687 64.0886)" fill="white" fill-opacity="0.2"/>
<circle cx="228.971" cy="75.3734" r="5.31969" transform="rotate(45 228.971 75.3734)" fill="white" fill-opacity="0.2"/>
<rect x="205.932" y="68.3204" width="4.65472" height="9.30945" rx="2.32736" transform="rotate(45 205.932 68.3204)" fill="white" fill-opacity="0.2"/>
<rect x="216.276" y="78.6648" width="4.65472" height="9.30945" rx="2.32736" transform="rotate(45 216.276 78.6648)" fill="white" fill-opacity="0.2"/>
<rect x="211.104" y="73.4926" width="4.65472" height="9.30945" rx="2.32736" transform="rotate(45 211.104 73.4926)" fill="white" fill-opacity="0.2"/>
<rect x="221.448" y="83.8369" width="4.65472" height="9.30945" rx="2.32736" transform="rotate(45 221.448 83.8369)" fill="white" fill-opacity="0.2"/>
<circle cx="449.024" cy="241.824" r="5.31969" transform="rotate(45 449.024 241.824)" fill="white" fill-opacity="0.2"/>
<rect x="437.269" y="246.055" width="4.65472" height="9.30945" rx="2.32736" transform="rotate(45 437.269 246.055)" fill="white" fill-opacity="0.2"/>
<rect x="447.613" y="256.4" width="4.65472" height="9.30945" rx="2.32736" transform="rotate(45 447.613 256.4)" fill="white" fill-opacity="0.2"/>
<rect x="442.441" y="251.228" width="4.65472" height="9.30945" rx="2.32736" transform="rotate(45 442.441 251.228)" fill="white" fill-opacity="0.2"/>
<rect x="452.786" y="261.572" width="4.65472" height="9.30945" rx="2.32736" transform="rotate(45 452.786 261.572)" fill="white" fill-opacity="0.2"/>
<circle cx="435.858" cy="282.261" r="5.31969" transform="rotate(45 435.858 282.261)" fill="white" fill-opacity="0.2"/>
<circle cx="447.143" cy="293.545" r="5.31969" transform="rotate(45 447.143 293.545)" fill="white" fill-opacity="0.2"/>
<rect x="424.104" y="286.492" width="4.65472" height="9.30945" rx="2.32736" transform="rotate(45 424.104 286.492)" fill="white" fill-opacity="0.2"/>
<rect x="434.448" y="296.837" width="4.65472" height="9.30945" rx="2.32736" transform="rotate(45 434.448 296.837)" fill="white" fill-opacity="0.2"/>
<rect x="429.275" y="291.665" width="4.65472" height="9.30945" rx="2.32736" transform="rotate(45 429.275 291.665)" fill="white" fill-opacity="0.2"/>
<rect x="439.62" y="302.009" width="4.65472" height="9.30945" rx="2.32736" transform="rotate(45 439.62 302.009)" fill="white" fill-opacity="0.2"/>
<circle cx="285.395" cy="78.1946" r="5.31969" transform="rotate(45 285.395 78.1946)" fill="white" fill-opacity="0.2"/>
<circle cx="296.68" cy="89.4793" r="5.31969" transform="rotate(45 296.68 89.4793)" fill="white" fill-opacity="0.2"/>
<rect x="273.64" y="82.4264" width="4.65472" height="9.30945" rx="2.32736" transform="rotate(45 273.64 82.4264)" fill="white" fill-opacity="0.2"/>
<rect x="283.984" y="92.7708" width="4.65472" height="9.30945" rx="2.32736" transform="rotate(45 283.984 92.7708)" fill="white" fill-opacity="0.2"/>
<rect x="278.812" y="87.5986" width="4.65472" height="9.30945" rx="2.32736" transform="rotate(45 278.812 87.5986)" fill="white" fill-opacity="0.2"/>
<rect x="289.157" y="97.9429" width="4.65472" height="9.30945" rx="2.32736" transform="rotate(45 289.157 97.9429)" fill="white" fill-opacity="0.2"/>
<circle cx="338.998" cy="24.592" r="5.31969" transform="rotate(45 338.998 24.592)" fill="white" fill-opacity="0.2"/>
<circle cx="350.282" cy="35.8767" r="5.31969" transform="rotate(45 350.282 35.8767)" fill="white" fill-opacity="0.2"/>
<rect x="327.243" y="28.8238" width="4.65472" height="9.30945" rx="2.32736" transform="rotate(45 327.243 28.8238)" fill="white" fill-opacity="0.2"/>
<rect x="337.587" y="39.1681" width="4.65472" height="9.30945" rx="2.32736" transform="rotate(45 337.587 39.1681)" fill="white" fill-opacity="0.2"/>
<rect x="332.415" y="33.9959" width="4.65472" height="9.30945" rx="2.32736" transform="rotate(45 332.415 33.9959)" fill="white" fill-opacity="0.2"/>
<rect x="342.759" y="44.3403" width="4.65472" height="9.30945" rx="2.32736" transform="rotate(45 342.759 44.3403)" fill="white" fill-opacity="0.2"/>
<circle cx="325.832" cy="65.029" r="5.31969" transform="rotate(45 325.832 65.029)" fill="white" fill-opacity="0.2"/>
<circle cx="337.117" cy="76.3138" r="5.31969" transform="rotate(45 337.117 76.3138)" fill="white" fill-opacity="0.2"/>
<rect x="314.077" y="69.2608" width="4.65472" height="9.30945" rx="2.32736" transform="rotate(45 314.077 69.2608)" fill="white" fill-opacity="0.2"/>
<rect x="324.421" y="79.6052" width="4.65472" height="9.30945" rx="2.32736" transform="rotate(45 324.421 79.6052)" fill="white" fill-opacity="0.2"/>
<rect x="319.249" y="74.433" width="4.65472" height="9.30945" rx="2.32736" transform="rotate(45 319.249 74.433)" fill="white" fill-opacity="0.2"/>
<rect x="329.594" y="84.7774" width="4.65472" height="9.30945" rx="2.32736" transform="rotate(45 329.594 84.7774)" fill="white" fill-opacity="0.2"/>
<circle cx="272.229" cy="118.632" r="5.31969" transform="rotate(45 272.229 118.632)" fill="white" fill-opacity="0.2"/>
<circle cx="283.514" cy="129.916" r="5.31969" transform="rotate(45 283.514 129.916)" fill="white" fill-opacity="0.2"/>
<rect x="260.475" y="122.863" width="4.65472" height="9.30945" rx="2.32736" transform="rotate(45 260.475 122.863)" fill="white" fill-opacity="0.2"/>
<rect x="270.819" y="133.208" width="4.65472" height="9.30945" rx="2.32736" transform="rotate(45 270.819 133.208)" fill="white" fill-opacity="0.2"/>
<rect x="265.647" y="128.036" width="4.65472" height="9.30945" rx="2.32736" transform="rotate(45 265.647 128.036)" fill="white" fill-opacity="0.2"/>
<rect x="275.991" y="138.38" width="4.65472" height="9.30945" rx="2.32736" transform="rotate(45 275.991 138.38)" fill="white" fill-opacity="0.2"/>
<circle cx="163.144" cy="9.54563" r="5.31969" transform="rotate(45 163.144 9.54563)" fill="white" fill-opacity="0.2"/>
<circle cx="174.428" cy="20.8304" r="5.31969" transform="rotate(45 174.428 20.8304)" fill="white" fill-opacity="0.2"/>
<rect x="151.389" y="13.7774" width="4.65472" height="9.30945" rx="2.32736" transform="rotate(45 151.389 13.7774)" fill="white" fill-opacity="0.2"/>
<rect x="161.733" y="24.1218" width="4.65472" height="9.30945" rx="2.32736" transform="rotate(45 161.733 24.1218)" fill="white" fill-opacity="0.2"/>
<rect x="156.561" y="18.9496" width="4.65472" height="9.30945" rx="2.32736" transform="rotate(45 156.561 18.9496)" fill="white" fill-opacity="0.2"/>
<rect x="166.905" y="29.2939" width="4.65472" height="9.30945" rx="2.32736" transform="rotate(45 166.905 29.2939)" fill="white" fill-opacity="0.2"/>
<circle cx="339.938" cy="132.738" r="5.31969" transform="rotate(45 339.938 132.738)" fill="white" fill-opacity="0.2"/>
<circle cx="351.223" cy="144.022" r="5.31969" transform="rotate(45 351.223 144.022)" fill="white" fill-opacity="0.2"/>
<rect x="328.183" y="136.969" width="4.65472" height="9.30945" rx="2.32736" transform="rotate(45 328.183 136.969)" fill="white" fill-opacity="0.2"/>
<rect x="338.527" y="147.314" width="4.65472" height="9.30945" rx="2.32736" transform="rotate(45 338.527 147.314)" fill="white" fill-opacity="0.2"/>
<rect x="333.355" y="142.142" width="4.65472" height="9.30945" rx="2.32736" transform="rotate(45 333.355 142.142)" fill="white" fill-opacity="0.2"/>
<rect x="343.7" y="152.486" width="4.65472" height="9.30945" rx="2.32736" transform="rotate(45 343.7 152.486)" fill="white" fill-opacity="0.2"/>
<circle cx="393.541" cy="79.135" r="5.31969" transform="rotate(45 393.541 79.135)" fill="white" fill-opacity="0.2"/>
<circle cx="404.825" cy="90.4197" r="5.31969" transform="rotate(45 404.825 90.4197)" fill="white" fill-opacity="0.2"/>
<rect x="381.786" y="83.3668" width="4.65472" height="9.30945" rx="2.32736" transform="rotate(45 381.786 83.3668)" fill="white" fill-opacity="0.2"/>
<rect x="392.13" y="93.7111" width="4.65472" height="9.30945" rx="2.32736" transform="rotate(45 392.13 93.7111)" fill="white" fill-opacity="0.2"/>
<rect x="386.958" y="88.5389" width="4.65472" height="9.30945" rx="2.32736" transform="rotate(45 386.958 88.5389)" fill="white" fill-opacity="0.2"/>
<rect x="397.302" y="98.8833" width="4.65472" height="9.30945" rx="2.32736" transform="rotate(45 397.302 98.8833)" fill="white" fill-opacity="0.2"/>
<circle cx="380.375" cy="119.572" r="5.31969" transform="rotate(45 380.375 119.572)" fill="white" fill-opacity="0.2"/>
<circle cx="391.66" cy="130.857" r="5.31969" transform="rotate(45 391.66 130.857)" fill="white" fill-opacity="0.2"/>
<rect x="368.62" y="123.804" width="4.65472" height="9.30945" rx="2.32736" transform="rotate(45 368.62 123.804)" fill="white" fill-opacity="0.2"/>
<rect x="378.964" y="134.148" width="4.65472" height="9.30945" rx="2.32736" transform="rotate(45 378.964 134.148)" fill="white" fill-opacity="0.2"/>
<rect x="373.792" y="128.976" width="4.65472" height="9.30945" rx="2.32736" transform="rotate(45 373.792 128.976)" fill="white" fill-opacity="0.2"/>
<rect x="384.137" y="139.32" width="4.65472" height="9.30945" rx="2.32736" transform="rotate(45 384.137 139.32)" fill="white" fill-opacity="0.2"/>
<circle cx="326.772" cy="173.175" r="5.31969" transform="rotate(45 326.772 173.175)" fill="white" fill-opacity="0.2"/>
<circle cx="338.057" cy="184.459" r="5.31969" transform="rotate(45 338.057 184.459)" fill="white" fill-opacity="0.2"/>
<rect x="315.018" y="177.406" width="4.65472" height="9.30945" rx="2.32736" transform="rotate(45 315.018 177.406)" fill="white" fill-opacity="0.2"/>
<rect x="325.362" y="187.751" width="4.65472" height="9.30945" rx="2.32736" transform="rotate(45 325.362 187.751)" fill="white" fill-opacity="0.2"/>
<rect x="320.189" y="182.579" width="4.65472" height="9.30945" rx="2.32736" transform="rotate(45 320.189 182.579)" fill="white" fill-opacity="0.2"/>
<rect x="330.534" y="192.923" width="4.65472" height="9.30945" rx="2.32736" transform="rotate(45 330.534 192.923)" fill="white" fill-opacity="0.2"/>
<circle cx="261.397" cy="265.822" r="5.31969" transform="rotate(45 261.397 265.822)" fill="white" fill-opacity="0.2"/>
<circle cx="272.682" cy="277.107" r="5.31969" transform="rotate(45 272.682 277.107)" fill="white" fill-opacity="0.2"/>
<rect x="249.642" y="270.054" width="4.65472" height="9.30945" rx="2.32736" transform="rotate(45 249.642 270.054)" fill="white" fill-opacity="0.2"/>
<rect x="259.986" y="280.398" width="4.65472" height="9.30945" rx="2.32736" transform="rotate(45 259.986 280.398)" fill="white" fill-opacity="0.2"/>
<rect x="254.814" y="275.226" width="4.65472" height="9.30945" rx="2.32736" transform="rotate(45 254.814 275.226)" fill="white" fill-opacity="0.2"/>
<rect x="265.159" y="285.57" width="4.65472" height="9.30945" rx="2.32736" transform="rotate(45 265.159 285.57)" fill="white" fill-opacity="0.2"/>
<circle cx="315" cy="212.219" r="5.31969" transform="rotate(45 315 212.219)" fill="white" fill-opacity="0.2"/>
<circle cx="326.284" cy="223.504" r="5.31969" transform="rotate(45 326.284 223.504)" fill="white" fill-opacity="0.2"/>
<rect x="303.245" y="216.451" width="4.65472" height="9.30945" rx="2.32736" transform="rotate(45 303.245 216.451)" fill="white" fill-opacity="0.2"/>
<rect x="313.589" y="226.795" width="4.65472" height="9.30945" rx="2.32736" transform="rotate(45 313.589 226.795)" fill="white" fill-opacity="0.2"/>
<rect x="308.417" y="221.623" width="4.65472" height="9.30945" rx="2.32736" transform="rotate(45 308.417 221.623)" fill="white" fill-opacity="0.2"/>
<rect x="318.761" y="231.967" width="4.65472" height="9.30945" rx="2.32736" transform="rotate(45 318.761 231.967)" fill="white" fill-opacity="0.2"/>
<circle cx="301.834" cy="252.656" r="5.31969" transform="rotate(45 301.834 252.656)" fill="white" fill-opacity="0.2"/>
<circle cx="313.119" cy="263.941" r="5.31969" transform="rotate(45 313.119 263.941)" fill="white" fill-opacity="0.2"/>
<rect x="290.079" y="256.888" width="4.65472" height="9.30945" rx="2.32736" transform="rotate(45 290.079 256.888)" fill="white" fill-opacity="0.2"/>
<rect x="300.423" y="267.232" width="4.65472" height="9.30945" rx="2.32736" transform="rotate(45 300.423 267.232)" fill="white" fill-opacity="0.2"/>
<rect x="295.251" y="262.06" width="4.65472" height="9.30945" rx="2.32736" transform="rotate(45 295.251 262.06)" fill="white" fill-opacity="0.2"/>
<rect x="305.596" y="272.405" width="4.65472" height="9.30945" rx="2.32736" transform="rotate(45 305.596 272.405)" fill="white" fill-opacity="0.2"/>
<circle cx="248.231" cy="306.259" r="5.31969" transform="rotate(45 248.231 306.259)" fill="white" fill-opacity="0.2"/>
<circle cx="259.516" cy="317.544" r="5.31969" transform="rotate(45 259.516 317.544)" fill="white" fill-opacity="0.2"/>
<rect x="236.477" y="310.491" width="4.65472" height="9.30945" rx="2.32736" transform="rotate(45 236.477 310.491)" fill="white" fill-opacity="0.2"/>
<rect x="246.821" y="320.835" width="4.65472" height="9.30945" rx="2.32736" transform="rotate(45 246.821 320.835)" fill="white" fill-opacity="0.2"/>
<rect x="241.648" y="315.663" width="4.65472" height="9.30945" rx="2.32736" transform="rotate(45 241.648 315.663)" fill="white" fill-opacity="0.2"/>
<rect x="251.993" y="326.007" width="4.65472" height="9.30945" rx="2.32736" transform="rotate(45 251.993 326.007)" fill="white" fill-opacity="0.2"/>
<circle cx="97.7681" cy="102.193" r="5.31969" transform="rotate(45 97.7681 102.193)" fill="white" fill-opacity="0.2"/>
<circle cx="109.053" cy="113.478" r="5.31969" transform="rotate(45 109.053 113.478)" fill="white" fill-opacity="0.2"/>
<rect x="86.0132" y="106.425" width="4.65472" height="9.30945" rx="2.32736" transform="rotate(45 86.0132 106.425)" fill="white" fill-opacity="0.2"/>
<rect x="96.3574" y="116.769" width="4.65472" height="9.30945" rx="2.32736" transform="rotate(45 96.3574 116.769)" fill="white" fill-opacity="0.2"/>
<rect x="91.1851" y="111.597" width="4.65472" height="9.30945" rx="2.32736" transform="rotate(45 91.1851 111.597)" fill="white" fill-opacity="0.2"/>
<rect x="101.53" y="121.941" width="4.65472" height="9.30945" rx="2.32736" transform="rotate(45 101.53 121.941)" fill="white" fill-opacity="0.2"/>
<circle cx="151.371" cy="48.5902" r="5.31969" transform="rotate(45 151.371 48.5902)" fill="white" fill-opacity="0.2"/>
<circle cx="162.655" cy="59.8749" r="5.31969" transform="rotate(45 162.655 59.8749)" fill="white" fill-opacity="0.2"/>
<rect x="139.616" y="52.822" width="4.65472" height="9.30945" rx="2.32736" transform="rotate(45 139.616 52.822)" fill="white" fill-opacity="0.2"/>
<rect x="149.96" y="63.1663" width="4.65472" height="9.30945" rx="2.32736" transform="rotate(45 149.96 63.1663)" fill="white" fill-opacity="0.2"/>
<rect x="144.788" y="57.9941" width="4.65472" height="9.30945" rx="2.32736" transform="rotate(45 144.788 57.9941)" fill="white" fill-opacity="0.2"/>
<rect x="155.132" y="68.3385" width="4.65472" height="9.30945" rx="2.32736" transform="rotate(45 155.132 68.3385)" fill="white" fill-opacity="0.2"/>
<circle cx="425.026" cy="429.451" r="5.31969" transform="rotate(45 425.026 429.451)" fill="white" fill-opacity="0.2"/>
<circle cx="436.311" cy="440.735" r="5.31969" transform="rotate(45 436.311 440.735)" fill="white" fill-opacity="0.2"/>
<rect x="413.271" y="433.683" width="4.65472" height="9.30945" rx="2.32736" transform="rotate(45 413.271 433.683)" fill="white" fill-opacity="0.2"/>
<rect x="423.615" y="444.027" width="4.65472" height="9.30945" rx="2.32736" transform="rotate(45 423.615 444.027)" fill="white" fill-opacity="0.2"/>
<rect x="418.443" y="438.855" width="4.65472" height="9.30945" rx="2.32736" transform="rotate(45 418.443 438.855)" fill="white" fill-opacity="0.2"/>
<rect x="428.788" y="449.199" width="4.65472" height="9.30945" rx="2.32736" transform="rotate(45 428.788 449.199)" fill="white" fill-opacity="0.2"/>
<circle cx="138.205" cy="89.0272" r="5.31969" transform="rotate(45 138.205 89.0272)" fill="white" fill-opacity="0.2"/>
<circle cx="149.49" cy="100.312" r="5.31969" transform="rotate(45 149.49 100.312)" fill="white" fill-opacity="0.2"/>
<rect x="126.45" y="93.259" width="4.65472" height="9.30945" rx="2.32736" transform="rotate(45 126.45 93.259)" fill="white" fill-opacity="0.2"/>
<rect x="136.794" y="103.603" width="4.65472" height="9.30945" rx="2.32736" transform="rotate(45 136.794 103.603)" fill="white" fill-opacity="0.2"/>
<rect x="131.622" y="98.4312" width="4.65472" height="9.30945" rx="2.32736" transform="rotate(45 131.622 98.4312)" fill="white" fill-opacity="0.2"/>
<rect x="141.967" y="108.776" width="4.65472" height="9.30945" rx="2.32736" transform="rotate(45 141.967 108.776)" fill="white" fill-opacity="0.2"/>
<rect x="453.708" y="420.517" width="4.65472" height="9.30945" rx="2.32736" transform="rotate(45 453.708 420.517)" fill="white" fill-opacity="0.2"/>
<circle cx="84.6025" cy="142.63" r="5.31969" transform="rotate(45 84.6025 142.63)" fill="white" fill-opacity="0.2"/>
<circle cx="95.8872" cy="153.915" r="5.31969" transform="rotate(45 95.8872 153.915)" fill="white" fill-opacity="0.2"/>
<rect x="72.8477" y="146.862" width="4.65472" height="9.30945" rx="2.32736" transform="rotate(45 72.8477 146.862)" fill="white" fill-opacity="0.2"/>
<rect x="83.1919" y="157.206" width="4.65472" height="9.30945" rx="2.32736" transform="rotate(45 83.1919 157.206)" fill="white" fill-opacity="0.2"/>
<rect x="78.0195" y="152.034" width="4.65472" height="9.30945" rx="2.32736" transform="rotate(45 78.0195 152.034)" fill="white" fill-opacity="0.2"/>
<rect x="88.3643" y="162.378" width="4.65472" height="9.30945" rx="2.32736" transform="rotate(45 88.3643 162.378)" fill="white" fill-opacity="0.2"/>
<circle cx="-0.0332031" cy="4.39152" r="5.31969" transform="rotate(45 -0.0332031 4.39152)" fill="white" fill-opacity="0.2"/>
<circle cx="315.94" cy="320.365" r="5.31969" transform="rotate(45 315.94 320.365)" fill="white" fill-opacity="0.2"/>
<circle cx="327.225" cy="331.65" r="5.31969" transform="rotate(45 327.225 331.65)" fill="white" fill-opacity="0.2"/>
<rect x="304.185" y="324.597" width="4.65472" height="9.30945" rx="2.32736" transform="rotate(45 304.185 324.597)" fill="white" fill-opacity="0.2"/>
<rect x="314.529" y="334.941" width="4.65472" height="9.30945" rx="2.32736" transform="rotate(45 314.529 334.941)" fill="white" fill-opacity="0.2"/>
<rect x="309.357" y="329.769" width="4.65472" height="9.30945" rx="2.32736" transform="rotate(45 309.357 329.769)" fill="white" fill-opacity="0.2"/>
<rect x="319.702" y="340.113" width="4.65472" height="9.30945" rx="2.32736" transform="rotate(45 319.702 340.113)" fill="white" fill-opacity="0.2"/>
<circle cx="369.542" cy="266.762" r="5.31969" transform="rotate(45 369.542 266.762)" fill="white" fill-opacity="0.2"/>
<circle cx="380.827" cy="278.047" r="5.31969" transform="rotate(45 380.827 278.047)" fill="white" fill-opacity="0.2"/>
<rect x="357.788" y="270.994" width="4.65472" height="9.30945" rx="2.32736" transform="rotate(45 357.788 270.994)" fill="white" fill-opacity="0.2"/>
<rect x="368.132" y="281.338" width="4.65472" height="9.30945" rx="2.32736" transform="rotate(45 368.132 281.338)" fill="white" fill-opacity="0.2"/>
<rect x="362.96" y="276.166" width="4.65472" height="9.30945" rx="2.32736" transform="rotate(45 362.96 276.166)" fill="white" fill-opacity="0.2"/>
<rect x="373.304" y="286.51" width="4.65472" height="9.30945" rx="2.32736" transform="rotate(45 373.304 286.51)" fill="white" fill-opacity="0.2"/>
<rect x="27.7085" y="-5.4826" width="4.65472" height="9.30945" rx="2.32736" transform="rotate(45 27.7085 -5.4826)" fill="white" fill-opacity="0.2"/>
<rect x="32.8809" y="-0.310425" width="4.65472" height="9.30945" rx="2.32736" transform="rotate(45 32.8809 -0.310425)" fill="white" fill-opacity="0.2"/>
<circle cx="356.377" cy="307.199" r="5.31969" transform="rotate(45 356.377 307.199)" fill="white" fill-opacity="0.2"/>
<circle cx="367.662" cy="318.484" r="5.31969" transform="rotate(45 367.662 318.484)" fill="white" fill-opacity="0.2"/>
<rect x="344.622" y="311.431" width="4.65472" height="9.30945" rx="2.32736" transform="rotate(45 344.622 311.431)" fill="white" fill-opacity="0.2"/>
<rect x="354.966" y="321.775" width="4.65472" height="9.30945" rx="2.32736" transform="rotate(45 354.966 321.775)" fill="white" fill-opacity="0.2"/>
<rect x="349.794" y="316.603" width="4.65472" height="9.30945" rx="2.32736" transform="rotate(45 349.794 316.603)" fill="white" fill-opacity="0.2"/>
<rect x="360.139" y="326.948" width="4.65472" height="9.30945" rx="2.32736" transform="rotate(45 360.139 326.948)" fill="white" fill-opacity="0.2"/>
<circle cx="302.774" cy="360.802" r="5.31969" transform="rotate(45 302.774 360.802)" fill="white" fill-opacity="0.2"/>
<circle cx="314.059" cy="372.087" r="5.31969" transform="rotate(45 314.059 372.087)" fill="white" fill-opacity="0.2"/>
<rect x="291.02" y="365.034" width="4.65472" height="9.30945" rx="2.32736" transform="rotate(45 291.02 365.034)" fill="white" fill-opacity="0.2"/>
<rect x="301.364" y="375.378" width="4.65472" height="9.30945" rx="2.32736" transform="rotate(45 301.364 375.378)" fill="white" fill-opacity="0.2"/>
<rect x="296.191" y="370.206" width="4.65472" height="9.30945" rx="2.32736" transform="rotate(45 296.191 370.206)" fill="white" fill-opacity="0.2"/>
<rect x="306.536" y="380.55" width="4.65472" height="9.30945" rx="2.32736" transform="rotate(45 306.536 380.55)" fill="white" fill-opacity="0.2"/>
<circle cx="152.311" cy="156.736" r="5.31969" transform="rotate(45 152.311 156.736)" fill="white" fill-opacity="0.2"/>
<circle cx="163.596" cy="168.021" r="5.31969" transform="rotate(45 163.596 168.021)" fill="white" fill-opacity="0.2"/>
<rect x="140.556" y="160.968" width="4.65472" height="9.30945" rx="2.32736" transform="rotate(45 140.556 160.968)" fill="white" fill-opacity="0.2"/>
<rect x="150.9" y="171.312" width="4.65472" height="9.30945" rx="2.32736" transform="rotate(45 150.9 171.312)" fill="white" fill-opacity="0.2"/>
<rect x="145.728" y="166.14" width="4.65472" height="9.30945" rx="2.32736" transform="rotate(45 145.728 166.14)" fill="white" fill-opacity="0.2"/>
<rect x="156.073" y="176.484" width="4.65472" height="9.30945" rx="2.32736" transform="rotate(45 156.073 176.484)" fill="white" fill-opacity="0.2"/>
<circle cx="205.914" cy="103.133" r="5.31969" transform="rotate(45 205.914 103.133)" fill="white" fill-opacity="0.2"/>
<circle cx="217.198" cy="114.418" r="5.31969" transform="rotate(45 217.198 114.418)" fill="white" fill-opacity="0.2"/>
<rect x="194.159" y="107.365" width="4.65472" height="9.30945" rx="2.32736" transform="rotate(45 194.159 107.365)" fill="white" fill-opacity="0.2"/>
<rect x="204.503" y="117.709" width="4.65472" height="9.30945" rx="2.32736" transform="rotate(45 204.503 117.709)" fill="white" fill-opacity="0.2"/>
<rect x="199.331" y="112.537" width="4.65472" height="9.30945" rx="2.32736" transform="rotate(45 199.331 112.537)" fill="white" fill-opacity="0.2"/>
<rect x="209.675" y="122.882" width="4.65472" height="9.30945" rx="2.32736" transform="rotate(45 209.675 122.882)" fill="white" fill-opacity="0.2"/>
<circle cx="192.748" cy="143.57" r="5.31969" transform="rotate(45 192.748 143.57)" fill="white" fill-opacity="0.2"/>
<circle cx="204.033" cy="154.855" r="5.31969" transform="rotate(45 204.033 154.855)" fill="white" fill-opacity="0.2"/>
<rect x="180.993" y="147.802" width="4.65472" height="9.30945" rx="2.32736" transform="rotate(45 180.993 147.802)" fill="white" fill-opacity="0.2"/>
<rect x="191.337" y="158.146" width="4.65472" height="9.30945" rx="2.32736" transform="rotate(45 191.337 158.146)" fill="white" fill-opacity="0.2"/>
<rect x="186.165" y="152.974" width="4.65472" height="9.30945" rx="2.32736" transform="rotate(45 186.165 152.974)" fill="white" fill-opacity="0.2"/>
<rect x="196.51" y="163.319" width="4.65472" height="9.30945" rx="2.32736" transform="rotate(45 196.51 163.319)" fill="white" fill-opacity="0.2"/>
<circle cx="139.146" cy="197.173" r="5.31969" transform="rotate(45 139.146 197.173)" fill="white" fill-opacity="0.2"/>
<circle cx="150.43" cy="208.458" r="5.31969" transform="rotate(45 150.43 208.458)" fill="white" fill-opacity="0.2"/>
<rect x="127.391" y="201.405" width="4.65472" height="9.30945" rx="2.32736" transform="rotate(45 127.391 201.405)" fill="white" fill-opacity="0.2"/>
<rect x="137.735" y="211.749" width="4.65472" height="9.30945" rx="2.32736" transform="rotate(45 137.735 211.749)" fill="white" fill-opacity="0.2"/>
<rect x="132.563" y="206.577" width="4.65472" height="9.30945" rx="2.32736" transform="rotate(45 132.563 206.577)" fill="white" fill-opacity="0.2"/>
<rect x="142.907" y="216.921" width="4.65472" height="9.30945" rx="2.32736" transform="rotate(45 142.907 216.921)" fill="white" fill-opacity="0.2"/>
<circle cx="43.2251" cy="47.6498" r="5.31969" transform="rotate(45 43.2251 47.6498)" fill="white" fill-opacity="0.2"/>
<circle cx="54.5098" cy="58.9345" r="5.31969" transform="rotate(45 54.5098 58.9345)" fill="white" fill-opacity="0.2"/>
<rect x="31.4702" y="51.8816" width="4.65472" height="9.30945" rx="2.32736" transform="rotate(45 31.4702 51.8816)" fill="white" fill-opacity="0.2"/>
<rect x="41.8145" y="62.2259" width="4.65472" height="9.30945" rx="2.32736" transform="rotate(45 41.8145 62.2259)" fill="white" fill-opacity="0.2"/>
<rect x="36.6426" y="57.0537" width="4.65472" height="9.30945" rx="2.32736" transform="rotate(45 36.6426 57.0537)" fill="white" fill-opacity="0.2"/>
<rect x="46.9868" y="67.3981" width="4.65472" height="9.30945" rx="2.32736" transform="rotate(45 46.9868 67.3981)" fill="white" fill-opacity="0.2"/>
<circle cx="96.8276" cy="-5.95278" r="5.31969" transform="rotate(45 96.8276 -5.95278)" fill="white" fill-opacity="0.2"/>
<circle cx="108.112" cy="5.33195" r="5.31969" transform="rotate(45 108.112 5.33195)" fill="white" fill-opacity="0.2"/>
<rect x="85.0728" y="-1.72101" width="4.65472" height="9.30945" rx="2.32736" transform="rotate(45 85.0728 -1.72101)" fill="white" fill-opacity="0.2"/>
<rect x="95.417" y="8.62335" width="4.65472" height="9.30945" rx="2.32736" transform="rotate(45 95.417 8.62335)" fill="white" fill-opacity="0.2"/>
<rect x="90.2446" y="3.45117" width="4.65472" height="9.30945" rx="2.32736" transform="rotate(45 90.2446 3.45117)" fill="white" fill-opacity="0.2"/>
<rect x="100.589" y="13.7955" width="4.65472" height="9.30945" rx="2.32736" transform="rotate(45 100.589 13.7955)" fill="white" fill-opacity="0.2"/>
<circle cx="370.483" cy="374.908" r="5.31969" transform="rotate(45 370.483 374.908)" fill="white" fill-opacity="0.2"/>
<circle cx="381.768" cy="386.192" r="5.31969" transform="rotate(45 381.768 386.192)" fill="white" fill-opacity="0.2"/>
<rect x="358.728" y="379.14" width="4.65472" height="9.30945" rx="2.32736" transform="rotate(45 358.728 379.14)" fill="white" fill-opacity="0.2"/>
<rect x="369.072" y="389.484" width="4.65472" height="9.30945" rx="2.32736" transform="rotate(45 369.072 389.484)" fill="white" fill-opacity="0.2"/>
<rect x="363.9" y="384.312" width="4.65472" height="9.30945" rx="2.32736" transform="rotate(45 363.9 384.312)" fill="white" fill-opacity="0.2"/>
<rect x="374.245" y="394.656" width="4.65472" height="9.30945" rx="2.32736" transform="rotate(45 374.245 394.656)" fill="white" fill-opacity="0.2"/>
<circle cx="424.085" cy="321.305" r="5.31969" transform="rotate(45 424.085 321.305)" fill="white" fill-opacity="0.2"/>
<circle cx="435.37" cy="332.59" r="5.31969" transform="rotate(45 435.37 332.59)" fill="white" fill-opacity="0.2"/>
<rect x="412.331" y="325.537" width="4.65472" height="9.30945" rx="2.32736" transform="rotate(45 412.331 325.537)" fill="white" fill-opacity="0.2"/>
<rect x="422.675" y="335.881" width="4.65472" height="9.30945" rx="2.32736" transform="rotate(45 422.675 335.881)" fill="white" fill-opacity="0.2"/>
<rect x="417.502" y="330.709" width="4.65472" height="9.30945" rx="2.32736" transform="rotate(45 417.502 330.709)" fill="white" fill-opacity="0.2"/>
<rect x="427.847" y="341.053" width="4.65472" height="9.30945" rx="2.32736" transform="rotate(45 427.847 341.053)" fill="white" fill-opacity="0.2"/>
<circle cx="83.6621" cy="34.4842" r="5.31969" transform="rotate(45 83.6621 34.4842)" fill="white" fill-opacity="0.2"/>
<circle cx="94.9468" cy="45.769" r="5.31969" transform="rotate(45 94.9468 45.769)" fill="white" fill-opacity="0.2"/>
<rect x="71.9072" y="38.716" width="4.65472" height="9.30945" rx="2.32736" transform="rotate(45 71.9072 38.716)" fill="white" fill-opacity="0.2"/>
<rect x="82.2515" y="49.0604" width="4.65472" height="9.30945" rx="2.32736" transform="rotate(45 82.2515 49.0604)" fill="white" fill-opacity="0.2"/>
<rect x="77.0796" y="43.8882" width="4.65472" height="9.30945" rx="2.32736" transform="rotate(45 77.0796 43.8882)" fill="white" fill-opacity="0.2"/>
<rect x="87.4238" y="54.2326" width="4.65472" height="9.30945" rx="2.32736" transform="rotate(45 87.4238 54.2326)" fill="white" fill-opacity="0.2"/>
<circle cx="410.92" cy="361.742" r="5.31969" transform="rotate(45 410.92 361.742)" fill="white" fill-opacity="0.2"/>
<circle cx="422.205" cy="373.027" r="5.31969" transform="rotate(45 422.205 373.027)" fill="white" fill-opacity="0.2"/>
<rect x="399.165" y="365.974" width="4.65472" height="9.30945" rx="2.32736" transform="rotate(45 399.165 365.974)" fill="white" fill-opacity="0.2"/>
<rect x="409.509" y="376.318" width="4.65472" height="9.30945" rx="2.32736" transform="rotate(45 409.509 376.318)" fill="white" fill-opacity="0.2"/>
<rect x="404.337" y="371.146" width="4.65472" height="9.30945" rx="2.32736" transform="rotate(45 404.337 371.146)" fill="white" fill-opacity="0.2"/>
<rect x="414.682" y="381.491" width="4.65472" height="9.30945" rx="2.32736" transform="rotate(45 414.682 381.491)" fill="white" fill-opacity="0.2"/>
<circle cx="30.0596" cy="88.0868" r="5.31969" transform="rotate(45 30.0596 88.0868)" fill="white" fill-opacity="0.2"/>
<circle cx="41.3442" cy="99.3716" r="5.31969" transform="rotate(45 41.3442 99.3716)" fill="white" fill-opacity="0.2"/>
<rect x="18.3047" y="92.3186" width="4.65472" height="9.30945" rx="2.32736" transform="rotate(45 18.3047 92.3186)" fill="white" fill-opacity="0.2"/>
<rect x="28.6489" y="102.663" width="4.65472" height="9.30945" rx="2.32736" transform="rotate(45 28.6489 102.663)" fill="white" fill-opacity="0.2"/>
<rect x="23.4771" y="97.4908" width="4.65472" height="9.30945" rx="2.32736" transform="rotate(45 23.4771 97.4908)" fill="white" fill-opacity="0.2"/>
<rect x="33.8213" y="107.835" width="4.65472" height="9.30945" rx="2.32736" transform="rotate(45 33.8213 107.835)" fill="white" fill-opacity="0.2"/>
<circle cx="357.317" cy="415.345" r="5.31969" transform="rotate(45 357.317 415.345)" fill="white" fill-opacity="0.2"/>
<circle cx="368.602" cy="426.63" r="5.31969" transform="rotate(45 368.602 426.63)" fill="white" fill-opacity="0.2"/>
<rect x="345.562" y="419.577" width="4.65472" height="9.30945" rx="2.32736" transform="rotate(45 345.562 419.577)" fill="white" fill-opacity="0.2"/>
<rect x="355.907" y="429.921" width="4.65472" height="9.30945" rx="2.32736" transform="rotate(45 355.907 429.921)" fill="white" fill-opacity="0.2"/>
<rect x="350.734" y="424.749" width="4.65472" height="9.30945" rx="2.32736" transform="rotate(45 350.734 424.749)" fill="white" fill-opacity="0.2"/>
<rect x="361.079" y="435.093" width="4.65472" height="9.30945" rx="2.32736" transform="rotate(45 361.079 435.093)" fill="white" fill-opacity="0.2"/>
<circle cx="206.854" cy="211.279" r="5.31969" transform="rotate(45 206.854 211.279)" fill="white" fill-opacity="0.2"/>
<circle cx="218.139" cy="222.564" r="5.31969" transform="rotate(45 218.139 222.564)" fill="white" fill-opacity="0.2"/>
<rect x="195.099" y="215.511" width="4.65472" height="9.30945" rx="2.32736" transform="rotate(45 195.099 215.511)" fill="white" fill-opacity="0.2"/>
<rect x="205.443" y="225.855" width="4.65472" height="9.30945" rx="2.32736" transform="rotate(45 205.443 225.855)" fill="white" fill-opacity="0.2"/>
<rect x="200.271" y="220.683" width="4.65472" height="9.30945" rx="2.32736" transform="rotate(45 200.271 220.683)" fill="white" fill-opacity="0.2"/>
<rect x="210.616" y="231.027" width="4.65472" height="9.30945" rx="2.32736" transform="rotate(45 210.616 231.027)" fill="white" fill-opacity="0.2"/>
<circle cx="260.457" cy="157.676" r="5.31969" transform="rotate(45 260.457 157.676)" fill="white" fill-opacity="0.2"/>
<circle cx="271.741" cy="168.961" r="5.31969" transform="rotate(45 271.741 168.961)" fill="white" fill-opacity="0.2"/>
<rect x="248.702" y="161.908" width="4.65472" height="9.30945" rx="2.32736" transform="rotate(45 248.702 161.908)" fill="white" fill-opacity="0.2"/>
<rect x="259.046" y="172.252" width="4.65472" height="9.30945" rx="2.32736" transform="rotate(45 259.046 172.252)" fill="white" fill-opacity="0.2"/>
<rect x="253.874" y="167.08" width="4.65472" height="9.30945" rx="2.32736" transform="rotate(45 253.874 167.08)" fill="white" fill-opacity="0.2"/>
<rect x="264.218" y="177.424" width="4.65472" height="9.30945" rx="2.32736" transform="rotate(45 264.218 177.424)" fill="white" fill-opacity="0.2"/>
<circle cx="247.291" cy="198.113" r="5.31969" transform="rotate(45 247.291 198.113)" fill="white" fill-opacity="0.2"/>
<circle cx="258.576" cy="209.398" r="5.31969" transform="rotate(45 258.576 209.398)" fill="white" fill-opacity="0.2"/>
<rect x="235.536" y="202.345" width="4.65472" height="9.30945" rx="2.32736" transform="rotate(45 235.536 202.345)" fill="white" fill-opacity="0.2"/>
<rect x="245.88" y="212.689" width="4.65472" height="9.30945" rx="2.32736" transform="rotate(45 245.88 212.689)" fill="white" fill-opacity="0.2"/>
<rect x="240.708" y="207.517" width="4.65472" height="9.30945" rx="2.32736" transform="rotate(45 240.708 207.517)" fill="white" fill-opacity="0.2"/>
<rect x="251.053" y="217.862" width="4.65472" height="9.30945" rx="2.32736" transform="rotate(45 251.053 217.862)" fill="white" fill-opacity="0.2"/>
<circle cx="193.688" cy="251.716" r="5.31969" transform="rotate(45 193.688 251.716)" fill="white" fill-opacity="0.2"/>
<circle cx="204.973" cy="263.001" r="5.31969" transform="rotate(45 204.973 263.001)" fill="white" fill-opacity="0.2"/>
<rect x="181.934" y="255.948" width="4.65472" height="9.30945" rx="2.32736" transform="rotate(45 181.934 255.948)" fill="white" fill-opacity="0.2"/>
<rect x="192.278" y="266.292" width="4.65472" height="9.30945" rx="2.32736" transform="rotate(45 192.278 266.292)" fill="white" fill-opacity="0.2"/>
<rect x="187.105" y="261.12" width="4.65472" height="9.30945" rx="2.32736" transform="rotate(45 187.105 261.12)" fill="white" fill-opacity="0.2"/>
<rect x="197.45" y="271.464" width="4.65472" height="9.30945" rx="2.32736" transform="rotate(45 197.45 271.464)" fill="white" fill-opacity="0.2"/>
<circle cx="288.668" cy="293.093" r="5.31969" transform="rotate(45 288.668 293.093)" fill="white" fill-opacity="0.2"/>
<circle cx="299.953" cy="304.378" r="5.31969" transform="rotate(45 299.953 304.378)" fill="white" fill-opacity="0.2"/>
<rect x="276.914" y="297.325" width="4.65472" height="9.30945" rx="2.32736" transform="rotate(45 276.914 297.325)" fill="white" fill-opacity="0.2"/>
<rect x="287.258" y="307.669" width="4.65472" height="9.30945" rx="2.32736" transform="rotate(45 287.258 307.669)" fill="white" fill-opacity="0.2"/>
<rect x="282.085" y="302.497" width="4.65472" height="9.30945" rx="2.32736" transform="rotate(45 282.085 302.497)" fill="white" fill-opacity="0.2"/>
<rect x="292.43" y="312.842" width="4.65472" height="9.30945" rx="2.32736" transform="rotate(45 292.43 312.842)" fill="white" fill-opacity="0.2"/>
<circle cx="342.271" cy="239.491" r="5.31969" transform="rotate(45 342.271 239.491)" fill="white" fill-opacity="0.2"/>
<circle cx="353.556" cy="250.775" r="5.31969" transform="rotate(45 353.556 250.775)" fill="white" fill-opacity="0.2"/>
<rect x="330.516" y="243.722" width="4.65472" height="9.30945" rx="2.32736" transform="rotate(45 330.516 243.722)" fill="white" fill-opacity="0.2"/>
<rect x="340.86" y="254.067" width="4.65472" height="9.30945" rx="2.32736" transform="rotate(45 340.86 254.067)" fill="white" fill-opacity="0.2"/>
<rect x="335.688" y="248.895" width="4.65472" height="9.30945" rx="2.32736" transform="rotate(45 335.688 248.895)" fill="white" fill-opacity="0.2"/>
<rect x="346.033" y="259.239" width="4.65472" height="9.30945" rx="2.32736" transform="rotate(45 346.033 259.239)" fill="white" fill-opacity="0.2"/>
<circle cx="329.105" cy="279.928" r="5.31969" transform="rotate(45 329.105 279.928)" fill="white" fill-opacity="0.2"/>
<circle cx="340.39" cy="291.212" r="5.31969" transform="rotate(45 340.39 291.212)" fill="white" fill-opacity="0.2"/>
<rect x="317.351" y="284.159" width="4.65472" height="9.30945" rx="2.32736" transform="rotate(45 317.351 284.159)" fill="white" fill-opacity="0.2"/>
<rect x="327.695" y="294.504" width="4.65472" height="9.30945" rx="2.32736" transform="rotate(45 327.695 294.504)" fill="white" fill-opacity="0.2"/>
<rect x="322.522" y="289.332" width="4.65472" height="9.30945" rx="2.32736" transform="rotate(45 322.522 289.332)" fill="white" fill-opacity="0.2"/>
<rect x="332.867" y="299.676" width="4.65472" height="9.30945" rx="2.32736" transform="rotate(45 332.867 299.676)" fill="white" fill-opacity="0.2"/>
<circle cx="275.503" cy="333.53" r="5.31969" transform="rotate(45 275.503 333.53)" fill="white" fill-opacity="0.2"/>
<circle cx="286.788" cy="344.815" r="5.31969" transform="rotate(45 286.788 344.815)" fill="white" fill-opacity="0.2"/>
<rect x="263.748" y="337.762" width="4.65472" height="9.30945" rx="2.32736" transform="rotate(45 263.748 337.762)" fill="white" fill-opacity="0.2"/>
<rect x="274.092" y="348.106" width="4.65472" height="9.30945" rx="2.32736" transform="rotate(45 274.092 348.106)" fill="white" fill-opacity="0.2"/>
<rect x="268.92" y="342.934" width="4.65472" height="9.30945" rx="2.32736" transform="rotate(45 268.92 342.934)" fill="white" fill-opacity="0.2"/>
<rect x="279.265" y="353.279" width="4.65472" height="9.30945" rx="2.32736" transform="rotate(45 279.265 353.279)" fill="white" fill-opacity="0.2"/>
<circle cx="125.04" cy="129.464" r="5.31969" transform="rotate(45 125.04 129.464)" fill="white" fill-opacity="0.2"/>
<circle cx="136.324" cy="140.749" r="5.31969" transform="rotate(45 136.324 140.749)" fill="white" fill-opacity="0.2"/>
<rect x="113.285" y="133.696" width="4.65472" height="9.30945" rx="2.32736" transform="rotate(45 113.285 133.696)" fill="white" fill-opacity="0.2"/>
<rect x="123.629" y="144.04" width="4.65472" height="9.30945" rx="2.32736" transform="rotate(45 123.629 144.04)" fill="white" fill-opacity="0.2"/>
<rect x="118.457" y="138.868" width="4.65472" height="9.30945" rx="2.32736" transform="rotate(45 118.457 138.868)" fill="white" fill-opacity="0.2"/>
<rect x="128.801" y="149.213" width="4.65472" height="9.30945" rx="2.32736" transform="rotate(45 128.801 149.213)" fill="white" fill-opacity="0.2"/>
<circle cx="178.642" cy="75.8617" r="5.31969" transform="rotate(45 178.642 75.8617)" fill="white" fill-opacity="0.2"/>
<circle cx="189.927" cy="87.1464" r="5.31969" transform="rotate(45 189.927 87.1464)" fill="white" fill-opacity="0.2"/>
<rect x="166.887" y="80.0935" width="4.65472" height="9.30945" rx="2.32736" transform="rotate(45 166.887 80.0935)" fill="white" fill-opacity="0.2"/>
<rect x="177.231" y="90.4378" width="4.65472" height="9.30945" rx="2.32736" transform="rotate(45 177.231 90.4378)" fill="white" fill-opacity="0.2"/>
<rect x="172.059" y="85.2657" width="4.65472" height="9.30945" rx="2.32736" transform="rotate(45 172.059 85.2657)" fill="white" fill-opacity="0.2"/>
<rect x="182.404" y="95.61" width="4.65472" height="9.30945" rx="2.32736" transform="rotate(45 182.404 95.61)" fill="white" fill-opacity="0.2"/>
<circle cx="452.297" cy="456.722" r="5.31969" transform="rotate(45 452.297 456.722)" fill="white" fill-opacity="0.2"/>
<circle cx="165.477" cy="116.299" r="5.31969" transform="rotate(45 165.477 116.299)" fill="white" fill-opacity="0.2"/>
<circle cx="176.761" cy="127.583" r="5.31969" transform="rotate(45 176.761 127.583)" fill="white" fill-opacity="0.2"/>
<rect x="153.722" y="120.531" width="4.65472" height="9.30945" rx="2.32736" transform="rotate(45 153.722 120.531)" fill="white" fill-opacity="0.2"/>
<rect x="164.066" y="130.875" width="4.65472" height="9.30945" rx="2.32736" transform="rotate(45 164.066 130.875)" fill="white" fill-opacity="0.2"/>
<rect x="158.894" y="125.703" width="4.65472" height="9.30945" rx="2.32736" transform="rotate(45 158.894 125.703)" fill="white" fill-opacity="0.2"/>
<rect x="169.238" y="136.047" width="4.65472" height="9.30945" rx="2.32736" transform="rotate(45 169.238 136.047)" fill="white" fill-opacity="0.2"/>
<circle cx="111.874" cy="169.901" r="5.31969" transform="rotate(45 111.874 169.901)" fill="white" fill-opacity="0.2"/>
<circle cx="123.159" cy="181.186" r="5.31969" transform="rotate(45 123.159 181.186)" fill="white" fill-opacity="0.2"/>
<rect x="100.119" y="174.133" width="4.65472" height="9.30945" rx="2.32736" transform="rotate(45 100.119 174.133)" fill="white" fill-opacity="0.2"/>
<rect x="110.463" y="184.477" width="4.65472" height="9.30945" rx="2.32736" transform="rotate(45 110.463 184.477)" fill="white" fill-opacity="0.2"/>
<rect x="105.291" y="179.305" width="4.65472" height="9.30945" rx="2.32736" transform="rotate(45 105.291 179.305)" fill="white" fill-opacity="0.2"/>
<rect x="115.636" y="189.65" width="4.65472" height="9.30945" rx="2.32736" transform="rotate(45 115.636 189.65)" fill="white" fill-opacity="0.2"/>
<circle cx="15.9536" cy="20.3783" r="5.31969" transform="rotate(45 15.9536 20.3783)" fill="white" fill-opacity="0.2"/>
<circle cx="27.2383" cy="31.663" r="5.31969" transform="rotate(45 27.2383 31.663)" fill="white" fill-opacity="0.2"/>
<rect x="4.19873" y="24.61" width="4.65472" height="9.30945" rx="2.32736" transform="rotate(45 4.19873 24.61)" fill="white" fill-opacity="0.2"/>
<rect x="14.543" y="34.9544" width="4.65472" height="9.30945" rx="2.32736" transform="rotate(45 14.543 34.9544)" fill="white" fill-opacity="0.2"/>
<rect x="9.37061" y="29.7822" width="4.65472" height="9.30945" rx="2.32736" transform="rotate(45 9.37061 29.7822)" fill="white" fill-opacity="0.2"/>
<rect x="19.7153" y="40.1266" width="4.65472" height="9.30945" rx="2.32736" transform="rotate(45 19.7153 40.1266)" fill="white" fill-opacity="0.2"/>
<circle cx="343.211" cy="347.636" r="5.31969" transform="rotate(45 343.211 347.636)" fill="white" fill-opacity="0.2"/>
<circle cx="354.496" cy="358.921" r="5.31969" transform="rotate(45 354.496 358.921)" fill="white" fill-opacity="0.2"/>
<rect x="331.457" y="351.868" width="4.65472" height="9.30945" rx="2.32736" transform="rotate(45 331.457 351.868)" fill="white" fill-opacity="0.2"/>
<rect x="341.801" y="362.212" width="4.65472" height="9.30945" rx="2.32736" transform="rotate(45 341.801 362.212)" fill="white" fill-opacity="0.2"/>
<rect x="336.629" y="357.04" width="4.65472" height="9.30945" rx="2.32736" transform="rotate(45 336.629 357.04)" fill="white" fill-opacity="0.2"/>
<rect x="346.973" y="367.385" width="4.65472" height="9.30945" rx="2.32736" transform="rotate(45 346.973 367.385)" fill="white" fill-opacity="0.2"/>
<circle cx="396.814" cy="294.034" r="5.31969" transform="rotate(45 396.814 294.034)" fill="white" fill-opacity="0.2"/>
<circle cx="408.099" cy="305.318" r="5.31969" transform="rotate(45 408.099 305.318)" fill="white" fill-opacity="0.2"/>
<rect x="385.059" y="298.265" width="4.65472" height="9.30945" rx="2.32736" transform="rotate(45 385.059 298.265)" fill="white" fill-opacity="0.2"/>
<rect x="395.403" y="308.61" width="4.65472" height="9.30945" rx="2.32736" transform="rotate(45 395.403 308.61)" fill="white" fill-opacity="0.2"/>
<rect x="390.231" y="303.438" width="4.65472" height="9.30945" rx="2.32736" transform="rotate(45 390.231 303.438)" fill="white" fill-opacity="0.2"/>
<rect x="400.576" y="313.782" width="4.65472" height="9.30945" rx="2.32736" transform="rotate(45 400.576 313.782)" fill="white" fill-opacity="0.2"/>
<circle cx="56.3906" cy="7.21275" r="5.31969" transform="rotate(45 56.3906 7.21275)" fill="white" fill-opacity="0.2"/>
<circle cx="67.6753" cy="18.4975" r="5.31969" transform="rotate(45 67.6753 18.4975)" fill="white" fill-opacity="0.2"/>
<rect x="44.6357" y="11.4446" width="4.65472" height="9.30945" rx="2.32736" transform="rotate(45 44.6357 11.4446)" fill="white" fill-opacity="0.2"/>
<rect x="54.98" y="21.7889" width="4.65472" height="9.30945" rx="2.32736" transform="rotate(45 54.98 21.7889)" fill="white" fill-opacity="0.2"/>
<rect x="49.8076" y="16.6167" width="4.65472" height="9.30945" rx="2.32736" transform="rotate(45 49.8076 16.6167)" fill="white" fill-opacity="0.2"/>
<rect x="60.1523" y="26.9611" width="4.65472" height="9.30945" rx="2.32736" transform="rotate(45 60.1523 26.9611)" fill="white" fill-opacity="0.2"/>
<circle cx="383.648" cy="334.471" r="5.31969" transform="rotate(45 383.648 334.471)" fill="white" fill-opacity="0.2"/>
<circle cx="394.933" cy="345.755" r="5.31969" transform="rotate(45 394.933 345.755)" fill="white" fill-opacity="0.2"/>
<rect x="371.894" y="338.702" width="4.65472" height="9.30945" rx="2.32736" transform="rotate(45 371.894 338.702)" fill="white" fill-opacity="0.2"/>
<rect x="382.238" y="349.047" width="4.65472" height="9.30945" rx="2.32736" transform="rotate(45 382.238 349.047)" fill="white" fill-opacity="0.2"/>
<rect x="377.065" y="343.875" width="4.65472" height="9.30945" rx="2.32736" transform="rotate(45 377.065 343.875)" fill="white" fill-opacity="0.2"/>
<rect x="387.41" y="354.219" width="4.65472" height="9.30945" rx="2.32736" transform="rotate(45 387.41 354.219)" fill="white" fill-opacity="0.2"/>
<circle cx="2.78809" cy="60.8153" r="5.31969" transform="rotate(45 2.78809 60.8153)" fill="white" fill-opacity="0.2"/>
<circle cx="14.0728" cy="72.1001" r="5.31969" transform="rotate(45 14.0728 72.1001)" fill="white" fill-opacity="0.2"/>
<rect x="1.37744" y="75.3915" width="4.65472" height="9.30945" rx="2.32736" transform="rotate(45 1.37744 75.3915)" fill="white" fill-opacity="0.2"/>
<rect x="6.5498" y="80.5637" width="4.65472" height="9.30945" rx="2.32736" transform="rotate(45 6.5498 80.5637)" fill="white" fill-opacity="0.2"/>
<circle cx="330.046" cy="388.073" r="5.31969" transform="rotate(45 330.046 388.073)" fill="white" fill-opacity="0.2"/>
<circle cx="341.331" cy="399.358" r="5.31969" transform="rotate(45 341.331 399.358)" fill="white" fill-opacity="0.2"/>
<rect x="318.291" y="392.305" width="4.65472" height="9.30945" rx="2.32736" transform="rotate(45 318.291 392.305)" fill="white" fill-opacity="0.2"/>
<rect x="328.635" y="402.649" width="4.65472" height="9.30945" rx="2.32736" transform="rotate(45 328.635 402.649)" fill="white" fill-opacity="0.2"/>
<rect x="323.463" y="397.477" width="4.65472" height="9.30945" rx="2.32736" transform="rotate(45 323.463 397.477)" fill="white" fill-opacity="0.2"/>
<rect x="333.808" y="407.822" width="4.65472" height="9.30945" rx="2.32736" transform="rotate(45 333.808 407.822)" fill="white" fill-opacity="0.2"/>
<circle cx="179.583" cy="184.007" r="5.31969" transform="rotate(45 179.583 184.007)" fill="white" fill-opacity="0.2"/>
<circle cx="190.867" cy="195.292" r="5.31969" transform="rotate(45 190.867 195.292)" fill="white" fill-opacity="0.2"/>
<rect x="167.828" y="188.239" width="4.65472" height="9.30945" rx="2.32736" transform="rotate(45 167.828 188.239)" fill="white" fill-opacity="0.2"/>
<rect x="178.172" y="198.583" width="4.65472" height="9.30945" rx="2.32736" transform="rotate(45 178.172 198.583)" fill="white" fill-opacity="0.2"/>
<rect x="173" y="193.411" width="4.65472" height="9.30945" rx="2.32736" transform="rotate(45 173 193.411)" fill="white" fill-opacity="0.2"/>
<rect x="183.344" y="203.756" width="4.65472" height="9.30945" rx="2.32736" transform="rotate(45 183.344 203.756)" fill="white" fill-opacity="0.2"/>
<circle cx="233.185" cy="130.405" r="5.31969" transform="rotate(45 233.185 130.405)" fill="white" fill-opacity="0.2"/>
<circle cx="244.47" cy="141.689" r="5.31969" transform="rotate(45 244.47 141.689)" fill="white" fill-opacity="0.2"/>
<rect x="221.43" y="134.636" width="4.65472" height="9.30945" rx="2.32736" transform="rotate(45 221.43 134.636)" fill="white" fill-opacity="0.2"/>
<rect x="231.774" y="144.981" width="4.65472" height="9.30945" rx="2.32736" transform="rotate(45 231.774 144.981)" fill="white" fill-opacity="0.2"/>
<rect x="226.602" y="139.809" width="4.65472" height="9.30945" rx="2.32736" transform="rotate(45 226.602 139.809)" fill="white" fill-opacity="0.2"/>
<rect x="236.947" y="150.153" width="4.65472" height="9.30945" rx="2.32736" transform="rotate(45 236.947 150.153)" fill="white" fill-opacity="0.2"/>
<circle cx="220.02" cy="170.842" r="5.31969" transform="rotate(45 220.02 170.842)" fill="white" fill-opacity="0.2"/>
<circle cx="231.304" cy="182.126" r="5.31969" transform="rotate(45 231.304 182.126)" fill="white" fill-opacity="0.2"/>
<rect x="208.265" y="175.074" width="4.65472" height="9.30945" rx="2.32736" transform="rotate(45 208.265 175.074)" fill="white" fill-opacity="0.2"/>
<rect x="218.609" y="185.418" width="4.65472" height="9.30945" rx="2.32736" transform="rotate(45 218.609 185.418)" fill="white" fill-opacity="0.2"/>
<rect x="213.437" y="180.246" width="4.65472" height="9.30945" rx="2.32736" transform="rotate(45 213.437 180.246)" fill="white" fill-opacity="0.2"/>
<rect x="223.781" y="190.59" width="4.65472" height="9.30945" rx="2.32736" transform="rotate(45 223.781 190.59)" fill="white" fill-opacity="0.2"/>
<circle cx="166.417" cy="224.444" r="5.31969" transform="rotate(45 166.417 224.444)" fill="white" fill-opacity="0.2"/>
<circle cx="177.702" cy="235.729" r="5.31969" transform="rotate(45 177.702 235.729)" fill="white" fill-opacity="0.2"/>
<rect x="154.662" y="228.676" width="4.65472" height="9.30945" rx="2.32736" transform="rotate(45 154.662 228.676)" fill="white" fill-opacity="0.2"/>
<rect x="165.006" y="239.02" width="4.65472" height="9.30945" rx="2.32736" transform="rotate(45 165.006 239.02)" fill="white" fill-opacity="0.2"/>
<rect x="159.834" y="233.848" width="4.65472" height="9.30945" rx="2.32736" transform="rotate(45 159.834 233.848)" fill="white" fill-opacity="0.2"/>
<rect x="170.179" y="244.193" width="4.65472" height="9.30945" rx="2.32736" transform="rotate(45 170.179 244.193)" fill="white" fill-opacity="0.2"/>
<circle cx="70.4966" cy="74.9213" r="5.31969" transform="rotate(45 70.4966 74.9213)" fill="white" fill-opacity="0.2"/>
<circle cx="81.7812" cy="86.206" r="5.31969" transform="rotate(45 81.7812 86.206)" fill="white" fill-opacity="0.2"/>
<rect x="58.7417" y="79.1531" width="4.65472" height="9.30945" rx="2.32736" transform="rotate(45 58.7417 79.1531)" fill="white" fill-opacity="0.2"/>
<rect x="69.0859" y="89.4974" width="4.65472" height="9.30945" rx="2.32736" transform="rotate(45 69.0859 89.4974)" fill="white" fill-opacity="0.2"/>
<rect x="63.9141" y="84.3253" width="4.65472" height="9.30945" rx="2.32736" transform="rotate(45 63.9141 84.3253)" fill="white" fill-opacity="0.2"/>
<rect x="74.2583" y="94.6696" width="4.65472" height="9.30945" rx="2.32736" transform="rotate(45 74.2583 94.6696)" fill="white" fill-opacity="0.2"/>
<circle cx="124.099" cy="21.3187" r="5.31969" transform="rotate(45 124.099 21.3187)" fill="white" fill-opacity="0.2"/>
<circle cx="135.384" cy="32.6034" r="5.31969" transform="rotate(45 135.384 32.6034)" fill="white" fill-opacity="0.2"/>
<rect x="112.344" y="25.5505" width="4.65472" height="9.30945" rx="2.32736" transform="rotate(45 112.344 25.5505)" fill="white" fill-opacity="0.2"/>
<rect x="122.688" y="35.8948" width="4.65472" height="9.30945" rx="2.32736" transform="rotate(45 122.688 35.8948)" fill="white" fill-opacity="0.2"/>
<rect x="117.516" y="30.7227" width="4.65472" height="9.30945" rx="2.32736" transform="rotate(45 117.516 30.7227)" fill="white" fill-opacity="0.2"/>
<rect x="127.861" y="41.067" width="4.65472" height="9.30945" rx="2.32736" transform="rotate(45 127.861 41.067)" fill="white" fill-opacity="0.2"/>
<circle cx="397.754" cy="402.179" r="5.31969" transform="rotate(45 397.754 402.179)" fill="white" fill-opacity="0.2"/>
<circle cx="409.039" cy="413.464" r="5.31969" transform="rotate(45 409.039 413.464)" fill="white" fill-opacity="0.2"/>
<rect x="386" y="406.411" width="4.65472" height="9.30945" rx="2.32736" transform="rotate(45 386 406.411)" fill="white" fill-opacity="0.2"/>
<rect x="396.344" y="416.755" width="4.65472" height="9.30945" rx="2.32736" transform="rotate(45 396.344 416.755)" fill="white" fill-opacity="0.2"/>
<rect x="391.171" y="411.583" width="4.65472" height="9.30945" rx="2.32736" transform="rotate(45 391.171 411.583)" fill="white" fill-opacity="0.2"/>
<rect x="401.516" y="421.928" width="4.65472" height="9.30945" rx="2.32736" transform="rotate(45 401.516 421.928)" fill="white" fill-opacity="0.2"/>
<circle cx="451.357" cy="348.577" r="5.31969" transform="rotate(45 451.357 348.577)" fill="white" fill-opacity="0.2"/>
<rect x="439.602" y="352.808" width="4.65472" height="9.30945" rx="2.32736" transform="rotate(45 439.602 352.808)" fill="white" fill-opacity="0.2"/>
<rect x="449.946" y="363.153" width="4.65472" height="9.30945" rx="2.32736" transform="rotate(45 449.946 363.153)" fill="white" fill-opacity="0.2"/>
<rect x="444.774" y="357.981" width="4.65472" height="9.30945" rx="2.32736" transform="rotate(45 444.774 357.981)" fill="white" fill-opacity="0.2"/>
<rect x="455.119" y="368.325" width="4.65472" height="9.30945" rx="2.32736" transform="rotate(45 455.119 368.325)" fill="white" fill-opacity="0.2"/>
<circle cx="110.934" cy="61.7557" r="5.31969" transform="rotate(45 110.934 61.7557)" fill="white" fill-opacity="0.2"/>
<circle cx="122.218" cy="73.0405" r="5.31969" transform="rotate(45 122.218 73.0405)" fill="white" fill-opacity="0.2"/>
<rect x="99.1787" y="65.9875" width="4.65472" height="9.30945" rx="2.32736" transform="rotate(45 99.1787 65.9875)" fill="white" fill-opacity="0.2"/>
<rect x="109.523" y="76.3318" width="4.65472" height="9.30945" rx="2.32736" transform="rotate(45 109.523 76.3318)" fill="white" fill-opacity="0.2"/>
<rect x="104.351" y="71.1597" width="4.65472" height="9.30945" rx="2.32736" transform="rotate(45 104.351 71.1597)" fill="white" fill-opacity="0.2"/>
<rect x="114.695" y="81.5041" width="4.65472" height="9.30945" rx="2.32736" transform="rotate(45 114.695 81.5041)" fill="white" fill-opacity="0.2"/>
<circle cx="438.191" cy="389.014" r="5.31969" transform="rotate(45 438.191 389.014)" fill="white" fill-opacity="0.2"/>
<circle cx="449.476" cy="400.298" r="5.31969" transform="rotate(45 449.476 400.298)" fill="white" fill-opacity="0.2"/>
<rect x="426.437" y="393.245" width="4.65472" height="9.30945" rx="2.32736" transform="rotate(45 426.437 393.245)" fill="white" fill-opacity="0.2"/>
<rect x="436.781" y="403.59" width="4.65472" height="9.30945" rx="2.32736" transform="rotate(45 436.781 403.59)" fill="white" fill-opacity="0.2"/>
<rect x="431.608" y="398.418" width="4.65472" height="9.30945" rx="2.32736" transform="rotate(45 431.608 398.418)" fill="white" fill-opacity="0.2"/>
<rect x="441.953" y="408.762" width="4.65472" height="9.30945" rx="2.32736" transform="rotate(45 441.953 408.762)" fill="white" fill-opacity="0.2"/>
<circle cx="57.3311" cy="115.358" r="5.31969" transform="rotate(45 57.3311 115.358)" fill="white" fill-opacity="0.2"/>
<circle cx="68.6157" cy="126.643" r="5.31969" transform="rotate(45 68.6157 126.643)" fill="white" fill-opacity="0.2"/>
<rect x="45.5762" y="119.59" width="4.65472" height="9.30945" rx="2.32736" transform="rotate(45 45.5762 119.59)" fill="white" fill-opacity="0.2"/>
<rect x="55.9204" y="129.934" width="4.65472" height="9.30945" rx="2.32736" transform="rotate(45 55.9204 129.934)" fill="white" fill-opacity="0.2"/>
<rect x="50.748" y="124.762" width="4.65472" height="9.30945" rx="2.32736" transform="rotate(45 50.748 124.762)" fill="white" fill-opacity="0.2"/>
<rect x="61.0928" y="135.107" width="4.65472" height="9.30945" rx="2.32736" transform="rotate(45 61.0928 135.107)" fill="white" fill-opacity="0.2"/>
<circle cx="384.589" cy="442.616" r="5.31969" transform="rotate(45 384.589 442.616)" fill="white" fill-opacity="0.2"/>
<circle cx="395.874" cy="453.901" r="5.31969" transform="rotate(45 395.874 453.901)" fill="white" fill-opacity="0.2"/>
<rect x="372.834" y="446.848" width="4.65472" height="9.30945" rx="2.32736" transform="rotate(45 372.834 446.848)" fill="white" fill-opacity="0.2"/>
<circle cx="234.125" cy="238.55" r="5.31969" transform="rotate(45 234.125 238.55)" fill="white" fill-opacity="0.2"/>
<circle cx="245.41" cy="249.835" r="5.31969" transform="rotate(45 245.41 249.835)" fill="white" fill-opacity="0.2"/>
<rect x="222.371" y="242.782" width="4.65472" height="9.30945" rx="2.32736" transform="rotate(45 222.371 242.782)" fill="white" fill-opacity="0.2"/>
<rect x="232.715" y="253.126" width="4.65472" height="9.30945" rx="2.32736" transform="rotate(45 232.715 253.126)" fill="white" fill-opacity="0.2"/>
<rect x="227.542" y="247.954" width="4.65472" height="9.30945" rx="2.32736" transform="rotate(45 227.542 247.954)" fill="white" fill-opacity="0.2"/>
<rect x="237.887" y="258.299" width="4.65472" height="9.30945" rx="2.32736" transform="rotate(45 237.887 258.299)" fill="white" fill-opacity="0.2"/>
<circle cx="287.728" cy="184.948" r="5.31969" transform="rotate(45 287.728 184.948)" fill="white" fill-opacity="0.2"/>
<circle cx="299.013" cy="196.232" r="5.31969" transform="rotate(45 299.013 196.232)" fill="white" fill-opacity="0.2"/>
<rect x="275.973" y="189.179" width="4.65472" height="9.30945" rx="2.32736" transform="rotate(45 275.973 189.179)" fill="white" fill-opacity="0.2"/>
<rect x="286.317" y="199.524" width="4.65472" height="9.30945" rx="2.32736" transform="rotate(45 286.317 199.524)" fill="white" fill-opacity="0.2"/>
<rect x="281.145" y="194.352" width="4.65472" height="9.30945" rx="2.32736" transform="rotate(45 281.145 194.352)" fill="white" fill-opacity="0.2"/>
<rect x="291.49" y="204.696" width="4.65472" height="9.30945" rx="2.32736" transform="rotate(45 291.49 204.696)" fill="white" fill-opacity="0.2"/>
<circle cx="274.562" cy="225.385" r="5.31969" transform="rotate(45 274.562 225.385)" fill="white" fill-opacity="0.2"/>
<circle cx="285.847" cy="236.669" r="5.31969" transform="rotate(45 285.847 236.669)" fill="white" fill-opacity="0.2"/>
<rect x="262.808" y="229.617" width="4.65472" height="9.30945" rx="2.32736" transform="rotate(45 262.808 229.617)" fill="white" fill-opacity="0.2"/>
<rect x="273.152" y="239.961" width="4.65472" height="9.30945" rx="2.32736" transform="rotate(45 273.152 239.961)" fill="white" fill-opacity="0.2"/>
<rect x="267.979" y="234.789" width="4.65472" height="9.30945" rx="2.32736" transform="rotate(45 267.979 234.789)" fill="white" fill-opacity="0.2"/>
<rect x="278.324" y="245.133" width="4.65472" height="9.30945" rx="2.32736" transform="rotate(45 278.324 245.133)" fill="white" fill-opacity="0.2"/>
<circle cx="220.96" cy="278.987" r="5.31969" transform="rotate(45 220.96 278.987)" fill="white" fill-opacity="0.2"/>
<circle cx="232.245" cy="290.272" r="5.31969" transform="rotate(45 232.245 290.272)" fill="white" fill-opacity="0.2"/>
<rect x="209.205" y="283.219" width="4.65472" height="9.30945" rx="2.32736" transform="rotate(45 209.205 283.219)" fill="white" fill-opacity="0.2"/>
<rect x="219.549" y="293.563" width="4.65472" height="9.30945" rx="2.32736" transform="rotate(45 219.549 293.563)" fill="white" fill-opacity="0.2"/>
<rect x="214.377" y="288.391" width="4.65472" height="9.30945" rx="2.32736" transform="rotate(45 214.377 288.391)" fill="white" fill-opacity="0.2"/>
<rect x="224.722" y="298.736" width="4.65472" height="9.30945" rx="2.32736" transform="rotate(45 224.722 298.736)" fill="white" fill-opacity="0.2"/>
</g>
</g>
<defs>
<clipPath id="clip0_278_69866">
<rect width="451" height="452" rx="12" fill="white"/>
</clipPath>
<clipPath id="clip1_278_69866">
<rect width="932.94" height="588.567" fill="white" transform="translate(305.18 -440) rotate(45)"/>
</clipPath>
</defs>
</svg>
