<svg width="321" height="222" viewBox="0 0 321 222" fill="none" xmlns="http://www.w3.org/2000/svg">
<g opacity="0.8">
<path opacity="0.8" d="M214.127 34.1594L222.816 38.8413C192.489 40.7473 176.586 55.1858 161.198 69.1913C152.809 76.8355 144.096 84.7386 133.112 90.5496C120.733 97.0769 107.262 100.132 90.7236 100.132L90.7236 103.426C107.262 103.426 120.733 106.477 133.112 113.029C144.096 118.84 152.791 126.743 161.198 134.387C176.586 148.376 192.489 162.815 222.816 164.737L214.127 169.419L215.961 170.949L229.743 163.519L217.758 154.778L215.601 156.126L223.553 161.921C194.874 160.233 180.139 146.851 164.572 132.688C149.986 119.431 134.982 105.797 107.724 101.771C134.982 97.7446 149.986 84.1114 164.572 70.8545C180.151 56.6912 194.88 43.3129 223.553 41.6295L215.613 47.4243L217.77 48.7719L229.743 40.0189L215.961 32.5893L214.127 34.1594Z" fill="#EAFBFA"/>
</g>
<path d="M43.5776 87.9673C43.3618 87.9673 43.1548 88.0521 43.0022 88.2032C42.8496 88.3542 42.7639 88.5591 42.7639 88.7727V94.4104C42.7639 94.624 42.8496 94.8289 43.0022 94.9799C43.1548 95.131 43.3618 95.2158 43.5776 95.2158C43.7935 95.2158 44.0005 95.131 44.1531 94.9799C44.3057 94.8289 44.3914 94.624 44.3914 94.4104V88.7727C44.3914 88.5591 44.3057 88.3542 44.1531 88.2032C44.0005 88.0521 43.7935 87.9673 43.5776 87.9673ZM36.5709 91.5916C36.4155 91.6061 36.2675 91.6646 36.1448 91.7601C36.022 91.8556 35.9296 91.984 35.8786 92.1301C35.8275 92.2761 35.82 92.4336 35.8569 92.5837C35.8938 92.7338 35.9736 92.8703 36.0867 92.9768L38.5281 95.393C38.6786 95.5463 38.8845 95.6341 39.1005 95.6371C39.3164 95.6401 39.5247 95.5581 39.6796 95.4091C39.8344 95.2601 39.9232 95.0564 39.9262 94.8426C39.9293 94.6289 39.8464 94.4227 39.6959 94.2695L39.6714 94.2453L37.2301 91.8291C37.1451 91.7434 37.0417 91.6776 36.9277 91.6364C36.8136 91.5953 36.6917 91.58 36.5709 91.5916ZM50.1531 91.9942H50.0513C49.8717 92.0192 49.7055 92.1028 49.5794 92.2318L47.138 94.648C46.9815 94.7954 46.8906 94.9983 46.8852 95.212C46.8799 95.4257 46.9606 95.6328 47.1095 95.7876C47.2584 95.9425 47.4634 96.0325 47.6794 96.0378C47.8953 96.0431 48.1045 95.9632 48.261 95.8158L48.2854 95.7917L50.7268 93.3755C50.8486 93.2644 50.9333 93.1191 50.9695 92.9591C51.0057 92.7991 50.9916 92.6319 50.9293 92.48C50.8669 92.3281 50.7591 92.1987 50.6204 92.109C50.4817 92.0193 50.3187 91.9737 50.1531 91.9781V91.9942ZM41.6449 96.5769C41.5157 96.5824 41.3897 96.6182 41.2773 96.6814C41.165 96.7447 41.0694 96.8335 40.9986 96.9406C40.9278 97.0476 40.8838 97.1698 40.8703 97.2971C40.8567 97.4243 40.874 97.5529 40.9206 97.6723L48.1267 116.156C48.1829 116.3 48.2797 116.425 48.4055 116.516C48.5314 116.607 48.681 116.66 48.8365 116.669C48.9921 116.679 49.1471 116.644 49.2831 116.568C49.4191 116.493 49.5304 116.381 49.6038 116.245L51.9068 112.016L56.6512 116.724C56.7268 116.799 56.8165 116.858 56.9153 116.899C57.0141 116.939 57.12 116.96 57.2269 116.96C57.3339 116.96 57.4398 116.939 57.5386 116.899C57.6374 116.858 57.7271 116.799 57.8027 116.724V116.724L61.2491 113.301C61.3995 113.15 61.4837 112.947 61.4837 112.735C61.4837 112.523 61.3995 112.32 61.2491 112.169L56.5088 107.474L60.769 105.183C60.9049 105.108 61.0166 104.997 61.0909 104.863C61.1652 104.728 61.199 104.575 61.1883 104.422C61.1777 104.268 61.1229 104.121 61.0306 103.998C60.9383 103.874 60.8122 103.78 60.6673 103.725L41.9745 96.6011C41.8692 96.5627 41.7569 96.5462 41.6449 96.5528V96.5769ZM32.9984 98.4374C32.7825 98.4374 32.5755 98.5222 32.4229 98.6733C32.2703 98.8243 32.1846 99.0292 32.1846 99.2428C32.1846 99.4564 32.2703 99.6612 32.4229 99.8123C32.5755 99.9633 32.7825 100.048 32.9984 100.048H38.6949C38.9107 100.048 39.1177 99.9633 39.2703 99.8123C39.4229 99.6612 39.5087 99.4564 39.5087 99.2428C39.5087 99.0292 39.4229 98.8243 39.2703 98.6733C39.1177 98.5222 38.9107 98.4374 38.6949 98.4374H32.9984ZM43.0934 98.7515L58.4415 104.603L54.7795 106.568C54.6666 106.627 54.5693 106.712 54.4956 106.815C54.4219 106.918 54.3738 107.037 54.3552 107.162C54.3366 107.287 54.348 107.415 54.3885 107.535C54.4289 107.655 54.4974 107.764 54.5882 107.852L59.5198 112.733L57.2168 115.012L52.273 110.116C52.184 110.028 52.0756 109.961 51.9563 109.922C51.8371 109.882 51.7102 109.87 51.5856 109.888C51.461 109.905 51.3421 109.95 51.2383 110.021C51.1345 110.091 51.0485 110.184 50.9872 110.293L48.9894 113.917L43.0894 98.7273L43.0934 98.7515ZM39.5087 102.44H39.407C39.2273 102.465 39.0611 102.549 38.935 102.678L36.4936 105.094C36.4109 105.165 36.3437 105.253 36.2959 105.35C36.2482 105.448 36.2209 105.554 36.2157 105.663C36.2105 105.771 36.2276 105.88 36.2658 105.981C36.304 106.083 36.3626 106.176 36.4381 106.255C36.5136 106.334 36.6044 106.397 36.705 106.44C36.8057 106.483 36.9142 106.506 37.0239 106.506C37.1336 106.507 37.2423 106.486 37.3434 106.444C37.4446 106.401 37.5361 106.34 37.6126 106.262L37.637 106.238L40.0783 103.821C40.2002 103.71 40.2848 103.565 40.321 103.405C40.3572 103.245 40.3432 103.078 40.2808 102.926C40.2184 102.774 40.1107 102.645 39.972 102.555C39.8333 102.465 39.6702 102.42 39.5046 102.424L39.5087 102.44Z" fill="#EAFBFA"/>
<path d="M46.8284 132.667C40.9536 132.667 35.2108 130.943 30.3261 127.712C25.4414 124.482 21.6342 119.891 19.386 114.52C17.1379 109.148 16.5496 103.237 17.6958 97.5349C18.8419 91.8324 21.6708 86.5944 25.8249 82.4832C29.979 78.372 35.2716 75.5722 41.0335 74.4379C46.7954 73.3036 52.7678 73.8858 58.1953 76.1108C63.6229 78.3357 68.262 82.1036 71.5258 86.9379C74.7897 91.7722 76.5317 97.4558 76.5317 103.27C76.5231 111.064 73.3909 118.536 67.8223 124.047C62.2537 129.558 54.7035 132.658 46.8284 132.667V132.667ZM46.8284 75.8865C41.356 75.8865 36.0065 77.4925 31.4564 80.5015C26.9062 83.5104 23.3598 87.7871 21.2657 92.7907C19.1715 97.7944 18.6235 103.3 19.6911 108.612C20.7588 113.924 23.394 118.803 27.2635 122.633C31.1331 126.462 36.0632 129.071 41.4304 130.127C46.7977 131.184 52.361 130.641 57.4168 128.569C62.4726 126.496 66.7939 122.986 69.8342 118.483C72.8745 113.98 74.4972 108.686 74.4972 103.27C74.4886 96.01 71.5708 89.0499 66.3837 83.9164C61.1966 78.7828 54.164 75.8951 46.8284 75.8865Z" fill="#EAFBFA"/>
<path d="M14.7607 146.865H11.0498V141.308H14.6874V142.347H12.36V143.482H14.5572V144.521H12.36V145.81H14.7607V146.865Z" fill="#EAFBFA"/>
<path d="M20.4127 146.865H18.8299L17.6743 144.795L16.5228 146.865H14.9521L16.8157 143.982L15.0742 141.308H16.6367L17.6865 143.136L18.7363 141.308H20.2987L18.5491 143.982L20.4127 146.865Z" fill="#EAFBFA"/>
<path d="M25.206 146.205C24.9397 146.465 24.6208 146.667 24.2703 146.798C23.9197 146.928 23.5453 146.984 23.1715 146.962C21.5195 146.962 20.2256 145.882 20.2256 144.094C20.2256 142.306 21.5439 141.227 23.1797 141.227C23.88 141.185 24.5701 141.41 25.1083 141.855L24.7014 142.935C24.309 142.569 23.7921 142.362 23.2529 142.355C23.0252 142.346 22.7983 142.385 22.5868 142.469C22.3753 142.553 22.184 142.68 22.0252 142.842C21.8664 143.003 21.7437 143.196 21.665 143.408C21.5863 143.62 21.5534 143.845 21.5683 144.07C21.5546 144.295 21.5884 144.519 21.6676 144.73C21.7468 144.941 21.8697 145.132 22.0284 145.293C22.1871 145.454 22.378 145.58 22.5889 145.664C22.7997 145.747 23.0259 145.786 23.2529 145.778C23.5322 145.786 23.8103 145.738 24.0705 145.637C24.3306 145.536 24.5674 145.384 24.7665 145.19L25.206 146.205Z" fill="#EAFBFA"/>
<path d="M30.6985 146.865H29.3802V144.537H27.126V146.865H25.8076V141.308H27.126V143.458H29.3802V141.308H30.6985V146.865Z" fill="#EAFBFA"/>
<path d="M36.7782 146.865H35.346L34.9391 145.746H32.9371L32.5303 146.865H31.1631L33.2952 141.3H34.6624L36.7782 146.865ZM34.6461 144.731L33.9462 142.717L33.2464 144.731H34.6461Z" fill="#EAFBFA"/>
<path d="M42.3359 146.865H40.985L38.5192 143.096C38.5192 143.096 38.5436 143.764 38.5436 144.352V146.865H37.2578V141.308H38.6657L41.0745 145.045C41.0745 145.045 41.0501 144.416 41.0501 143.837V141.308H42.3359V146.865Z" fill="#EAFBFA"/>
<path d="M48.4968 146.003C48.1703 146.325 47.7794 146.576 47.3492 146.74C46.9189 146.904 46.4588 146.976 45.9984 146.953C45.6115 146.973 45.2246 146.913 44.8627 146.777C44.5007 146.64 44.1716 146.43 43.8965 146.16C43.6214 145.89 43.4063 145.566 43.2652 145.209C43.1241 144.852 43.0599 144.469 43.0769 144.086C43.0769 142.234 44.4441 141.227 46.0147 141.227C46.4489 141.203 46.883 141.277 47.2836 141.445C47.6842 141.612 48.0407 141.869 48.3259 142.194L47.4551 142.943C47.2768 142.739 47.0553 142.576 46.8064 142.466C46.5575 142.356 46.2872 142.301 46.0147 142.306C45.1114 142.306 44.4115 142.959 44.4115 144.086C44.4115 145.214 45.1276 145.866 46.0391 145.866C46.9505 145.866 47.211 145.512 47.211 145.512V144.706H46.031V143.7H48.4968V146.003Z" fill="#EAFBFA"/>
<path d="M53.1269 146.865H49.416V141.308H53.0537V142.347H50.7262V143.482H52.9235V144.521H50.7262V145.81H53.1269V146.865Z" fill="#EAFBFA"/>
<path d="M57.0781 146.503C56.6387 146.823 56.1017 146.985 55.5563 146.962C54.8104 146.934 54.1008 146.636 53.5625 146.124L54.2298 145.174C54.6164 145.575 55.1368 145.824 55.6946 145.874C56.1015 145.874 56.4433 145.673 56.4433 145.302C56.4433 144.932 56.0364 144.779 55.7842 144.69C55.5319 144.602 55.1169 144.457 54.9297 144.376C54.6848 144.283 54.4587 144.146 54.2624 143.974C54.1148 143.837 53.9991 143.671 53.9232 143.486C53.8473 143.301 53.8131 143.102 53.8229 142.902C53.8242 142.671 53.8775 142.442 53.9788 142.233C54.0801 142.024 54.227 141.84 54.4089 141.694C54.8239 141.38 55.3349 141.215 55.8574 141.227C56.5148 141.239 57.1466 141.481 57.6396 141.912L57.0781 142.838C56.7525 142.512 56.3194 142.312 55.8574 142.274C55.4505 142.274 55.125 142.435 55.125 142.774C55.125 143.112 55.4424 143.241 55.6946 143.337C55.9469 143.434 56.3538 143.579 56.5329 143.651C56.8214 143.748 57.0871 143.901 57.3141 144.102C57.4575 144.242 57.5704 144.409 57.646 144.593C57.7216 144.777 57.7582 144.975 57.7535 145.174C57.7514 145.432 57.6893 145.685 57.5722 145.916C57.4551 146.146 57.286 146.347 57.0781 146.503V146.503Z" fill="#EAFBFA"/>
<path d="M63.1816 146.502C62.7422 146.823 62.2052 146.985 61.6598 146.962C60.9139 146.934 60.2043 146.636 59.666 146.124L60.3171 145.174C60.7036 145.575 61.224 145.824 61.7819 145.874C62.1888 145.874 62.5306 145.673 62.5306 145.302C62.5306 144.932 62.1237 144.779 61.8714 144.69C61.6191 144.602 61.2041 144.457 61.0169 144.376C60.772 144.282 60.546 144.146 60.3496 143.974C60.2021 143.837 60.0863 143.671 60.0104 143.486C59.9345 143.301 59.9003 143.102 59.9102 142.902C59.9115 142.671 59.9647 142.442 60.066 142.233C60.1673 142.024 60.3142 141.84 60.4961 141.694C60.9155 141.376 61.4329 141.211 61.9609 141.227C62.6183 141.238 63.2501 141.481 63.7431 141.912L63.1816 142.838C62.8477 142.504 62.4018 142.304 61.9284 142.274C61.5215 142.274 61.1959 142.435 61.1959 142.773C61.1959 143.112 61.5133 143.241 61.7656 143.337C62.0179 143.434 62.4248 143.579 62.6038 143.651C62.8923 143.748 63.1581 143.901 63.385 144.102C63.5284 144.242 63.6414 144.409 63.717 144.593C63.7926 144.777 63.8292 144.975 63.8245 145.174C63.8262 145.429 63.7691 145.681 63.6578 145.911C63.5464 146.142 63.3836 146.344 63.1816 146.502V146.502Z" fill="#EAFBFA"/>
<path d="M68.2392 146.865H64.5283V141.308H68.166V142.347H65.8385V143.482H68.0357V144.521H65.8385V145.81H68.2392V146.865Z" fill="#EAFBFA"/>
<path d="M73.4957 146.865H71.9658L70.7858 144.739H70.3789V146.865H69.0605V141.308H71.095C71.6196 141.281 72.139 141.422 72.5761 141.711C72.7741 141.859 72.9336 142.051 73.0411 142.273C73.1487 142.494 73.2013 142.738 73.1946 142.983C73.2237 143.335 73.1307 143.687 72.931 143.979C72.7313 144.272 72.4368 144.489 72.096 144.594L73.4957 146.865ZM71.5589 142.46C71.3557 142.34 71.1185 142.289 70.8834 142.315H70.3626V143.74H70.8834C71.1194 143.764 71.3568 143.71 71.5589 143.587C71.6526 143.527 71.7284 143.443 71.7785 143.344C71.8285 143.244 71.851 143.134 71.8437 143.023C71.8502 142.913 71.8273 142.803 71.7773 142.704C71.7274 142.605 71.652 142.521 71.5589 142.46V142.46Z" fill="#EAFBFA"/>
<path d="M78.6433 141.308L76.5641 146.865H75.3108L73.2275 141.308H74.6273L75.9456 145.133L77.2558 141.308H78.6433Z" fill="#EAFBFA"/>
<path d="M82.8378 146.865H79.127V141.308H82.7646V142.347H80.4372V143.482H82.6344V144.521H80.4372V145.81H82.8378V146.865Z" fill="#EAFBFA"/>
<path d="M17.3773 156.417C17.416 156.864 17.2919 157.31 17.0273 157.674C16.897 157.809 16.7387 157.915 16.5631 157.985C16.3876 158.054 16.1989 158.085 16.0101 158.076C15.7259 158.082 15.4427 158.041 15.1719 157.955L15.2207 156.997C15.3617 157.047 15.5105 157.071 15.6602 157.069C15.9775 157.069 16.0671 156.828 16.0671 156.425V150.973H17.3773V156.417Z" fill="#EAFBFA"/>
<path d="M21.0957 156.626C19.4274 156.626 18.1172 155.555 18.1172 153.759C18.1172 151.963 19.4274 150.892 21.0957 150.892C22.7639 150.892 24.0741 151.971 24.0741 153.767C24.0741 155.563 22.7639 156.626 21.0957 156.626ZM21.0957 151.995C20.8713 151.995 20.6491 152.04 20.4433 152.129C20.2374 152.217 20.0522 152.347 19.8994 152.509C19.7465 152.672 19.6293 152.864 19.5551 153.073C19.4809 153.283 19.4513 153.506 19.4681 153.727C19.4522 153.95 19.4829 154.174 19.5583 154.385C19.6338 154.596 19.7523 154.79 19.9065 154.954C20.0607 155.117 20.2473 155.248 20.4546 155.337C20.662 155.426 20.8858 155.473 21.1119 155.473C21.3381 155.473 21.5618 155.426 21.7692 155.337C21.9766 155.248 22.1632 155.117 22.3174 154.954C22.4716 154.79 22.5901 154.596 22.6655 154.385C22.741 154.174 22.7717 153.95 22.7558 153.727C22.7729 153.503 22.7424 153.278 22.6662 153.066C22.59 152.854 22.4699 152.66 22.3135 152.497C22.1571 152.334 21.968 152.205 21.7582 152.119C21.5485 152.032 21.3228 151.99 21.0957 151.995Z" fill="#EAFBFA"/>
<path d="M28.5507 156.167C28.1203 156.433 27.6168 156.56 27.1103 156.53H24.8154V150.973H26.7278C27.201 150.944 27.6745 151.024 28.1113 151.206C28.3317 151.312 28.5167 151.478 28.6437 151.685C28.7708 151.892 28.8346 152.132 28.8274 152.374C28.8296 152.633 28.7532 152.886 28.6081 153.102C28.463 153.317 28.2559 153.484 28.0136 153.582V153.582C28.3368 153.63 28.6316 153.792 28.8445 154.037C29.0573 154.283 29.174 154.596 29.1733 154.919C29.1876 155.163 29.1377 155.406 29.0286 155.625C28.9195 155.843 28.7548 156.03 28.5507 156.167ZM27.2568 152.052C27.0779 151.955 26.8733 151.916 26.6709 151.939H26.1256V153.22H26.6383C26.8522 153.245 27.0687 153.203 27.2568 153.099C27.3467 153.043 27.4199 152.964 27.4685 152.87C27.5172 152.777 27.5396 152.672 27.5335 152.567C27.5407 152.464 27.5186 152.361 27.4697 152.27C27.4207 152.179 27.347 152.103 27.2568 152.052V152.052ZM27.5498 154.275C27.3394 154.15 27.0938 154.096 26.8499 154.122H26.1256V155.539H26.8499C27.0938 155.565 27.3394 155.511 27.5498 155.386C27.638 155.322 27.7099 155.239 27.7594 155.142C27.8089 155.045 27.8347 154.939 27.8347 154.83C27.8347 154.722 27.8089 154.615 27.7594 154.519C27.7099 154.422 27.638 154.339 27.5498 154.275V154.275Z" fill="#EAFBFA"/>
<path d="M33.0185 156.168C32.5791 156.488 32.0421 156.65 31.4967 156.627C30.7508 156.599 30.0413 156.301 29.5029 155.789L30.154 154.839C30.5405 155.24 31.0609 155.489 31.6188 155.539C32.0257 155.539 32.3675 155.338 32.3675 154.968C32.3675 154.597 31.9606 154.444 31.7083 154.355C31.456 154.267 31.041 154.122 30.8538 154.041C30.6089 153.948 30.3829 153.811 30.1865 153.639C30.039 153.502 29.9232 153.336 29.8473 153.151C29.7714 152.966 29.7372 152.767 29.7471 152.568C29.7484 152.336 29.8016 152.107 29.9029 151.898C30.0042 151.689 30.1511 151.505 30.333 151.359C30.76 151.047 31.2835 150.89 31.8141 150.916C32.4715 150.928 33.1033 151.171 33.5963 151.601L33.0348 152.503C32.7009 152.17 32.2549 151.969 31.7815 151.939C31.3746 151.939 31.0491 152.1 31.0491 152.439C31.0491 152.777 31.3665 152.906 31.6188 153.002C31.871 153.099 32.2779 153.244 32.457 153.317C32.7455 153.413 33.0113 153.566 33.2382 153.768C33.3816 153.907 33.4946 154.074 33.5702 154.258C33.6457 154.442 33.6823 154.64 33.6777 154.839C33.6774 155.095 33.6179 155.348 33.5036 155.579C33.3894 155.809 33.2234 156.01 33.0185 156.168V156.168Z" fill="#EAFBFA"/>
<path d="M39.7159 152.004H38.2674V156.53H36.949V152.004H35.5127V150.973H39.7281L39.7159 152.004Z" fill="#EAFBFA"/>
<path d="M42.5878 156.626C40.9196 156.626 39.6094 155.555 39.6094 153.759C39.6094 151.963 40.9196 150.892 42.5878 150.892C44.2561 150.892 45.5663 151.971 45.5663 153.767C45.5663 155.563 44.2561 156.626 42.5878 156.626ZM42.5878 151.995C42.3634 151.995 42.1413 152.04 41.9355 152.129C41.7296 152.217 41.5444 152.347 41.3916 152.509C41.2387 152.672 41.1215 152.864 41.0473 153.073C40.9731 153.283 40.9434 153.506 40.9603 153.727C40.9444 153.95 40.9751 154.174 41.0505 154.385C41.1259 154.596 41.2444 154.79 41.3986 154.954C41.5528 155.117 41.7394 155.248 41.9468 155.337C42.1542 155.426 42.378 155.473 42.6041 155.473C42.8303 155.473 43.054 155.426 43.2614 155.337C43.4688 155.248 43.6554 155.117 43.8096 154.954C43.9638 154.79 44.0823 154.596 44.1577 154.385C44.2331 154.174 44.2639 153.95 44.248 153.727C44.2651 153.503 44.2345 153.278 44.1584 153.066C44.0822 152.854 43.9621 152.66 43.8057 152.497C43.6493 152.334 43.4602 152.205 43.2504 152.119C43.0407 152.032 42.815 151.99 42.5878 151.995Z" fill="#EAFBFA"/>
<path d="M52.9638 156.53H51.5315L51.1246 155.41H49.1227L48.7158 156.53H47.3486L49.4645 150.964H50.8316L52.9638 156.53ZM50.8316 154.395L50.1318 152.382L49.4319 154.395H50.8316Z" fill="#EAFBFA"/>
<path d="M58.4162 155.668C58.0898 155.99 57.6988 156.241 57.2686 156.404C56.8383 156.568 56.3782 156.641 55.9178 156.618C55.5319 156.636 55.1464 156.575 54.7859 156.437C54.4253 156.3 54.0977 156.089 53.824 155.82C53.5502 155.55 53.3363 155.227 53.1959 154.87C53.0555 154.514 52.9917 154.133 53.0085 153.751C53.0085 151.898 54.3757 150.892 55.9463 150.892C56.3805 150.867 56.8146 150.942 57.2152 151.109C57.6158 151.277 57.9724 151.533 58.2575 151.858L57.3867 152.607C57.2084 152.403 56.987 152.24 56.738 152.13C56.4891 152.02 56.2188 151.966 55.9463 151.971C55.043 151.971 54.3431 152.623 54.3431 153.751C54.3431 154.878 55.0593 155.531 55.9707 155.531C56.8822 155.531 57.1426 155.176 57.1426 155.176V154.371H55.9626V153.364H58.4284L58.4162 155.668Z" fill="#EAFBFA"/>
<path d="M63.0468 156.53H59.3359V150.973H62.9736V152.012H60.6461V153.147H62.8434V154.186H60.6461V155.475H63.0468V156.53Z" fill="#EAFBFA"/>
<path d="M68.9384 156.53H67.5875L65.1217 152.761C65.1217 152.761 65.1461 153.429 65.1461 154.017V156.53H63.8604V150.973H65.2682L67.677 154.71C67.677 154.71 67.6526 154.081 67.6526 153.502V150.973H68.9384V156.53Z" fill="#EAFBFA"/>
<path d="M73.6998 152.004H72.2513V156.53H70.9329V152.004H69.4844V150.973H73.6998V152.004Z" fill="#EAFBFA"/>
<path d="M77.2558 156.168C76.8164 156.488 76.2794 156.65 75.734 156.627C74.9881 156.599 74.2786 156.301 73.7402 155.789L74.3913 154.839C74.7778 155.24 75.2982 155.489 75.8561 155.539C76.263 155.539 76.6048 155.338 76.6048 154.968C76.6048 154.597 76.1979 154.444 75.9456 154.355C75.6933 154.267 75.2783 154.122 75.0911 154.041C74.8462 153.948 74.6202 153.811 74.4238 153.639C74.2763 153.502 74.1605 153.336 74.0846 153.151C74.0087 152.966 73.9745 152.767 73.9844 152.568C73.9857 152.336 74.0389 152.107 74.1402 151.898C74.2415 151.689 74.3884 151.505 74.5703 151.359C74.9973 151.047 75.5208 150.89 76.0514 150.916C76.7088 150.928 77.3406 151.171 77.8336 151.601L77.2721 152.503C76.9382 152.17 76.4922 151.969 76.0188 151.939C75.6119 151.939 75.2864 152.1 75.2864 152.439C75.2864 152.777 75.6038 152.906 75.8561 153.002C76.1083 153.099 76.5152 153.244 76.6943 153.317C76.9828 153.413 77.2486 153.566 77.4755 153.768C77.6189 153.907 77.7319 154.074 77.8075 154.258C77.883 154.442 77.9196 154.64 77.915 154.839C77.9147 155.095 77.8552 155.348 77.7409 155.579C77.6267 155.809 77.4607 156.01 77.2558 156.168V156.168Z" fill="#EAFBFA"/>
<path d="M269.261 188.915C263.386 188.915 257.643 187.191 252.759 183.961C247.874 180.731 244.067 176.14 241.819 170.768C239.57 165.397 238.982 159.486 240.128 153.783C241.274 148.081 244.103 142.843 248.258 138.732C252.412 134.62 257.704 131.821 263.466 130.686C269.228 129.552 275.2 130.134 280.628 132.359C286.056 134.584 290.695 138.352 293.958 143.186C297.222 148.021 298.964 153.704 298.964 159.518C298.956 167.312 295.824 174.785 290.255 180.296C284.686 185.807 277.136 188.907 269.261 188.915V188.915ZM269.261 132.135C263.789 132.135 258.439 133.741 253.889 136.75C249.339 139.759 245.792 144.036 243.698 149.039C241.604 154.043 241.056 159.549 242.124 164.861C243.191 170.172 245.827 175.052 249.696 178.881C253.566 182.711 258.496 185.319 263.863 186.376C269.23 187.432 274.794 186.89 279.849 184.817C284.905 182.745 289.227 179.235 292.267 174.732C295.307 170.229 296.93 164.934 296.93 159.518C296.921 152.259 294.003 145.298 288.816 140.165C283.629 135.031 276.597 132.144 269.261 132.135V132.135Z" fill="#EAFBFA"/>
<path d="M257.596 159.712C257.598 159.786 257.614 159.858 257.645 159.925C257.654 159.948 257.664 159.969 257.677 159.99C257.723 160.07 257.789 160.138 257.868 160.187V160.187L269.009 166.63H269.038C269.119 166.675 269.209 166.7 269.302 166.703C269.396 166.701 269.489 166.676 269.571 166.63H269.603L280.545 160.187C280.626 160.137 280.693 160.068 280.74 159.986C280.752 159.965 280.763 159.944 280.772 159.921C280.802 159.854 280.819 159.782 280.821 159.708C280.821 159.708 280.821 159.68 280.821 159.664C280.821 159.648 280.821 159.664 280.821 159.664C280.817 159.577 280.791 159.493 280.748 159.418L269.807 141.297C269.793 141.277 269.778 141.258 269.762 141.24L269.697 141.176L269.644 141.136H269.603L269.526 141.103L269.453 141.083L269.343 140.995H269.302H269.265H269.196L269.119 141.015L269.042 141.047H269.005L268.948 141.095L268.883 141.16C268.868 141.176 268.855 141.194 268.842 141.212V141.212L257.706 159.333C257.66 159.409 257.634 159.495 257.628 159.583C257.628 159.583 257.628 159.583 257.628 159.583C257.628 159.583 257.596 159.696 257.596 159.712ZM269.888 143.66L278.787 158.403L269.888 154.376V143.66ZM268.724 154.36L259.642 158.407L268.724 143.628V154.36ZM268.724 155.625V165.156L259.435 159.764L268.724 155.625ZM269.888 165.156V155.629L278.998 159.764L269.888 165.156Z" fill="#EAFBFA"/>
<path d="M280.78 161.681C280.69 161.585 280.568 161.522 280.437 161.503C280.305 161.484 280.171 161.51 280.056 161.576L269.306 167.858L258.56 161.576C258.445 161.508 258.31 161.48 258.177 161.499C258.044 161.518 257.922 161.581 257.831 161.679C257.74 161.776 257.686 161.902 257.678 162.034C257.67 162.167 257.708 162.298 257.787 162.406L268.83 177.801C268.83 177.801 268.854 177.801 268.862 177.829C268.885 177.855 268.909 177.88 268.936 177.902C268.936 177.902 268.936 177.93 268.968 177.938C269.001 177.946 268.993 177.938 269.005 177.938L269.062 177.974C269.138 178.011 269.221 178.03 269.306 178.031V178.031C269.391 178.03 269.474 178.011 269.55 177.974L269.607 177.938C269.607 177.938 269.631 177.938 269.644 177.938C269.656 177.938 269.664 177.914 269.676 177.902C269.703 177.88 269.727 177.856 269.749 177.829C269.749 177.829 269.774 177.829 269.782 177.801L280.829 162.406C280.906 162.298 280.944 162.167 280.935 162.035C280.926 161.903 280.871 161.778 280.78 161.681V161.681ZM268.724 168.857V175.659L260.322 163.948L268.724 168.857ZM269.888 175.659V168.857L278.294 163.948L269.888 175.659Z" fill="#EAFBFA"/>
<path d="M236.051 201.842C235.62 202.108 235.117 202.234 234.61 202.204H232.315V196.647H234.228C234.701 196.618 235.174 196.698 235.611 196.88C235.832 196.986 236.017 197.152 236.144 197.36C236.271 197.567 236.335 197.806 236.327 198.048C236.33 198.307 236.253 198.561 236.108 198.776C235.963 198.991 235.756 199.159 235.514 199.256V199.256C235.836 199.305 236.13 199.467 236.342 199.713C236.554 199.958 236.67 200.27 236.669 200.593C236.684 200.837 236.635 201.079 236.526 201.298C236.418 201.517 236.254 201.704 236.051 201.842V201.842ZM234.757 197.726C234.578 197.63 234.373 197.59 234.171 197.613H233.626V198.894H234.138C234.352 198.919 234.569 198.877 234.757 198.773C234.847 198.717 234.92 198.638 234.968 198.545C235.017 198.451 235.04 198.347 235.033 198.242C235.041 198.139 235.019 198.036 234.97 197.945C234.921 197.854 234.847 197.778 234.757 197.726V197.726ZM235.05 199.949C234.84 199.821 234.595 199.765 234.35 199.788H233.626V201.205H234.35C234.594 201.231 234.839 201.177 235.05 201.052C235.138 200.988 235.21 200.905 235.259 200.808C235.309 200.712 235.335 200.605 235.335 200.497C235.335 200.388 235.309 200.282 235.259 200.185C235.21 200.088 235.138 200.005 235.05 199.941V199.949Z" fill="#EAFBFA"/>
<path d="M240.079 202.301C238.411 202.301 237.101 201.23 237.101 199.434C237.101 197.638 238.419 196.566 240.079 196.566C241.739 196.566 243.058 197.646 243.058 199.442C243.058 201.238 241.747 202.301 240.079 202.301ZM240.079 197.67C239.727 197.644 239.375 197.724 239.069 197.899C238.763 198.074 238.517 198.336 238.364 198.651C238.211 198.967 238.158 199.32 238.211 199.666C238.264 200.012 238.421 200.333 238.662 200.59C238.902 200.846 239.216 201.024 239.56 201.101C239.905 201.179 240.265 201.151 240.594 201.023C240.922 200.895 241.204 200.671 241.403 200.382C241.601 200.093 241.707 199.751 241.707 199.401C241.723 199.18 241.694 198.957 241.62 198.748C241.545 198.538 241.428 198.346 241.275 198.183C241.122 198.021 240.937 197.891 240.731 197.803C240.526 197.714 240.303 197.669 240.079 197.67Z" fill="#EAFBFA"/>
<path d="M248.461 199.885C248.492 200.197 248.461 200.512 248.368 200.811C248.276 201.111 248.125 201.39 247.924 201.632C247.685 201.862 247.4 202.04 247.088 202.153C246.775 202.267 246.442 202.315 246.109 202.293C245.776 202.315 245.441 202.267 245.127 202.153C244.813 202.04 244.527 201.862 244.286 201.632C243.886 201.141 243.696 200.513 243.757 199.885V196.663H245.084V199.885C245.046 200.209 245.124 200.537 245.304 200.811C245.407 200.923 245.533 201.012 245.673 201.073C245.813 201.134 245.964 201.166 246.117 201.166C246.271 201.166 246.422 201.134 246.562 201.073C246.702 201.012 246.828 200.923 246.931 200.811C247.111 200.537 247.189 200.209 247.151 199.885V196.663H248.477L248.461 199.885Z" fill="#EAFBFA"/>
<path d="M254.523 202.204H253.172L250.707 198.435C250.707 198.435 250.731 199.103 250.731 199.691V202.204H249.445V196.647H250.853L253.262 200.384C253.262 200.384 253.238 199.756 253.238 199.176V196.647H254.523V202.204Z" fill="#EAFBFA"/>
<path d="M259.285 197.678H257.836V202.204H256.518V197.678H255.069V196.647H259.285V197.678Z" fill="#EAFBFA"/>
<path d="M261.148 202.204H259.83V196.647H261.148V202.204Z" fill="#EAFBFA"/>
<path d="M265.884 202.204H262.173V196.647H265.811V197.686H263.483V198.822H265.68V199.86H263.483V201.149H265.884V202.204Z" fill="#EAFBFA"/>
<path d="M269.831 201.842C269.392 202.163 268.855 202.325 268.309 202.301C267.563 202.273 266.854 201.975 266.315 201.463L266.966 200.513C267.353 200.914 267.873 201.163 268.431 201.214C268.838 201.214 269.18 201.012 269.18 200.642C269.18 200.271 268.773 200.118 268.521 200.03C268.269 199.941 267.854 199.796 267.666 199.716C267.421 199.622 267.195 199.486 266.999 199.313C266.851 199.177 266.736 199.01 266.66 198.825C266.584 198.64 266.55 198.441 266.56 198.242C266.561 198.01 266.614 197.782 266.715 197.573C266.817 197.364 266.964 197.18 267.146 197.034C267.573 196.721 268.096 196.564 268.627 196.591C269.284 196.602 269.916 196.845 270.409 197.275L269.847 198.177C269.513 197.844 269.067 197.643 268.594 197.614C268.187 197.614 267.862 197.775 267.862 198.113C267.862 198.451 268.179 198.58 268.431 198.677C268.684 198.773 269.09 198.918 269.27 198.991C269.558 199.087 269.824 199.241 270.051 199.442C270.194 199.581 270.307 199.748 270.383 199.932C270.458 200.117 270.495 200.314 270.49 200.513C270.49 200.77 270.43 201.023 270.316 201.253C270.202 201.483 270.036 201.685 269.831 201.842V201.842Z" fill="#EAFBFA"/>
<path d="M277.847 202.204H276.415L276.008 201.084H274.006L273.599 202.204H272.248L274.364 196.639H275.731L277.847 202.204ZM275.715 200.07L275.015 198.056L274.315 200.07H275.715Z" fill="#EAFBFA"/>
<path d="M282.77 202.204H281.24L280.06 200.078H279.653V202.204H278.335V196.647H280.369C280.894 196.62 281.414 196.761 281.851 197.05C282.08 197.237 282.256 197.48 282.36 197.756C282.465 198.032 282.494 198.33 282.446 198.62C282.397 198.91 282.272 199.183 282.083 199.411C281.895 199.638 281.649 199.813 281.37 199.917L282.77 202.204ZM280.833 197.799C280.63 197.679 280.393 197.628 280.158 197.654H279.637V199.079H280.158C280.394 199.103 280.631 199.049 280.833 198.926C280.927 198.866 281.003 198.781 281.053 198.682C281.103 198.583 281.126 198.473 281.118 198.362C281.125 198.252 281.102 198.142 281.052 198.043C281.002 197.944 280.926 197.86 280.833 197.799V197.799Z" fill="#EAFBFA"/>
<path d="M286.921 202.204H283.21V196.647H286.839V197.686H284.52V198.822H286.717V199.86H284.52V201.149H286.921V202.204Z" fill="#EAFBFA"/>
<path d="M292.813 199.731C292.386 200.029 291.869 200.172 291.348 200.134H290.656V202.204H289.338V196.647H291.348C291.869 196.609 292.387 196.751 292.813 197.049C293.009 197.21 293.164 197.414 293.265 197.645C293.367 197.876 293.413 198.127 293.399 198.378C293.414 198.633 293.369 198.888 293.267 199.123C293.165 199.358 293.01 199.566 292.813 199.731V199.731ZM291.796 197.806C291.606 197.689 291.383 197.635 291.161 197.653H290.648V199.143H291.161C291.384 199.162 291.606 199.108 291.796 198.99C291.885 198.919 291.956 198.828 292.003 198.725C292.049 198.621 292.071 198.508 292.064 198.394C292.071 198.282 292.05 198.17 292.003 198.068C291.956 197.965 291.885 197.876 291.796 197.806V197.806Z" fill="#EAFBFA"/>
<path d="M298.688 202.204H297.256L296.849 201.084H294.855L294.448 202.204H293.081L295.197 196.639H296.564L298.688 202.204ZM296.556 200.07L295.856 198.056L295.156 200.07H296.556Z" fill="#EAFBFA"/>
<path d="M300.486 202.204H299.168V196.647H300.486V202.204Z" fill="#EAFBFA"/>
<path d="M305.581 201.544C304.96 202.009 304.194 202.242 303.416 202.204H301.512V196.647H303.416C304.195 196.606 304.963 196.843 305.581 197.316C305.886 197.574 306.128 197.899 306.286 198.265C306.444 198.631 306.515 199.028 306.492 199.426C306.514 199.824 306.443 200.222 306.285 200.59C306.127 200.957 305.886 201.283 305.581 201.544V201.544ZM304.661 198.121C304.336 197.845 303.917 197.701 303.489 197.718H302.822V201.093H303.489C303.715 201.11 303.941 201.077 304.153 200.999C304.365 200.92 304.556 200.797 304.715 200.638C304.874 200.478 304.996 200.286 305.072 200.076C305.148 199.865 305.178 199.641 305.158 199.418C305.17 199.179 305.133 198.941 305.047 198.718C304.962 198.494 304.83 198.291 304.661 198.121V198.121Z" fill="#EAFBFA"/>
<path d="M252.192 207.342H250.743V211.869H249.405V207.342H247.977V206.312H252.192V207.342Z" fill="#EAFBFA"/>
<path d="M255.065 211.965C253.397 211.965 252.087 210.894 252.087 209.098C252.087 207.302 253.397 206.231 255.065 206.231C256.734 206.231 258.044 207.31 258.044 209.106C258.044 210.902 256.73 211.965 255.065 211.965ZM255.065 207.334C254.713 207.308 254.361 207.388 254.055 207.563C253.749 207.738 253.504 208.001 253.351 208.316C253.198 208.631 253.144 208.985 253.197 209.33C253.25 209.676 253.407 209.998 253.648 210.254C253.889 210.51 254.202 210.688 254.546 210.766C254.891 210.843 255.251 210.816 255.58 210.688C255.909 210.559 256.191 210.336 256.389 210.047C256.588 209.757 256.694 209.416 256.693 209.066C256.71 208.844 256.68 208.622 256.606 208.412C256.532 208.203 256.415 208.011 256.262 207.848C256.109 207.685 255.924 207.556 255.718 207.467C255.512 207.379 255.29 207.334 255.065 207.334Z" fill="#EAFBFA"/>
<path d="M265.441 211.869H264.008L263.601 210.749H261.612L261.205 211.869H259.842L261.958 206.304H263.325L265.441 211.869ZM263.309 209.735L262.609 207.721L261.909 209.735H263.309Z" fill="#EAFBFA"/>
<path d="M270.893 211.007C270.567 211.329 270.176 211.58 269.746 211.744C269.315 211.907 268.855 211.98 268.395 211.957C268.008 211.977 267.621 211.917 267.259 211.78C266.897 211.644 266.568 211.434 266.293 211.164C266.018 210.894 265.803 210.57 265.662 210.213C265.521 209.856 265.456 209.473 265.473 209.09C265.473 207.238 266.841 206.231 268.411 206.231C268.845 206.207 269.279 206.281 269.68 206.449C270.081 206.616 270.437 206.872 270.722 207.197L269.852 207.946C269.673 207.742 269.452 207.58 269.203 207.47C268.954 207.36 268.684 207.305 268.411 207.31C267.508 207.31 266.808 207.963 266.808 209.09C266.808 210.218 267.524 210.87 268.436 210.87C269.347 210.87 269.607 210.516 269.607 210.516V209.71H268.427V208.72H270.893V211.007Z" fill="#EAFBFA"/>
<path d="M275.523 211.869H271.812V206.312H275.446V207.35H273.119V208.486H275.316V209.525H273.119V210.814H275.519L275.523 211.869Z" fill="#EAFBFA"/>
<path d="M281.415 211.869H280.064L277.598 208.099C277.598 208.099 277.623 208.768 277.623 209.356V211.869H276.337V206.312H277.745L280.154 210.048C280.154 210.048 280.129 209.42 280.129 208.84V206.312H281.415V211.869Z" fill="#EAFBFA"/>
<path d="M286.177 207.342H284.728V211.869H283.41V207.342H281.957V206.312H286.172L286.177 207.342Z" fill="#EAFBFA"/>
<path d="M289.732 211.507C289.293 211.827 288.756 211.989 288.211 211.966C287.465 211.938 286.755 211.64 286.217 211.128L286.868 210.178C287.254 210.579 287.775 210.828 288.333 210.878C288.74 210.878 289.081 210.677 289.081 210.307C289.081 209.936 288.674 209.783 288.422 209.694C288.17 209.606 287.755 209.461 287.568 209.38C287.323 209.287 287.097 209.15 286.9 208.978C286.753 208.841 286.637 208.675 286.561 208.49C286.485 208.305 286.451 208.106 286.461 207.906C286.462 207.675 286.515 207.446 286.617 207.237C286.718 207.028 286.865 206.844 287.047 206.698C287.474 206.385 287.997 206.229 288.528 206.255C289.185 206.267 289.817 206.509 290.31 206.94L289.749 207.842C289.415 207.509 288.969 207.308 288.495 207.278C288.089 207.278 287.763 207.439 287.763 207.778C287.763 208.116 288.08 208.245 288.333 208.341C288.585 208.438 288.992 208.583 289.171 208.655C289.459 208.752 289.725 208.905 289.952 209.106C290.096 209.246 290.208 209.413 290.284 209.597C290.36 209.781 290.396 209.979 290.392 210.178C290.391 210.434 290.332 210.687 290.218 210.918C290.103 211.148 289.937 211.349 289.732 211.507V211.507Z" fill="#EAFBFA"/>
<path d="M269.565 67.6452C263.69 67.6452 257.947 65.9211 253.062 62.691C248.178 59.4608 244.371 54.8697 242.122 49.4981C239.874 44.1265 239.286 38.2158 240.432 32.5134C241.578 26.8109 244.407 21.5729 248.561 17.4617C252.715 13.3505 258.008 10.5507 263.77 9.41643C269.532 8.28214 275.504 8.8643 280.932 11.0893C286.359 13.3143 290.998 17.0821 294.262 21.9164C297.526 26.7507 299.268 32.4343 299.268 38.2484C299.259 46.0423 296.127 53.5146 290.559 59.0257C284.99 64.5368 277.44 67.6367 269.565 67.6452V67.6452ZM269.565 10.8651C264.092 10.8651 258.743 12.4711 254.193 15.48C249.643 18.4889 246.096 22.7656 244.002 27.7693C241.908 32.7729 241.36 38.2788 242.427 43.5906C243.495 48.9025 246.13 53.7817 250 57.6114C253.869 61.441 258.8 64.049 264.167 65.1056C269.534 66.1622 275.097 65.6199 280.153 63.5473C285.209 61.4747 289.53 57.9649 292.571 53.4618C295.611 48.9586 297.234 43.6643 297.234 38.2484C297.225 30.9885 294.307 24.0284 289.12 18.8949C283.933 13.7613 276.9 10.8736 269.565 10.8651V10.8651Z" fill="#EAFBFA"/>
<path d="M269.564 25.672L269.902 25.0922L266.138 22.9458L258.253 27.452V31.6481L254.106 34.0159V43.0283L258.253 45.3961V49.0445L266.138 53.5507L270.24 51.203V40.7007L270.228 38.2483L270.24 36.2912V25.2855L269.902 25.0922L269.564 25.672H268.889V36.2871V36.2831L268.877 38.2483L268.889 40.7128V50.4338L266.138 52.0084L259.604 48.2754V44.627L255.457 42.2591V34.7891L259.604 32.4213V28.2251L266.138 24.4881L269.227 26.2519L269.564 25.672H268.889H269.564Z" fill="#EAFBFA"/>
<path d="M258.603 32.6185L260.893 33.8709L261.544 32.7031L259.258 31.4507" fill="#EAFBFA"/>
<path d="M262.055 33.7541C262.325 33.2695 262.148 32.6594 261.658 32.3915C261.168 32.1236 260.552 32.2994 260.281 32.784C260.01 33.2687 260.188 33.8788 260.678 34.1467C261.168 34.4146 261.784 34.2388 262.055 33.7541Z" fill="#EAFBFA"/>
<path d="M260.613 34.254C260.414 34.1453 260.251 33.9805 260.146 33.7803C260.041 33.5801 259.998 33.3536 260.024 33.1295C260.049 32.9053 260.141 32.6936 260.287 32.5212C260.434 32.3487 260.629 32.2232 260.848 32.1605C261.067 32.0979 261.3 32.101 261.517 32.1693C261.734 32.2377 261.926 32.3683 262.068 32.5446C262.21 32.7209 262.296 32.9349 262.316 33.1596C262.335 33.3843 262.286 33.6096 262.176 33.807C262.028 34.071 261.781 34.2664 261.488 34.3502C261.195 34.434 260.88 34.3994 260.613 34.254V34.254ZM261.594 32.4942C261.442 32.4115 261.268 32.3752 261.095 32.3901C260.922 32.4049 260.757 32.4702 260.622 32.5776C260.486 32.6851 260.386 32.8298 260.333 32.9937C260.281 33.1575 260.278 33.3331 260.327 33.4982C260.375 33.6634 260.471 33.8107 260.604 33.9215C260.737 34.0324 260.9 34.1018 261.073 34.121C261.245 34.1403 261.42 34.1085 261.574 34.0296C261.728 33.9508 261.856 33.8285 261.94 33.6781C261.996 33.578 262.031 33.4678 262.044 33.354C262.057 33.2403 262.047 33.1251 262.015 33.0151C261.983 32.9051 261.929 32.8024 261.857 32.7131C261.785 32.6237 261.695 32.5493 261.594 32.4942V32.4942Z" fill="#EAFBFA"/>
<path d="M259.222 45.6136L261.48 44.5424L260.898 43.3384L258.636 44.4095" fill="#EAFBFA"/>
<path d="M261.568 44.8854C262.073 44.6462 262.286 44.0474 262.044 43.5479C261.803 43.0484 261.198 42.8375 260.693 43.0767C260.188 43.3159 259.975 43.9147 260.217 44.4141C260.459 44.9136 261.064 45.1246 261.568 44.8854Z" fill="#EAFBFA"/>
<path d="M261.634 44.9899C261.429 45.0874 261.199 45.1225 260.973 45.0906C260.747 45.0586 260.536 44.9612 260.367 44.8106C260.197 44.66 260.077 44.463 260.02 44.2445C259.964 44.026 259.974 43.7959 260.05 43.5832C260.126 43.3706 260.264 43.185 260.446 43.0499C260.629 42.9148 260.847 42.8363 261.075 42.8244C261.302 42.8124 261.528 42.8675 261.724 42.9828C261.92 43.098 262.077 43.2681 262.175 43.4717C262.306 43.7441 262.323 44.0569 262.222 44.3415C262.12 44.6261 261.909 44.8593 261.634 44.9899V44.9899ZM260.759 43.1777C260.602 43.2525 260.472 43.3716 260.383 43.52C260.295 43.6684 260.253 43.8394 260.263 44.0113C260.273 44.1832 260.335 44.3482 260.44 44.4856C260.545 44.623 260.688 44.7265 260.853 44.783C261.017 44.8394 261.195 44.8463 261.363 44.8029C261.531 44.7594 261.683 44.6674 261.798 44.5386C261.914 44.4099 261.988 44.2501 262.012 44.0795C262.035 43.9089 262.007 43.7352 261.931 43.5804C261.829 43.3735 261.649 43.215 261.429 43.1396C261.21 43.0641 260.969 43.0778 260.759 43.1777Z" fill="#EAFBFA"/>
<path d="M263.576 30.2108L264.658 31.0364V34.4109L261.708 36.3721V41.2608L264.658 42.5816V46.0609L263.441 47.2126L264.377 48.1751L266.005 46.6287V41.7199L263.059 40.399V37.0808L266.005 35.1237V30.3799L264.398 29.1558L263.576 30.2108Z" fill="#EAFBFA"/>
<path d="M264.832 30.3449C265.173 29.9063 265.091 29.2767 264.648 28.9385C264.205 28.6004 263.569 28.6819 263.227 29.1204C262.885 29.559 262.968 30.1886 263.411 30.5268C263.854 30.8649 264.49 30.7834 264.832 30.3449Z" fill="#EAFBFA"/>
<path d="M263.327 30.6174C263.507 30.7536 263.725 30.8339 263.951 30.8482C264.178 30.8626 264.403 30.8103 264.6 30.698C264.797 30.5858 264.955 30.4185 265.056 30.2172C265.157 30.0159 265.196 29.7896 265.167 29.5668C265.138 29.3439 265.043 29.1344 264.895 28.9646C264.746 28.7948 264.55 28.6723 264.331 28.6125C264.113 28.5526 263.881 28.5581 263.665 28.6282C263.449 28.6984 263.26 28.83 263.119 29.0067C263.025 29.1255 262.955 29.2617 262.915 29.4073C262.874 29.553 262.863 29.7052 262.882 29.8551C262.902 30.005 262.951 30.1495 263.027 30.2804C263.103 30.4113 263.205 30.5259 263.327 30.6174V30.6174ZM264.547 29.0067C264.687 29.1107 264.792 29.2535 264.849 29.4168C264.906 29.58 264.912 29.7564 264.868 29.9234C264.823 30.0904 264.729 30.2405 264.598 30.3545C264.467 30.4685 264.304 30.5412 264.131 30.5635C263.958 30.5858 263.782 30.5565 263.626 30.4795C263.47 30.4025 263.34 30.2812 263.254 30.131C263.168 29.9809 263.129 29.8087 263.141 29.6364C263.154 29.4641 263.219 29.2996 263.327 29.1637C263.469 28.9846 263.676 28.8678 263.905 28.8384C264.133 28.809 264.364 28.8694 264.547 29.0067V29.0067Z" fill="#EAFBFA"/>
<path d="M264.649 48.3801C265.053 47.997 265.067 47.3622 264.68 46.9624C264.292 46.5625 263.651 46.549 263.247 46.9322C262.843 47.3154 262.829 47.9501 263.217 48.3499C263.604 48.7498 264.245 48.7633 264.649 48.3801Z" fill="#EAFBFA"/>
<path d="M263.156 46.8342C263.321 46.6783 263.529 46.5743 263.753 46.5353C263.977 46.4963 264.208 46.5239 264.417 46.6148C264.625 46.7057 264.802 46.8557 264.924 47.0459C265.046 47.2361 265.109 47.458 265.104 47.6833C265.098 47.9087 265.026 48.1275 264.895 48.3121C264.764 48.4966 264.581 48.6387 264.369 48.7202C264.156 48.8017 263.924 48.8191 263.702 48.7701C263.48 48.7211 263.277 48.608 263.12 48.445C262.909 48.2265 262.794 47.9341 262.801 47.6321C262.808 47.33 262.936 47.043 263.156 46.8342V46.8342ZM264.56 48.2839C264.685 48.1649 264.772 48.0118 264.81 47.844C264.847 47.6762 264.834 47.5011 264.771 47.3409C264.708 47.1807 264.598 47.0425 264.456 46.9439C264.314 46.8452 264.145 46.7904 263.972 46.7865C263.798 46.7826 263.627 46.8297 263.481 46.9218C263.334 47.0139 263.218 47.147 263.148 47.3042C263.078 47.4614 263.056 47.6356 263.086 47.805C263.116 47.9743 263.195 48.1311 263.315 48.2557C263.395 48.3386 263.49 48.4052 263.596 48.4515C263.702 48.4979 263.816 48.5231 263.932 48.5257C264.047 48.5283 264.162 48.5083 264.27 48.4668C264.378 48.4253 264.477 48.3631 264.56 48.2839V48.2839Z" fill="#EAFBFA"/>
<path d="M254.782 39.4H257.374V38.063H254.782" fill="#EAFBFA"/>
<path d="M257.317 39.7344C257.876 39.7344 258.33 39.2855 258.33 38.7317C258.33 38.1779 257.876 37.729 257.317 37.729C256.757 37.729 256.304 38.1779 256.304 38.7317C256.304 39.2855 256.757 39.7344 257.317 39.7344Z" fill="#EAFBFA"/>
<path d="M257.317 39.8593C257.09 39.8593 256.867 39.7925 256.678 39.6673C256.488 39.542 256.341 39.3641 256.254 39.1558C256.167 38.9476 256.144 38.7185 256.188 38.4974C256.233 38.2763 256.342 38.0733 256.503 37.9139C256.664 37.7545 256.869 37.6459 257.093 37.602C257.316 37.558 257.548 37.5806 257.758 37.6668C257.969 37.7531 258.148 37.8992 258.275 38.0866C258.401 38.274 258.469 38.4943 258.469 38.7197C258.469 38.8694 258.439 39.0176 258.381 39.1558C258.323 39.2941 258.239 39.4197 258.132 39.5255C258.025 39.6314 257.898 39.7153 257.758 39.7726C257.618 39.8299 257.469 39.8593 257.317 39.8593V39.8593ZM257.317 37.8459C257.144 37.8459 256.974 37.8969 256.829 37.9924C256.685 38.088 256.572 38.2239 256.506 38.3828C256.439 38.5417 256.422 38.7167 256.456 38.8854C256.489 39.0541 256.573 39.2091 256.696 39.3307C256.819 39.4524 256.976 39.5352 257.146 39.5688C257.317 39.6023 257.493 39.5851 257.654 39.5193C257.814 39.4534 257.952 39.342 258.048 39.1989C258.145 39.0559 258.196 38.8877 258.196 38.7157C258.196 38.485 258.104 38.2637 257.939 38.1006C257.774 37.9375 257.551 37.8459 257.317 37.8459V37.8459Z" fill="#EAFBFA"/>
<path d="M266.932 39.4H269.524V38.063H266.932" fill="#EAFBFA"/>
<path d="M266.989 39.7344C267.548 39.7344 268.002 39.2855 268.002 38.7317C268.002 38.1779 267.548 37.729 266.989 37.729C266.429 37.729 265.976 38.1779 265.976 38.7317C265.976 39.2855 266.429 39.7344 266.989 39.7344Z" fill="#EAFBFA"/>
<path d="M266.989 39.8593C267.217 39.8593 267.44 39.7925 267.629 39.6673C267.819 39.542 267.966 39.3641 268.053 39.1558C268.14 38.9476 268.163 38.7185 268.119 38.4974C268.074 38.2763 267.965 38.0733 267.804 37.9139C267.643 37.7545 267.437 37.6459 267.214 37.602C266.991 37.558 266.759 37.5806 266.549 37.6668C266.338 37.7531 266.159 37.8992 266.032 38.0866C265.905 38.274 265.838 38.4943 265.838 38.7197C265.838 38.8694 265.868 39.0176 265.926 39.1558C265.983 39.2941 266.068 39.4197 266.175 39.5255C266.282 39.6314 266.409 39.7153 266.549 39.7726C266.688 39.8299 266.838 39.8593 266.989 39.8593V39.8593ZM266.989 37.8459C267.163 37.8459 267.333 37.8969 267.478 37.9924C267.622 38.088 267.735 38.2239 267.801 38.3828C267.868 38.5417 267.885 38.7167 267.851 38.8854C267.818 39.0541 267.734 39.2091 267.611 39.3307C267.488 39.4524 267.331 39.5352 267.161 39.5688C266.99 39.6023 266.814 39.5851 266.653 39.5193C266.492 39.4534 266.355 39.342 266.259 39.1989C266.162 39.0559 266.111 38.8877 266.111 38.7157C266.111 38.485 266.203 38.2637 266.368 38.1006C266.533 37.9375 266.756 37.8459 266.989 37.8459V37.8459Z" fill="#EAFBFA"/>
<path d="M269.565 25.672L269.903 26.2519L272.991 24.4881L279.526 28.2251V32.4213L283.672 34.7891V42.2591L279.526 44.627V48.2754L272.991 52.0084L270.241 50.4338V40.7087L270.253 38.2483L270.241 36.2831V36.2871V25.672H269.565L269.903 26.2519L269.565 25.672H268.89V36.2912L268.906 38.2523L268.89 40.7047V51.203L272.991 53.5507L280.877 49.0445V45.3961L285.023 43.0283V34.0159L280.877 31.6481V27.452L272.991 22.9458L268.89 25.2855V25.672H269.565Z" fill="#EAFBFA"/>
<path d="M279.876 31.4507L277.585 32.7031L278.24 33.8709L280.527 32.6185" fill="#EAFBFA"/>
<path d="M278.457 34.13C278.947 33.8621 279.124 33.252 278.853 32.7673C278.583 32.2827 277.966 32.1069 277.477 32.3748C276.987 32.6427 276.809 33.2528 277.08 33.7374C277.351 34.2221 277.967 34.3979 278.457 34.13Z" fill="#EAFBFA"/>
<path d="M277.405 32.2643C277.604 32.1541 277.831 32.1046 278.058 32.1221C278.285 32.1395 278.501 32.2232 278.68 32.3624C278.859 32.5016 278.992 32.6902 279.063 32.9043C279.134 33.1184 279.139 33.3484 279.077 33.5654C279.016 33.7823 278.891 33.9763 278.718 34.1231C278.546 34.2698 278.333 34.3625 278.107 34.3896C277.881 34.4167 277.652 34.377 277.449 34.2754C277.246 34.1737 277.078 34.0148 276.966 33.8187C276.819 33.5543 276.784 33.243 276.869 32.9531C276.953 32.6632 277.151 32.4184 277.417 32.2723L277.405 32.2643ZM278.386 34.0241C278.538 33.9408 278.661 33.8148 278.741 33.6621C278.821 33.5093 278.853 33.3366 278.833 33.1658C278.814 32.995 278.744 32.8337 278.632 32.7023C278.52 32.5709 278.371 32.4753 278.204 32.4276C278.037 32.3798 277.86 32.3821 277.694 32.4341C277.529 32.486 277.382 32.5854 277.274 32.7196C277.165 32.8538 277.099 33.0168 277.084 33.188C277.069 33.3593 277.106 33.5311 277.19 33.6818C277.245 33.7821 277.32 33.8706 277.411 33.9422C277.501 34.0138 277.605 34.067 277.716 34.0988C277.827 34.1306 277.943 34.1403 278.058 34.1275C278.173 34.1147 278.285 34.0796 278.386 34.0241V34.0241Z" fill="#EAFBFA"/>
<path d="M280.494 44.4095L278.231 43.3384L277.649 44.5424L279.908 45.6136" fill="#EAFBFA"/>
<path d="M278.904 44.3764C279.146 43.8769 278.932 43.2781 278.428 43.0389C277.923 42.7997 277.318 43.0107 277.076 43.5102C276.835 44.0097 277.048 44.6085 277.552 44.8476C278.057 45.0868 278.662 44.8759 278.904 44.3764Z" fill="#EAFBFA"/>
<path d="M278.488 42.9399C278.695 43.0347 278.869 43.1883 278.988 43.3812C279.107 43.5742 279.165 43.7978 279.155 44.0236C279.146 44.2494 279.068 44.4673 278.933 44.6494C278.798 44.8315 278.611 44.9697 278.396 45.0465C278.181 45.1232 277.948 45.135 277.727 45.0804C277.505 45.0257 277.305 44.907 277.151 44.7395C276.998 44.572 276.899 44.3631 276.866 44.1395C276.833 43.9158 276.867 43.6875 276.966 43.4835C277.098 43.2114 277.333 43.0022 277.621 42.9018C277.909 42.8014 278.225 42.818 278.5 42.948L278.488 42.9399ZM277.613 44.752C277.769 44.8274 277.945 44.8551 278.117 44.8317C278.289 44.8083 278.451 44.7348 278.581 44.6205C278.711 44.5062 278.804 44.3563 278.848 44.1897C278.892 44.0231 278.885 43.8473 278.828 43.6847C278.771 43.522 278.666 43.3798 278.527 43.276C278.389 43.1722 278.222 43.1115 278.048 43.1016C277.874 43.0917 277.702 43.1331 277.552 43.2204C277.402 43.3078 277.282 43.4372 277.206 43.5923C277.105 43.7995 277.091 44.0379 277.167 44.2553C277.244 44.4727 277.404 44.6513 277.613 44.752V44.752Z" fill="#EAFBFA"/>
<path d="M274.732 29.1558L273.125 30.3799V35.1237L276.071 37.0808V40.399L273.125 41.7199V46.6287L274.753 48.1751L275.688 47.2126L274.472 46.0609V42.5816L277.422 41.2608V36.3721L274.472 34.4109V31.0364L275.558 30.2108L274.732 29.1558Z" fill="#EAFBFA"/>
<path d="M275.72 30.4917C276.163 30.1535 276.246 29.5239 275.904 29.0853C275.562 28.6467 274.926 28.5653 274.483 28.9034C274.04 29.2415 273.958 29.8712 274.299 30.3098C274.641 30.7483 275.277 30.8298 275.72 30.4917Z" fill="#EAFBFA"/>
<path d="M274.399 28.8174C274.22 28.9562 274.087 29.1441 274.017 29.3576C273.946 29.571 273.94 29.8004 274.001 30.017C274.061 30.2335 274.185 30.4275 274.356 30.5746C274.528 30.7218 274.74 30.8154 274.965 30.8438C275.19 30.8722 275.419 30.8342 275.622 30.7344C275.825 30.6345 275.994 30.4775 276.108 30.2829C276.221 30.0883 276.274 29.8648 276.26 29.6406C276.245 29.4164 276.164 29.2015 276.026 29.0227C275.934 28.9025 275.818 28.8018 275.686 28.7262C275.554 28.6507 275.408 28.602 275.256 28.5829C275.105 28.5638 274.951 28.5747 274.804 28.6149C274.657 28.6552 274.519 28.724 274.399 28.8174ZM275.62 30.4281C275.482 30.5348 275.316 30.5987 275.142 30.6115C274.968 30.6243 274.794 30.5855 274.642 30.5001C274.49 30.4147 274.368 30.2865 274.29 30.1319C274.212 29.9773 274.183 29.8032 274.205 29.6319C274.228 29.4606 274.301 29.2998 274.416 29.17C274.532 29.0403 274.683 28.9473 274.852 28.9032C275.021 28.859 275.199 28.8655 275.364 28.922C275.529 28.9784 275.673 29.0822 275.778 29.2201C275.917 29.4019 275.978 29.6303 275.948 29.8562C275.919 30.0821 275.801 30.2874 275.62 30.4281V30.4281Z" fill="#EAFBFA"/>
<path d="M275.912 48.3452C276.299 47.9454 276.286 47.3106 275.882 46.9275C275.478 46.5443 274.836 46.5579 274.449 46.9577C274.062 47.3575 274.076 47.9922 274.48 48.3754C274.884 48.7586 275.525 48.745 275.912 48.3452Z" fill="#EAFBFA"/>
<path d="M274.382 48.4769C274.218 48.3211 274.103 48.1205 274.054 47.9005C274.004 47.6805 274.022 47.4508 274.104 47.2407C274.187 47.0305 274.33 46.8492 274.517 46.7198C274.703 46.5903 274.924 46.5185 275.152 46.5135C275.38 46.5084 275.604 46.5703 275.796 46.6913C275.988 46.8123 276.14 46.987 276.232 47.1933C276.323 47.3996 276.351 47.6282 276.312 47.8502C276.273 48.0722 276.167 48.2777 276.01 48.4406C275.799 48.6589 275.509 48.7854 275.204 48.7922C274.899 48.799 274.603 48.6856 274.382 48.4769V48.4769ZM275.786 47.0271C275.66 46.9086 275.502 46.8297 275.331 46.8003C275.16 46.7709 274.984 46.7923 274.825 46.8619C274.666 46.9314 274.531 47.046 274.438 47.1911C274.345 47.3362 274.298 47.5053 274.302 47.6772C274.306 47.849 274.361 48.0159 274.461 48.1566C274.56 48.2974 274.7 48.4057 274.862 48.468C275.024 48.5303 275.201 48.5437 275.37 48.5066C275.54 48.4695 275.694 48.3834 275.815 48.2594C275.895 48.1767 275.958 48.0793 276 47.9725C276.041 47.8658 276.062 47.7519 276.059 47.6374C276.056 47.5229 276.031 47.4101 275.984 47.3053C275.937 47.2006 275.87 47.1061 275.786 47.0271V47.0271Z" fill="#EAFBFA"/>
<path d="M284.347 38.063H281.755V39.4H284.347" fill="#EAFBFA"/>
<path d="M281.812 39.7344C282.372 39.7344 282.825 39.2855 282.825 38.7317C282.825 38.1779 282.372 37.729 281.812 37.729C281.252 37.729 280.799 38.1779 280.799 38.7317C280.799 39.2855 281.252 39.7344 281.812 39.7344Z" fill="#EAFBFA"/>
<path d="M281.813 37.5962C282.04 37.5962 282.263 37.663 282.452 37.7882C282.642 37.9135 282.789 38.0915 282.877 38.2997C282.964 38.5079 282.986 38.7371 282.942 38.9581C282.898 39.1792 282.788 39.3823 282.627 39.5417C282.466 39.701 282.261 39.8096 282.037 39.8535C281.814 39.8975 281.582 39.875 281.372 39.7887C281.162 39.7025 280.982 39.5564 280.855 39.369C280.729 39.1816 280.661 38.9612 280.661 38.7358C280.661 38.4336 280.782 38.1437 280.998 37.93C281.214 37.7162 281.507 37.5962 281.813 37.5962V37.5962ZM281.813 39.6097C281.986 39.6097 282.156 39.5587 282.301 39.4631C282.445 39.3675 282.558 39.2316 282.625 39.0727C282.691 38.9138 282.709 38.7389 282.675 38.5701C282.641 38.4014 282.557 38.2464 282.434 38.1248C282.311 38.0031 282.155 37.9203 281.984 37.8867C281.814 37.8532 281.637 37.8704 281.476 37.9362C281.316 38.0021 281.178 38.1136 281.082 38.2566C280.985 38.3996 280.934 38.5678 280.934 38.7398C280.934 38.9705 281.026 39.1918 281.191 39.3549C281.356 39.518 281.58 39.6097 281.813 39.6097V39.6097Z" fill="#EAFBFA"/>
<path d="M272.197 38.063H269.605V39.4H272.197" fill="#EAFBFA"/>
<path d="M272.14 39.7344C272.7 39.7344 273.153 39.2855 273.153 38.7317C273.153 38.1779 272.7 37.729 272.14 37.729C271.581 37.729 271.127 38.1779 271.127 38.7317C271.127 39.2855 271.581 39.7344 272.14 39.7344Z" fill="#EAFBFA"/>
<path d="M272.14 37.5963C271.913 37.5987 271.691 37.6677 271.503 37.7945C271.316 37.9214 271.17 38.1004 271.085 38.3091C271 38.5177 270.979 38.7467 271.025 38.9671C271.071 39.1874 271.182 39.3894 271.344 39.5474C271.506 39.7054 271.712 39.8124 271.935 39.855C272.158 39.8975 272.389 39.8737 272.599 39.7864C272.808 39.6992 272.987 39.5525 273.113 39.3649C273.238 39.1772 273.305 38.957 273.304 38.7319C273.304 38.4297 273.183 38.1398 272.967 37.9261C272.751 37.7124 272.458 37.5923 272.153 37.5923L272.14 37.5963ZM272.14 39.6098C271.966 39.6098 271.797 39.5588 271.652 39.4632C271.507 39.3676 271.395 39.2318 271.328 39.0728C271.262 38.9139 271.244 38.739 271.278 38.5703C271.312 38.4015 271.396 38.2466 271.519 38.1249C271.642 38.0033 271.798 37.9204 271.969 37.8869C272.139 37.8533 272.316 37.8705 272.477 37.9364C272.637 38.0022 272.775 38.1137 272.871 38.2567C272.968 38.3998 273.019 38.5679 273.019 38.74C273.019 38.9707 272.927 39.1919 272.762 39.355C272.597 39.5182 272.373 39.6098 272.14 39.6098V39.6098Z" fill="#EAFBFA"/>
<path d="M241.998 80.9345H240.468L239.288 78.8082H238.881V80.9345H237.562V75.3773H239.597C240.122 75.3503 240.641 75.4915 241.078 75.78C241.308 75.9672 241.483 76.2108 241.588 76.4865C241.692 76.7621 241.722 77.0601 241.673 77.3505C241.624 77.641 241.499 77.9136 241.311 78.1412C241.122 78.3688 240.876 78.5433 240.598 78.6472L241.998 80.9345ZM240.061 76.529C239.858 76.4092 239.62 76.3583 239.385 76.384H238.865V77.8096H239.385C239.621 77.8329 239.859 77.7791 240.061 77.6565C240.155 77.596 240.23 77.5119 240.28 77.4128C240.33 77.3138 240.353 77.2033 240.346 77.0928C240.352 76.9824 240.329 76.8722 240.279 76.7732C240.229 76.6743 240.154 76.5901 240.061 76.529V76.529Z" fill="#EAFBFA"/>
<path d="M246.147 80.9341H242.437V75.377H246.074V76.4159H243.747V77.5515H245.944V78.5904H243.747V79.8791H246.147V80.9341Z" fill="#EAFBFA"/>
<path d="M251.974 80.0565L252.584 80.7411L251.77 81.4418L251.119 80.7089C250.66 80.9257 250.156 81.0359 249.646 81.031C247.978 81.031 246.668 79.9599 246.668 78.1638C246.668 76.3678 247.978 75.2886 249.646 75.2886C251.315 75.2886 252.625 76.3678 252.625 78.1638C252.646 78.8518 252.415 79.5241 251.974 80.0565V80.0565ZM249.655 76.4C249.21 76.43 248.794 76.6259 248.49 76.9481C248.185 77.2703 248.016 77.6947 248.016 78.1356C248.016 78.5765 248.185 79.001 248.49 79.3232C248.794 79.6454 249.21 79.8413 249.655 79.8713C249.866 79.8738 250.076 79.8355 250.273 79.7585L249.939 79.38L250.753 78.6712L251.095 79.0739C251.241 78.787 251.314 78.4689 251.307 78.1477C251.326 77.9229 251.297 77.6966 251.223 77.4834C251.148 77.2702 251.029 77.0749 250.873 76.9101C250.718 76.7453 250.529 76.6148 250.319 76.5269C250.109 76.439 249.883 76.3958 249.655 76.4V76.4Z" fill="#EAFBFA"/>
<path d="M258.037 78.6146C258.068 78.9266 258.037 79.2415 257.945 79.5414C257.852 79.8413 257.701 80.1203 257.5 80.3623C256.992 80.7889 256.348 81.023 255.681 81.023C255.015 81.023 254.371 80.7889 253.863 80.3623C253.462 79.8706 253.272 79.2432 253.334 78.6146V75.3931H254.66V78.6146C254.622 78.9393 254.7 79.2668 254.88 79.5408C254.983 79.6527 255.109 79.742 255.249 79.8031C255.389 79.8642 255.54 79.8957 255.694 79.8957C255.847 79.8957 255.998 79.8642 256.138 79.8031C256.278 79.742 256.404 79.6527 256.507 79.5408C256.687 79.2668 256.765 78.9393 256.727 78.6146V75.3931H258.054L258.037 78.6146Z" fill="#EAFBFA"/>
<path d="M262.724 80.9341H259.021V75.377H262.659V76.4159H260.332V77.5515H262.529V78.5904H260.332V79.8791H262.724V80.9341Z" fill="#EAFBFA"/>
<path d="M266.68 80.5719C266.24 80.8926 265.703 81.0546 265.158 81.031C264.412 81.0032 263.702 80.7051 263.164 80.1934L263.815 79.243C264.202 79.6443 264.722 79.8932 265.28 79.9437C265.687 79.9437 266.029 79.7424 266.029 79.3719C266.029 79.0014 265.622 78.8484 265.369 78.7598C265.117 78.6712 264.702 78.5262 264.515 78.4457C264.27 78.3519 264.044 78.2155 263.848 78.043C263.7 77.9068 263.584 77.7404 263.508 77.5554C263.433 77.3704 263.398 77.1712 263.408 76.9718C263.409 76.7401 263.463 76.5115 263.564 76.3026C263.665 76.0937 263.812 75.9097 263.994 75.7637C264.421 75.4508 264.945 75.2943 265.475 75.3208C266.133 75.3321 266.764 75.5748 267.257 76.0053L266.696 76.9074C266.362 76.5739 265.916 76.3733 265.443 76.3436C265.036 76.3436 264.71 76.5047 264.71 76.843C264.71 77.1812 265.028 77.3101 265.28 77.4067C265.532 77.5034 265.939 77.6484 266.118 77.7208C266.407 77.8174 266.672 77.9708 266.899 78.1719C267.043 78.3112 267.156 78.4781 267.231 78.6624C267.307 78.8466 267.343 79.0442 267.339 79.243C267.339 79.4996 267.279 79.7527 267.165 79.983C267.051 80.2134 266.885 80.4148 266.68 80.5719V80.5719Z" fill="#EAFBFA"/>
<path d="M271.676 76.4079H270.228V80.9341H268.909V76.4079H267.461V75.377H271.676V76.4079Z" fill="#EAFBFA"/>
<path d="M275.948 80.9341H272.237V75.377H275.875V76.4159H273.548V77.5515H275.745V78.5904H273.548V79.8791H275.948V80.9341Z" fill="#EAFBFA"/>
<path d="M281.206 80.9345H279.676L278.496 78.8082H278.089V80.9345H276.763V75.3773H278.797C279.322 75.3503 279.841 75.4915 280.278 75.78C280.508 75.9672 280.684 76.2108 280.788 76.4865C280.893 76.7621 280.922 77.0601 280.873 77.3505C280.825 77.641 280.7 77.9136 280.511 78.1412C280.322 78.3688 280.077 78.5433 279.798 78.6472L281.206 80.9345ZM279.269 76.529C279.066 76.4092 278.829 76.3583 278.594 76.384H278.073V77.8096H278.594C278.83 77.8329 279.067 77.7791 279.269 77.6565C279.363 77.596 279.439 77.5119 279.489 77.4128C279.539 77.3138 279.561 77.2033 279.554 77.0928C279.561 76.9824 279.538 76.8722 279.488 76.7732C279.438 76.6743 279.362 76.5901 279.269 76.529V76.529Z" fill="#EAFBFA"/>
<path d="M284.778 80.5719C284.339 80.8926 283.802 81.0546 283.256 81.031C282.511 81.0032 281.801 80.7051 281.263 80.1934L281.914 79.243C282.3 79.6443 282.821 79.8932 283.379 79.9437C283.785 79.9437 284.127 79.7424 284.127 79.3719C284.127 79.0014 283.72 78.8484 283.468 78.7598C283.216 78.6712 282.801 78.5262 282.614 78.4457C282.369 78.3519 282.143 78.2155 281.946 78.043C281.799 77.9068 281.683 77.7404 281.607 77.5554C281.531 77.3704 281.497 77.1712 281.507 76.9718C281.508 76.7401 281.561 76.5115 281.663 76.3026C281.764 76.0937 281.911 75.9097 282.093 75.7637C282.52 75.4508 283.043 75.2943 283.574 75.3208C284.231 75.3321 284.863 75.5748 285.356 76.0053L284.795 76.9074C284.461 76.5739 284.015 76.3733 283.541 76.3436C283.134 76.3436 282.809 76.5047 282.809 76.843C282.809 77.1812 283.126 77.3101 283.379 77.4067C283.631 77.5034 284.038 77.6484 284.217 77.7208C284.505 77.8174 284.771 77.9708 284.998 78.1719C285.141 78.3112 285.254 78.4781 285.33 78.6624C285.406 78.8466 285.442 79.0442 285.437 79.243C285.437 79.4996 285.378 79.7527 285.263 79.983C285.149 80.2134 284.983 80.4148 284.778 80.5719V80.5719Z" fill="#EAFBFA"/>
<path d="M292.876 80.0725C292.549 80.3946 292.158 80.6456 291.728 80.8092C291.298 80.9729 290.838 81.0457 290.377 81.0228C289.99 81.0429 289.604 80.9826 289.242 80.8459C288.88 80.7092 288.55 80.4991 288.275 80.2292C288 79.9592 287.785 79.6352 287.644 79.2781C287.503 78.921 287.439 78.5387 287.456 78.1556C287.456 76.3032 288.823 75.2965 290.394 75.2965C290.828 75.2722 291.262 75.3467 291.662 75.5143C292.063 75.6818 292.42 75.9379 292.705 76.2629L291.834 77.012C291.656 76.8079 291.434 76.6451 291.185 76.5352C290.936 76.4252 290.666 76.3708 290.394 76.3757C289.49 76.3757 288.79 77.0281 288.79 78.1556C288.79 79.2832 289.507 79.9356 290.418 79.9356C291.329 79.9356 291.59 79.5812 291.59 79.5812V78.7758H290.394V77.7851H292.859L292.876 80.0725Z" fill="#EAFBFA"/>
<path d="M297.506 80.9341H293.795V75.377H297.433V76.4159H295.105V77.5515H297.31V78.5904H295.113V79.8791H297.514L297.506 80.9341Z" fill="#EAFBFA"/>
<path d="M302.055 76.4079H300.607V80.9341H299.288V76.4079H297.84V75.377H302.055V76.4079Z" fill="#EAFBFA"/>
<path d="M234.978 86.0729H233.53V90.5992H232.207V86.0729H230.759V85.042H234.974L234.978 86.0729Z" fill="#EAFBFA"/>
<path d="M240.414 90.5992H239.096V88.2716H236.842V90.5992H235.523V85.042H236.842V87.1924H239.096V85.042H240.414V90.5992Z" fill="#EAFBFA"/>
<path d="M245.15 90.5992H241.439V85.042H245.077V86.0809H242.75V87.2165H244.947V88.2555H242.75V89.5441H245.15V90.5992Z" fill="#EAFBFA"/>
<path d="M247.283 90.5992H245.965V85.042H247.283V90.5992Z" fill="#EAFBFA"/>
<path d="M252.752 90.599H251.222L250.042 88.4728H249.635V90.599H248.316V85.0418H250.351C250.876 85.0149 251.395 85.1561 251.832 85.4445C252.059 85.6335 252.232 85.8781 252.334 86.1539C252.436 86.4297 252.462 86.7271 252.412 87.0164C252.361 87.3057 252.235 87.5768 252.045 87.8027C251.856 88.0286 251.61 88.2013 251.332 88.3037L252.752 90.599ZM250.815 86.1935C250.612 86.0737 250.374 86.0228 250.139 86.0486H249.618V87.4741H250.139C250.375 87.4974 250.613 87.4437 250.815 87.3211C250.909 87.2606 250.984 87.1765 251.034 87.0774C251.084 86.9783 251.107 86.8679 251.1 86.7573C251.106 86.6469 251.083 86.5367 251.033 86.4378C250.983 86.3389 250.908 86.2546 250.815 86.1935V86.1935Z" fill="#EAFBFA"/>
<path d="M258.863 89.9384C258.242 90.4032 257.476 90.637 256.698 90.5989H254.794V85.0417H256.698C257.477 85.0005 258.246 85.2378 258.863 85.7102C259.169 85.9687 259.41 86.2936 259.568 86.6596C259.726 87.0257 259.797 87.4228 259.774 87.8203C259.796 88.2188 259.725 88.6169 259.567 88.984C259.409 89.3512 259.168 89.6777 258.863 89.9384V89.9384ZM257.943 86.5155C257.618 86.239 257.2 86.0951 256.771 86.1128H256.104V89.4874H256.771C256.997 89.5041 257.223 89.472 257.435 89.3933C257.647 89.3147 257.839 89.1914 257.997 89.032C258.156 88.8726 258.278 88.681 258.354 88.4703C258.431 88.2597 258.46 88.0351 258.44 87.8122C258.452 87.5738 258.415 87.3354 258.329 87.1122C258.244 86.8889 258.112 86.6857 257.943 86.5155V86.5155Z" fill="#EAFBFA"/>
<path d="M265.406 90.5989H263.974L263.567 89.4794H261.565L261.158 90.5989H259.791L261.907 85.0337H263.274L265.406 90.5989ZM263.274 88.4647L262.574 86.4512L261.874 88.4647H263.274Z" fill="#EAFBFA"/>
<path d="M268.889 86.0729H267.441V90.5992H266.122V86.0729H264.674V85.042H268.889V86.0729Z" fill="#EAFBFA"/>
<path d="M273.756 90.5989H272.323L271.917 89.4794H269.915L269.508 90.5989H268.141L270.256 85.0337H271.624L273.756 90.5989ZM271.624 88.4647L270.924 86.4512L270.224 88.4647H271.624Z" fill="#EAFBFA"/>
<path d="M279.094 90.5992H275.839V85.042H277.149V89.5199H279.094V90.5992Z" fill="#EAFBFA"/>
<path d="M284.741 90.5989H283.309L282.902 89.4794H280.9L280.493 90.5989H279.126L281.242 85.0337H282.609L284.741 90.5989ZM282.609 88.4647L281.909 86.4512L281.209 88.4647H282.609Z" fill="#EAFBFA"/>
<path d="M288.957 90.2366C288.527 90.5026 288.023 90.6293 287.517 90.599H285.222V85.0419H287.138C287.611 85.013 288.085 85.093 288.522 85.2754C288.742 85.381 288.927 85.5474 289.054 85.7546C289.181 85.9618 289.245 86.201 289.238 86.4432C289.24 86.7021 289.164 86.9556 289.018 87.171C288.873 87.3864 288.666 87.5537 288.424 87.6513C288.746 87.7005 289.04 87.8624 289.252 88.1077C289.464 88.353 289.58 88.6654 289.58 88.9882C289.594 89.2319 289.544 89.475 289.435 89.6938C289.326 89.9126 289.161 90.0996 288.957 90.2366V90.2366ZM287.663 86.1211C287.484 86.0247 287.28 85.9853 287.077 86.0083H286.532V87.2889H287.045C287.258 87.3142 287.475 87.2719 287.663 87.1681C287.753 87.1121 287.826 87.0332 287.875 86.9397C287.923 86.8462 287.946 86.7415 287.94 86.6365C287.947 86.5336 287.925 86.4308 287.876 86.3396C287.827 86.2485 287.753 86.1728 287.663 86.1211ZM287.956 88.3439C287.746 88.2192 287.5 88.1655 287.256 88.1909H286.532V89.6084H287.256C287.5 89.6338 287.746 89.5801 287.956 89.4554C288.044 89.3914 288.116 89.3078 288.166 89.2112C288.215 89.1147 288.241 89.0079 288.241 88.8997C288.241 88.7914 288.215 88.6846 288.166 88.5881C288.116 88.4915 288.044 88.4079 287.956 88.3439V88.3439Z" fill="#EAFBFA"/>
<path d="M294.003 90.5992H290.292V85.042H293.93V86.0809H291.614V87.2165H293.812V88.2555H291.614V89.5441H294.015L294.003 90.5992Z" fill="#EAFBFA"/>
<path d="M298.072 90.5992H294.816V85.042H296.127V89.5199H298.072V90.5992Z" fill="#EAFBFA"/>
<path d="M302.376 90.5992H298.665V85.042H302.303V86.0809H299.975V87.2165H302.193V88.2555H299.996V89.5441H302.396L302.376 90.5992Z" fill="#EAFBFA"/>
<path d="M307.259 89.9384C306.639 90.4032 305.872 90.637 305.095 90.5989H303.19V85.0417H305.095C305.874 85.0005 306.642 85.2378 307.259 85.7102C307.565 85.9687 307.807 86.2936 307.965 86.6596C308.123 87.0257 308.193 87.4228 308.171 87.8203C308.192 88.2188 308.121 88.6169 307.963 88.984C307.805 89.3512 307.565 89.6777 307.259 89.9384V89.9384ZM306.34 86.5155C306.015 86.239 305.596 86.0951 305.168 86.1128H304.501V89.4874H305.168C305.393 89.5041 305.62 89.472 305.832 89.3933C306.043 89.3147 306.235 89.1914 306.394 89.032C306.553 88.8726 306.674 88.681 306.751 88.4703C306.827 88.2597 306.856 88.0351 306.836 87.8122C306.849 87.5738 306.811 87.3354 306.726 87.1122C306.64 86.8889 306.509 86.6857 306.34 86.5155Z" fill="#EAFBFA"/>
</svg>
