<svg width="40" height="41" viewBox="0 0 40 41" fill="none" xmlns="http://www.w3.org/2000/svg">
<path d="M35.2375 10.249C34.8 10.0678 24.5312 5.87404 20.1688 4.62404C20.0584 4.59309 19.9416 4.59309 19.8312 4.62404C15.4562 5.87404 5.2 10.0928 4.7625 10.249C4.64836 10.2959 4.55066 10.3756 4.4817 10.4779C4.41274 10.5802 4.37562 10.7007 4.375 10.824C4.375 32.6553 19.7312 35.7865 19.8875 35.824H20H20.1125C20.2688 35.824 35.625 32.699 35.625 10.824C35.6244 10.7007 35.5873 10.5802 35.5183 10.4779C35.4493 10.3756 35.3516 10.2959 35.2375 10.249ZM20 34.574C18.6625 34.2428 5.8125 30.699 5.625 11.2428C7.55 10.4553 16.0938 6.99279 20 5.84904C23.9062 6.99279 32.45 10.4553 34.375 11.2428C34.1938 30.8553 21.4813 34.2365 20 34.574Z" fill="#0075AB"></path>
<path d="M7.9439 12.3241C7.82154 12.374 7.71812 12.4613 7.6485 12.5736C7.57888 12.6859 7.54663 12.8174 7.5564 12.9491C8.32515 27.8867 17.1314 31.7554 19.8189 32.5804C19.9362 32.6219 20.0641 32.6219 20.1814 32.5804C22.8689 31.7554 31.6751 27.8867 32.4439 12.9491C32.4537 12.8174 32.4214 12.6859 32.3518 12.5736C32.2822 12.4613 32.1788 12.374 32.0564 12.3241C29.0251 11.1054 23.4564 8.9054 20.1814 7.8679C20.0593 7.82952 19.9284 7.82952 19.8064 7.8679C16.5376 8.91165 10.9689 11.1054 7.9439 12.3241ZM31.1751 13.3241C30.3189 26.7554 22.6501 30.4429 20.0001 31.3179C17.3501 30.4429 9.6814 26.7554 8.82515 13.3179C11.8751 12.1054 16.8751 10.1241 20.0001 9.1179C23.1251 10.1179 28.1251 12.1054 31.1751 13.3241Z" fill="#0075AB"></path>
<path d="M13.9315 21.8929L18.3065 26.2679C18.3649 26.3258 18.4341 26.3716 18.5103 26.4027C18.5864 26.4338 18.668 26.4496 18.7502 26.4491H18.794C18.8819 26.4425 18.9675 26.4174 19.045 26.3754C19.1226 26.3334 19.1904 26.2754 19.244 26.2054L27.369 15.5804C27.4216 15.513 27.4599 15.4355 27.4814 15.3527C27.5029 15.2699 27.5072 15.1836 27.494 15.0991C27.4795 15.0141 27.4476 14.933 27.4003 14.861C27.3529 14.7889 27.2912 14.7274 27.219 14.6804L25.344 13.4304C25.2127 13.3437 25.0535 13.3097 24.8983 13.3352C24.743 13.3607 24.6031 13.4437 24.5065 13.5679L18.6877 21.1304L16.694 19.1304C16.6359 19.0718 16.5667 19.0253 16.4906 18.9936C16.4144 18.9618 16.3327 18.9455 16.2502 18.9455C16.1677 18.9455 16.086 18.9618 16.0098 18.9936C15.9337 19.0253 15.8646 19.0718 15.8065 19.1304L13.9315 21.0054C13.8729 21.0635 13.8264 21.1326 13.7946 21.2088C13.7629 21.2849 13.7466 21.3666 13.7466 21.4491C13.7466 21.5316 13.7629 21.6133 13.7946 21.6895C13.8264 21.7656 13.8729 21.8348 13.9315 21.8929ZM16.2502 20.4554L18.3065 22.5179C18.3692 22.5805 18.4446 22.629 18.5276 22.6603C18.6105 22.6915 18.6992 22.7048 18.7877 22.6991C18.8767 22.6934 18.9635 22.6687 19.0422 22.6267C19.1209 22.5846 19.1897 22.5262 19.244 22.4554L25.1377 14.7929L25.9752 15.3491L18.6877 24.8804L15.2565 21.4491L16.2502 20.4554Z" fill="#0075AB"></path>
</svg>