<svg width="40" height="41" viewBox="0 0 40 41" fill="none" xmlns="http://www.w3.org/2000/svg">
<g clip-path="url(#clip0_284_12163)">
<path d="M14.5879 23.0814C14.5879 24.1518 14.945 25.1981 15.6139 26.0881C16.2829 26.978 17.2338 27.6717 18.3463 28.0813C19.4587 28.4909 20.6829 28.598 21.8639 28.3892C23.0449 28.1804 24.1297 27.665 24.9812 26.9081C25.8326 26.1513 26.4125 25.187 26.6474 24.1372C26.8823 23.0874 26.7617 21.9993 26.3009 21.0104C25.8401 20.0216 25.0598 19.1764 24.0586 18.5817C23.0574 17.9871 21.8803 17.6697 20.6761 17.6697C19.0614 17.6697 17.5129 18.2398 16.3711 19.2547C15.2293 20.2696 14.5879 21.6462 14.5879 23.0814V23.0814ZM20.6761 27.1403C19.4651 27.1403 18.3037 26.7126 17.4474 25.9515C16.591 25.1903 16.1099 24.1579 16.1099 23.0814C16.1099 22.005 16.591 20.9726 17.4474 20.2114C18.3037 19.4502 19.4651 19.0226 20.6761 19.0226C21.1086 19.0249 21.5387 19.0795 21.9547 19.185C21.2843 19.4011 20.7206 19.8196 20.3619 20.3674C20.0031 20.9152 19.8721 21.5576 19.9917 22.1824C20.1113 22.8073 20.4739 23.375 21.0162 23.7866C21.5585 24.1981 22.2462 24.4274 22.9592 24.4344C23.3903 24.4356 23.8167 24.3554 24.2103 24.1991C24.6039 24.0429 24.9556 23.8141 25.2423 23.5279C25.1181 24.5252 24.5828 25.4463 23.7395 26.1134C22.8963 26.7805 21.8049 27.1464 20.6761 27.1403V27.1403ZM24.4813 21.7285C24.4813 21.9961 24.392 22.2577 24.2248 22.4802C24.0575 22.7026 23.8198 22.8761 23.5417 22.9785C23.2636 23.0809 22.9575 23.1076 22.6623 23.0554C22.367 23.0032 22.0958 22.8744 21.883 22.6852C21.6701 22.496 21.5251 22.2549 21.4664 21.9924C21.4077 21.73 21.4378 21.458 21.553 21.2108C21.6682 20.9635 21.8633 20.7522 22.1136 20.6036C22.3639 20.4549 22.6582 20.3756 22.9592 20.3756C23.3629 20.3756 23.75 20.5181 24.0355 20.7718C24.3209 21.0256 24.4813 21.3697 24.4813 21.7285Z" fill="#0075AB"></path>
<path d="M38.7244 22.071C36.0146 19.5855 32.8861 17.5474 29.4681 16.0407L33.4146 12.3032C33.4852 12.2361 33.5412 12.1566 33.5794 12.069C33.6176 11.9815 33.6373 11.8876 33.6373 11.7928C33.6373 11.6981 33.6176 11.6042 33.5794 11.5167C33.5412 11.4291 33.4852 11.3496 33.4146 11.2825C33.3439 11.2155 33.2601 11.1624 33.1678 11.1261C33.0755 11.0898 32.9766 11.0712 32.8768 11.0712C32.7769 11.0712 32.678 11.0898 32.5857 11.1261C32.4934 11.1624 32.4096 11.2155 32.339 11.2825L27.9608 15.4369C25.6607 14.5731 23.2276 14.0706 20.7572 13.9491V8.91785C20.7572 8.72722 20.6774 8.5444 20.5354 8.40961C20.3933 8.27482 20.2007 8.1991 19.9998 8.1991C19.7989 8.1991 19.6062 8.27482 19.4642 8.40961C19.3221 8.5444 19.2423 8.72722 19.2423 8.91785V13.9491C16.7728 14.066 14.3397 14.5636 12.0388 15.4225L7.66059 11.2682C7.51796 11.1328 7.3245 11.0568 7.12279 11.0568C6.92107 11.0568 6.72762 11.1328 6.58498 11.2682C6.44235 11.4035 6.36222 11.5871 6.36222 11.7785C6.36222 11.9699 6.44235 12.1534 6.58498 12.2888L10.5314 16.0263C7.11235 17.5373 3.98376 19.5804 1.27512 22.071C1.13633 22.2053 1.05859 22.386 1.05859 22.5741C1.05859 22.7622 1.13633 22.9429 1.27512 23.0772C1.62356 23.4078 9.75878 31.1991 19.9998 31.1991C30.2408 31.1991 38.376 23.4078 38.7244 23.0772C38.8632 22.9429 38.9409 22.7622 38.9409 22.5741C38.9409 22.386 38.8632 22.2053 38.7244 22.071V22.071ZM19.9998 29.7616C11.8645 29.7616 4.89583 24.2847 2.91883 22.5741C4.88825 20.8635 11.8494 15.3866 19.9998 15.3866C28.1501 15.3866 35.1037 20.8635 37.0807 22.5741C35.1492 24.2847 28.1501 29.7616 19.9998 29.7616Z" fill="#0075AB"></path>
</g>
<defs>
<clipPath id="clip0_284_12163">
<rect y="0.199097" width="40" height="40" rx="20" fill="none"></rect>
</clipPath>
</defs>
</svg>