<svg width="40" height="41" viewBox="0 0 40 41" fill="none" xmlns="http://www.w3.org/2000/svg">
<g clip-path="url(#clip0_284_12178)">
<path d="M23.5048 19.5741H16.4907C16.2835 19.5741 16.0848 19.6564 15.9383 19.8029C15.7918 19.9494 15.7095 20.1481 15.7095 20.3553C15.7095 21.4927 16.1613 22.5834 16.9655 23.3876C17.7697 24.1918 18.8604 24.6436 19.9978 24.6436C21.1351 24.6436 22.2258 24.1918 23.03 23.3876C23.8342 22.5834 24.286 21.4927 24.286 20.3553C24.286 20.1481 24.2037 19.9494 24.0572 19.8029C23.9107 19.6564 23.712 19.5741 23.5048 19.5741Z" fill="#0075AB"></path>
<path d="M19.9873 4.8397C20.1945 4.8397 20.3932 4.75739 20.5397 4.61087C20.6862 4.46436 20.7686 4.26565 20.7686 4.05845V1.0061C20.7686 0.798903 20.6862 0.600189 20.5397 0.453676C20.3932 0.307164 20.1945 0.224854 19.9873 0.224854C19.7801 0.224854 19.5814 0.307164 19.4349 0.453676C19.2884 0.600189 19.2061 0.798903 19.2061 1.0061V4.05845C19.2061 4.26565 19.2884 4.46436 19.4349 4.61087C19.5814 4.75739 19.7801 4.8397 19.9873 4.8397Z" fill="#0075AB"></path>
<path d="M19.9873 35.5585C19.7801 35.5585 19.5814 35.6408 19.4349 35.7873C19.2884 35.9338 19.2061 36.1325 19.2061 36.3397V39.3921C19.2061 39.5993 19.2884 39.798 19.4349 39.9445C19.5814 40.091 19.7801 40.1733 19.9873 40.1733C20.1945 40.1733 20.3932 40.091 20.5397 39.9445C20.6862 39.798 20.7686 39.5993 20.7686 39.3921V36.3397C20.7686 36.1325 20.6862 35.9338 20.5397 35.7873C20.3932 35.6408 20.1945 35.5585 19.9873 35.5585Z" fill="#0075AB"></path>
<path d="M39.1803 19.4178H36.1279C35.9207 19.4178 35.722 19.5002 35.5755 19.6467C35.429 19.7932 35.3467 19.9919 35.3467 20.1991C35.3467 20.4063 35.429 20.605 35.5755 20.7515C35.722 20.898 35.9207 20.9803 36.1279 20.9803H39.1803C39.3875 20.9803 39.5862 20.898 39.7327 20.7515C39.8792 20.605 39.9615 20.4063 39.9615 20.1991C39.9615 19.9919 39.8792 19.7932 39.7327 19.6467C39.5862 19.5002 39.3875 19.4178 39.1803 19.4178Z" fill="#0075AB"></path>
<path d="M3.84678 19.4178H0.794434C0.587233 19.4178 0.388519 19.5002 0.242006 19.6467C0.0954936 19.7932 0.0131836 19.9919 0.0131836 20.1991C0.0131836 20.4063 0.0954936 20.605 0.242006 20.7515C0.388519 20.898 0.587233 20.9803 0.794434 20.9803H3.84678C4.05398 20.9803 4.25269 20.898 4.39921 20.7515C4.54572 20.605 4.62803 20.4063 4.62803 20.1991C4.62803 19.9919 4.54572 19.7932 4.39921 19.6467C4.25269 19.5002 4.05398 19.4178 3.84678 19.4178Z" fill="#0075AB"></path>
<path d="M31.9533 31.0584C31.8068 30.9118 31.6081 30.8294 31.4008 30.8293C31.1936 30.8293 30.9948 30.9115 30.8482 31.058C30.7016 31.2045 30.6192 31.4032 30.6191 31.6105C30.6191 31.8177 30.7013 32.0165 30.8478 32.1631L33.0064 34.3217C33.079 34.3942 33.1652 34.4518 33.26 34.491C33.3548 34.5302 33.4564 34.5504 33.559 34.5504C33.6616 34.5503 33.7633 34.5301 33.858 34.4908C33.9528 34.4515 34.039 34.3939 34.1115 34.3213C34.184 34.2487 34.2416 34.1626 34.2808 34.0677C34.32 33.9729 34.3402 33.8713 34.3402 33.7687C34.3401 33.6661 34.3199 33.5645 34.2806 33.4697C34.2413 33.3749 34.1837 33.2888 34.1111 33.2162L31.9533 31.0584Z" fill="#0075AB"></path>
<path d="M8.02194 9.33971C8.16928 9.48202 8.36663 9.56077 8.57147 9.55899C8.77631 9.55721 8.97226 9.47505 9.11711 9.3302C9.26196 9.18535 9.34412 8.9894 9.3459 8.78456C9.34768 8.57971 9.26894 8.38237 9.12663 8.23502L6.96803 6.07487C6.82144 5.92837 6.62265 5.84612 6.41541 5.84619C6.20817 5.84626 6.00944 5.92866 5.86295 6.07526C5.71646 6.22185 5.6342 6.42063 5.63428 6.62788C5.63435 6.83512 5.71675 7.03384 5.86334 7.18034L8.02194 9.33971Z" fill="#0075AB"></path>
<path d="M8.02194 31.0584L5.86334 33.2178C5.71675 33.3643 5.63435 33.563 5.63428 33.7702C5.6342 33.9775 5.71646 34.1763 5.86295 34.3229C6.00944 34.4694 6.20817 34.5518 6.41541 34.5519C6.62265 34.552 6.82144 34.4697 6.96803 34.3232L9.12663 32.1646C9.27332 32.0182 9.35582 31.8194 9.35597 31.6121C9.35611 31.4048 9.2739 31.2059 9.12741 31.0592C8.98092 30.9125 8.78215 30.83 8.57483 30.8298C8.36752 30.8297 8.16864 30.9119 8.02194 31.0584Z" fill="#0075AB"></path>
<path d="M33.0065 6.07489L30.8479 8.23348C30.7012 8.38008 30.6187 8.57894 30.6187 8.78633C30.6186 8.99372 30.7009 9.19265 30.8475 9.33934C30.9941 9.48604 31.1929 9.5685 31.4003 9.56857C31.6077 9.56864 31.8067 9.48633 31.9533 9.33973L34.1112 7.18192C34.1837 7.10939 34.2413 7.02327 34.2806 6.92847C34.3199 6.83368 34.3402 6.73208 34.3402 6.62946C34.3403 6.52685 34.3201 6.42523 34.2808 6.33041C34.2416 6.23559 34.1841 6.14943 34.1116 6.07684C34.039 6.00426 33.9529 5.94667 33.8581 5.90737C33.7633 5.86806 33.6617 5.84781 33.5591 5.84778C33.4565 5.84774 33.3549 5.86792 33.26 5.90715C33.1652 5.94639 33.0791 6.00392 33.0065 6.07645V6.07489Z" fill="#0075AB"></path>
<path d="M26.6529 18.0687C26.6404 18.0687 25.4099 18.2726 24.8068 17.1234C24.7598 17.0313 24.695 16.9495 24.6162 16.8826C24.5374 16.8158 24.4461 16.7652 24.3477 16.7339C24.2492 16.7026 24.1455 16.6911 24.0425 16.7001C23.9396 16.7092 23.8394 16.7385 23.7479 16.7866C23.6564 16.8346 23.5753 16.9002 23.5094 16.9798C23.4434 17.0594 23.3939 17.1512 23.3637 17.2501C23.3335 17.3489 23.3232 17.4527 23.3334 17.5556C23.3436 17.6584 23.3741 17.7582 23.4232 17.8492C24.174 19.2804 25.5325 19.646 26.4404 19.646C26.6021 19.647 26.7637 19.6339 26.9232 19.607C27.0242 19.5892 27.1208 19.5517 27.2074 19.4967C27.2939 19.4416 27.3688 19.37 27.4277 19.286C27.4866 19.202 27.5284 19.1072 27.5507 19.0071C27.573 18.9069 27.5753 18.8033 27.5575 18.7023C27.5398 18.6012 27.5023 18.5047 27.4472 18.4181C27.3922 18.3315 27.3206 18.2566 27.2366 18.1977C27.1526 18.1388 27.0578 18.097 26.9576 18.0748C26.8575 18.0525 26.7539 18.0502 26.6529 18.0679V18.0687Z" fill="#0075AB"></path>
<path d="M16.5763 17.8492C16.6254 17.7582 16.6559 17.6584 16.6661 17.5556C16.6763 17.4527 16.666 17.3489 16.6358 17.2501C16.6056 17.1512 16.5561 17.0594 16.4901 16.9798C16.4242 16.9002 16.3431 16.8346 16.2516 16.7866C16.1601 16.7385 16.0599 16.7092 15.957 16.7001C15.854 16.6911 15.7503 16.7026 15.6518 16.7339C15.5534 16.7652 15.4621 16.8158 15.3833 16.8826C15.3045 16.9495 15.2397 17.0313 15.1927 17.1234C14.5896 18.2726 13.3591 18.071 13.3466 18.0687C13.1426 18.0328 12.9326 18.0795 12.7629 18.1985C12.5933 18.3175 12.4778 18.499 12.442 18.7031C12.4061 18.9072 12.4528 19.1171 12.5718 19.2868C12.6907 19.4564 12.8722 19.5719 13.0763 19.6077C13.2358 19.6347 13.3974 19.6477 13.5591 19.6468C14.4646 19.6468 15.8256 19.2804 16.5763 17.8492Z" fill="#0075AB"></path>
<path d="M20 6.91785C12.6766 6.91785 6.71875 12.8757 6.71875 20.1991C6.71875 27.5225 12.6766 33.4803 20 33.4803C27.3234 33.4803 33.2812 27.5225 33.2812 20.1991C33.2812 12.8757 27.3234 6.91785 20 6.91785ZM20 31.9178C13.5383 31.9178 8.28125 26.6608 8.28125 20.1991C8.28125 13.7374 13.5383 8.48035 20 8.48035C26.4617 8.48035 31.7188 13.7374 31.7188 20.1991C31.7188 26.6608 26.4617 31.9178 20 31.9178Z" fill="#0075AB"></path>
</g>
<defs>
<clipPath id="clip0_284_12178">
<rect width="40" height="40" fill="white" transform="translate(0 0.199097)"></rect>
</clipPath>
</defs>
</svg>