<svg xmlns="http://www.w3.org/2000/svg" viewBox="0 0 400 400" role="img" alt="">
<rect width="400" height="400" style="fill: none"></rect>
<path fill="currentColor" d="M136.07,340c130,0,201.16-107.73,201.16-201.16,0-3.06,0-6.11-.21-9.14A144,144,0,0,0,372.3,93.11a141.51,141.51,0,0,1-40.61,11.12,71,71,0,0,0,31.08-39.11,141.8,141.8,0,0,1-44.89,17.17,70.77,70.77,0,0,0-120.49,64.48A200.71,200.71,0,0,1,51.69,72.9a70.75,70.75,0,0,0,21.89,94.38,70.23,70.23,0,0,1-32.09-8.85v.89a70.73,70.73,0,0,0,56.72,69.31,70.6,70.6,0,0,1-31.93,1.21,70.8,70.8,0,0,0,66.06,49.1,141.94,141.94,0,0,1-87.81,30.32,143.57,143.57,0,0,1-16.83-1,200.08,200.08,0,0,0,108.37,31.7"></path>
</svg>