<svg width="20" height="20" viewBox="0 0 20 20" fill="none" xmlns="http://www.w3.org/2000/svg">
<path fill-rule="evenodd" clip-rule="evenodd" d="M3.293 3.29279C2.90247 3.68331 2.90231 4.31664 3.29264 4.70736L8.24477 9.66448L3.30166 14.6126C2.91134 15.0033 2.91149 15.6366 3.30202 16.0271C3.69254 16.4177 4.32555 16.4175 4.71588 16.0268L9.65827 11.0794L14.6006 16.0268C14.991 16.4175 15.624 16.4176 16.0145 16.0271C16.405 15.6366 16.4052 15.0033 16.0149 14.6126L11.0718 9.66447L16.0239 4.70737C16.4142 4.31665 16.4141 3.68332 16.0235 3.2928C15.633 2.90227 15 2.90243 14.6097 3.29316L9.65827 8.24955L4.70685 3.29315C4.31653 2.90242 3.68352 2.90226 3.293 3.29279Z" fill="currentColor"></path>
</svg>