<svg width="40" height="40" viewBox="0 0 40 40" fill="none" xmlns="http://www.w3.org/2000/svg">
<path d="M13.379 9.2041C13.1382 9.2041 12.9062 9.27539 12.7076 9.41164L10.0099 11.2671C9.95713 11.3032 9.90963 11.3328 9.86338 11.377L5.16369 15.8691C4.93725 16.0852 4.80725 16.3864 4.79744 16.6992C4.79373 16.8188 4.76459 17.5318 4.76084 17.6514C4.75162 17.946 4.85127 18.232 5.04158 18.457L17.4073 33.0811C17.4724 33.158 17.5448 33.2182 17.6271 33.2764L18.9942 34.2407C19.2168 34.3981 19.4809 34.4843 19.7389 34.4727C19.9968 34.461 20.2516 34.3564 20.4591 34.1797L21.9606 32.898C22.0071 32.8583 22.0549 32.8099 22.0948 32.7637L34.4361 18.457C34.6228 18.2405 34.7169 17.9738 34.7169 17.688V16.7359C34.7169 16.4098 34.5866 16.0941 34.3507 15.8691L29.712 11.438C29.6679 11.3959 29.6156 11.3507 29.5655 11.3159L26.8189 9.41164C26.619 9.27234 26.3913 9.2041 26.1476 9.2041H13.379ZM13.4034 10.4248H26.1231L19.7633 16.6016L13.4034 10.4248ZM12.6344 11.023L18.5304 16.7359L12.6344 16.748V11.023ZM26.7091 11.2061V16.748L20.9962 16.7359L26.7091 11.2061ZM27.6612 11.9263L29.8463 16.748H27.6612V11.9263ZM10.6935 12.2437C9.82979 14.1589 8.86158 16.2897 8.65486 16.748H6.01815L10.6935 12.2437ZM28.8819 12.3047C30.5902 13.9562 32.5532 15.8363 33.4962 16.748H30.8717C30.6684 16.2959 29.7411 14.2178 28.8819 12.3047ZM11.6822 12.3291V16.748H9.69248C9.69248 16.748 11.4668 12.8065 11.6822 12.3291ZM5.99377 17.7002L12.8297 17.7246L18.3228 32.312L5.99377 17.7002ZM33.4962 17.7002L21.1915 31.9946L26.6481 17.7246L33.4962 17.7002ZM13.8429 17.7246H25.6349C25.0473 19.2567 20.474 31.1955 19.69 33.2398L13.8429 17.7246Z" fill="#077C75"></path>
</svg>