<svg width="40" height="40" viewBox="0 0 40 40" fill="none" xmlns="http://www.w3.org/2000/svg">
<path d="M19.7737 4.20004C18.6373 4.2262 17.7296 4.49534 17.055 5.01997C16.3804 5.5446 15.9932 6.3102 15.8575 7.12376C15.5861 8.75088 16.1491 10.6304 17.0226 12.4965C17.8962 14.3627 19.1168 16.2037 20.3024 17.5996C20.8952 18.2975 21.4728 18.8805 22.0286 19.3149C22.5843 19.7494 23.091 20.0809 23.7332 20.0809C24.3754 20.0809 24.882 19.7494 25.4378 19.3149C25.9936 18.8805 26.5712 18.2975 27.164 17.5996C28.3496 16.2037 29.5702 14.3627 30.4437 12.4965C31.3173 10.6304 31.8803 8.75088 31.6089 7.12376C31.4732 6.3102 31.086 5.5446 30.4114 5.01997C29.7367 4.49534 28.8291 4.2262 27.6926 4.20004C27.6854 4.19992 27.6782 4.19992 27.671 4.20004C26.0212 4.2088 24.8184 5.36262 23.7332 6.37934C22.648 5.36262 21.4451 4.20881 19.7953 4.20004C19.7881 4.19992 19.7809 4.19992 19.7737 4.20004ZM19.7953 5.58098C19.7987 5.581 19.8027 5.58094 19.8061 5.58098C20.8662 5.59355 22.0239 6.68742 23.2693 7.81424C23.3963 7.92946 23.5617 7.99328 23.7332 7.99328C23.9047 7.99328 24.0701 7.92946 24.1971 7.81424C25.4425 6.68742 26.6001 5.59353 27.6603 5.58098C27.6645 5.58108 27.6668 5.58088 27.671 5.58098C28.5986 5.60418 29.193 5.81654 29.5699 6.10963C29.9485 6.40405 30.157 6.79557 30.2495 7.35032C30.4346 8.45984 30.0044 10.1789 29.1922 11.9139C28.3801 13.6489 27.2158 15.411 26.1175 16.7041C25.5683 17.3506 25.0318 17.8765 24.5855 18.2253C24.1392 18.5741 23.7601 18.7 23.7332 18.7C23.7063 18.7 23.3271 18.5741 22.8809 18.2253C22.4346 17.8765 21.8981 17.3506 21.3489 16.7041C20.2506 15.411 19.0863 13.6489 18.2741 11.9139C17.462 10.1789 17.0318 8.45984 17.2168 7.35032C17.3094 6.79557 17.5179 6.40405 17.8965 6.10963C18.2734 5.81654 18.8678 5.60417 19.7953 5.58098ZM5.02565 18.7C4.85397 18.7162 4.69456 18.796 4.57876 18.9238C4.46297 19.0516 4.39917 19.218 4.39991 19.3905V31.819C4.39993 32.0021 4.47268 32.1777 4.60216 32.3072C4.73165 32.4367 4.90726 32.5095 5.09038 32.5095H9.9237C10.1068 32.5095 10.2824 32.4367 10.4119 32.3072C10.5414 32.1777 10.6142 32.0021 10.6142 31.819V29.7044C11.6323 30.4556 12.5475 31.1904 13.6458 31.8082C15.116 32.6352 16.909 33.1999 19.5903 33.2C22.4405 33.2 25.7518 31.659 28.4263 30.1683C31.0761 28.6914 33.061 27.2394 33.0977 27.2122C33.0981 27.212 33.1193 27.1907 33.1193 27.1907C33.6388 26.8438 34.0448 26.5596 34.3492 26.1334C34.659 25.6997 34.7808 25.1636 34.7808 24.569C34.7808 24.0512 34.5538 23.5784 34.2413 23.2744C33.9288 22.9703 33.5635 22.7986 33.2164 22.6918C32.5222 22.4781 31.8463 22.4976 31.6736 22.4976C30.7975 22.4976 29.9253 22.8902 29.1815 23.2528C28.7347 23.4706 28.6216 23.5451 28.3831 23.6844C28.0267 22.7917 27.164 22.1524 26.1498 22.1524H19.8385C17.8821 20.4182 14.569 20.1203 10.6142 20.0917V19.3905C10.6142 19.2073 10.5414 19.0317 10.4119 18.9022C10.2824 18.7728 10.1068 18.7 9.9237 18.7H5.09038C5.06882 18.699 5.04722 18.699 5.02565 18.7ZM5.78086 20.0809H9.23323V20.7175C9.23253 20.7354 9.23253 20.7534 9.23323 20.7714V28.3666C9.23185 28.3918 9.23185 28.417 9.23323 28.4422V31.1285H5.78086V20.0809ZM10.6142 21.4835C14.6148 21.5325 17.7615 21.985 19.1049 23.3283C19.2332 23.4581 19.4078 23.5319 19.5903 23.5333H26.1498C26.7356 23.5333 27.1856 23.9833 27.1856 24.569C27.1856 25.1548 26.7356 25.6047 26.1498 25.6047H16.138C16.0465 25.6034 15.9556 25.6203 15.8707 25.6545C15.7858 25.6886 15.7085 25.7392 15.6434 25.8035C15.5782 25.8677 15.5265 25.9443 15.4912 26.0287C15.4559 26.1131 15.4377 26.2037 15.4377 26.2952C15.4377 26.3867 15.4559 26.4773 15.4912 26.5617C15.5265 26.6461 15.5782 26.7227 15.6434 26.7869C15.7085 26.8512 15.7858 26.9018 15.8707 26.936C15.9556 26.9701 16.0465 26.987 16.138 26.9857H26.1498C27.2413 26.9857 28.1302 26.2273 28.4263 25.2271C28.4832 25.2091 28.5376 25.1837 28.5881 25.1516C28.5881 25.1516 29.1131 24.8214 29.7856 24.4935C30.4581 24.1657 31.3104 23.8785 31.6736 23.8785C31.8463 23.8785 32.3786 23.8872 32.8064 24.0188C33.0204 24.0846 33.1945 24.1718 33.2811 24.2562C33.3678 24.3405 33.3998 24.3964 33.3998 24.569C33.3998 25.0102 33.349 25.1538 33.2272 25.3242C33.1054 25.4947 32.8241 25.7224 32.321 26.0579C32.3136 26.0649 32.3064 26.0721 32.2994 26.0794C32.2994 26.0794 30.3477 27.527 27.7574 28.9708C25.167 30.4146 21.9188 31.819 19.5903 31.819C17.0931 31.819 15.6063 31.3372 14.3147 30.6107C13.1146 29.9356 12.0424 28.9857 10.6142 27.9998V21.4835Z" fill="#077C75"></path>
</svg>